{"glyphs":{"0":{"ha":886,"x_min":76,"x_max":810,"o":"m 443 -22 q 249 40 332 -22 q 121 219 165 103 q 76 492 76 335 q 121 767 76 650 q 249 946 165 883 q 443 1008 332 1008 q 638 946 554 1008 q 765 767 721 883 q 810 492 810 650 q 765 219 810 335 q 638 40 721 103 q 443 -22 554 -22 m 443 22 q 613 79 540 22 q 724 242 685 136 q 763 492 763 349 q 724 742 763 636 q 613 906 685 849 q 443 964 540 964 q 274 906 346 964 q 163 742 201 849 q 124 492 124 636 q 163 242 124 349 q 274 79 201 136 q 443 22 346 22 z "},"1":{"ha":488,"x_min":69,"x_max":321,"o":"m 135 819 q 250 860 214 819 q 286 986 286 900 l 321 986 l 321 0 l 276 0 l 276 783 l 69 783 l 69 819 l 135 819 z "},"2":{"ha":857,"x_min":97,"x_max":760,"o":"m 115 689 q 174 858 128 786 q 294 969 221 931 q 460 1008 368 1008 q 615 973 547 1008 q 722 874 683 938 q 760 728 760 810 q 730 619 760 675 q 640 510 700 564 q 493 407 581 456 q 312 285 389 349 q 192 159 235 221 q 147 42 149 97 l 757 42 l 757 0 l 97 0 q 131 143 97 75 q 235 276 165 211 q 411 407 304 342 l 467 440 q 654 584 596 513 q 713 728 713 656 q 681 850 713 796 q 591 934 649 904 q 460 964 533 964 q 262 892 339 964 q 163 685 185 819 l 115 689 z "},"3":{"ha":846,"x_min":83,"x_max":763,"o":"m 413 551 q 552 577 490 551 q 648 648 614 603 q 682 751 682 693 q 649 862 682 814 q 555 937 615 910 q 417 964 494 964 q 256 913 324 964 q 172 779 188 861 l 125 783 q 179 900 138 849 q 283 980 221 951 q 417 1008 344 1008 q 579 976 508 1008 q 690 885 650 943 q 729 751 729 826 q 659 597 729 663 q 474 517 589 531 l 474 549 q 625 498 560 538 q 726 399 690 458 q 763 271 763 340 q 718 119 763 186 q 594 15 674 53 q 413 -22 514 -22 q 249 11 321 -22 q 133 104 176 44 q 83 242 90 164 l 126 246 q 215 84 138 146 q 413 22 293 22 q 570 53 501 22 q 677 142 639 85 q 715 276 715 200 q 676 398 715 344 q 569 481 638 451 q 413 511 500 511 l 321 510 l 321 553 l 413 551 z "},"4":{"ha":861,"x_min":83,"x_max":778,"o":"m 660 271 l 778 271 l 778 229 l 660 229 l 660 0 l 615 0 l 615 229 l 83 229 l 83 265 l 615 986 l 660 986 l 660 271 m 615 271 l 615 913 l 142 271 l 615 271 z "},"5":{"ha":851,"x_min":97,"x_max":754,"o":"m 690 944 l 222 944 l 154 464 l 144 483 q 256 605 175 556 q 425 654 338 654 q 596 611 521 654 q 713 492 671 568 q 754 317 754 415 q 713 141 754 218 q 597 21 671 64 q 429 -22 524 -22 q 269 11 342 -22 q 151 104 196 44 q 97 240 106 164 l 142 244 q 238 83 157 143 q 439 22 318 22 q 578 60 517 22 q 673 165 639 97 q 707 317 707 232 q 671 468 707 401 q 571 572 635 535 q 425 610 507 610 q 269 568 340 610 q 163 454 199 526 l 108 454 l 183 986 l 690 986 l 690 944 z "},"6":{"ha":858,"x_min":97,"x_max":761,"o":"m 701 776 q 609 911 672 858 q 476 964 546 964 q 230 824 317 964 q 139 406 143 683 l 126 429 q 246 596 160 533 q 440 658 332 658 q 606 616 533 658 q 720 499 679 574 q 761 328 761 424 q 720 147 761 226 q 606 22 679 67 q 440 -22 533 -22 q 299 7 365 -22 q 188 90 233 36 q 119 229 140 147 q 97 435 97 311 q 135 714 97 583 q 257 926 174 844 q 468 1008 340 1008 q 586 981 531 1008 q 683 902 642 953 q 747 782 725 851 l 701 776 m 149 328 q 185 174 147 243 q 290 63 222 104 q 440 22 357 22 q 582 61 519 22 q 679 169 644 100 q 714 328 714 239 q 679 476 714 411 q 582 578 644 542 q 440 614 519 614 q 290 578 356 614 q 186 476 224 542 q 149 328 149 411 z "},"7":{"ha":790,"x_min":69,"x_max":721,"o":"m 721 986 l 721 933 q 467 502 561 754 q 372 0 372 250 l 325 0 q 420 508 325 253 q 676 944 515 763 l 69 944 l 69 986 l 721 986 z "},"8":{"ha":833,"x_min":69,"x_max":764,"o":"m 417 -22 q 237 15 315 -22 q 114 119 158 53 q 69 271 69 186 q 128 435 69 364 q 288 538 186 506 q 163 623 208 568 q 117 743 117 678 q 155 880 117 819 q 261 974 193 940 q 417 1008 329 1008 q 572 974 504 1008 q 678 880 640 940 q 717 743 717 819 q 671 622 717 678 q 547 538 625 567 q 706 433 647 504 q 764 271 764 363 q 719 119 764 186 q 597 15 675 53 q 417 -22 518 -22 m 117 278 q 197 91 117 160 q 417 22 278 22 q 636 91 556 22 q 717 278 717 160 q 678 398 717 344 q 572 481 640 451 q 417 511 504 511 q 261 481 329 511 q 155 398 193 451 q 117 278 117 344 m 164 746 q 235 612 164 664 q 417 560 306 560 q 599 612 528 560 q 669 746 669 664 q 599 903 669 843 q 417 964 528 964 q 235 903 306 964 q 164 746 164 843 z "},"9":{"ha":858,"x_min":97,"x_max":761,"o":"m 97 658 q 138 840 97 760 q 252 964 179 919 q 418 1008 325 1008 q 560 979 494 1008 q 669 896 625 950 q 740 757 718 839 q 761 551 761 675 q 680 145 761 313 q 413 -22 599 -22 q 237 29 313 -22 q 133 169 161 81 l 179 175 q 267 63 204 104 q 413 22 331 22 q 585 90 514 22 q 689 283 656 157 q 715 576 722 408 l 732 557 q 613 390 699 453 q 418 328 526 328 q 252 370 325 328 q 138 488 179 413 q 97 658 97 563 m 144 658 q 179 510 144 575 q 276 408 214 444 q 418 372 339 372 q 569 408 503 372 q 672 510 635 444 q 710 658 710 575 q 674 813 711 743 q 569 923 636 882 q 418 964 501 964 q 276 925 339 964 q 179 817 214 886 q 144 658 144 747 z "}," ":{"ha":347,"x_min":0,"x_max":0,"o":""},"A":{"ha":850,"x_min":33,"x_max":817,"o":"m 399 986 l 451 986 l 817 0 l 771 0 l 651 326 l 199 326 l 79 0 l 33 0 l 399 986 m 636 368 l 425 942 l 214 368 l 636 368 z "},"Á":{"ha":850,"x_min":33,"x_max":817,"o":"m 399 986 l 451 986 l 817 0 l 771 0 l 651 326 l 199 326 l 79 0 l 33 0 l 399 986 m 636 368 l 425 942 l 214 368 l 636 368 m 442 1103 l 406 1103 l 506 1269 l 553 1269 l 442 1103 z "},"Ă":{"ha":850,"x_min":33,"x_max":817,"o":"m 399 986 l 451 986 l 817 0 l 771 0 l 651 326 l 199 326 l 79 0 l 33 0 l 399 986 m 636 368 l 425 942 l 214 368 l 636 368 m 299 1253 q 342 1187 307 1213 q 425 1161 378 1161 q 508 1187 472 1161 q 551 1253 543 1213 l 597 1253 q 569 1183 592 1214 q 508 1136 546 1153 q 425 1119 471 1119 q 342 1136 379 1119 q 281 1183 304 1153 q 253 1253 258 1214 l 299 1253 z "},"Ǎ":{"ha":850,"x_min":33,"x_max":817,"o":"m 399 986 l 451 986 l 817 0 l 771 0 l 651 326 l 199 326 l 79 0 l 33 0 l 399 986 m 636 368 l 425 942 l 214 368 l 636 368 z "},"Â":{"ha":850,"x_min":33,"x_max":817,"o":"m 399 986 l 451 986 l 817 0 l 771 0 l 651 326 l 199 326 l 79 0 l 33 0 l 399 986 m 636 368 l 425 942 l 214 368 l 636 368 m 414 1232 l 436 1232 l 339 1096 l 289 1096 l 408 1263 l 442 1263 l 563 1096 l 513 1096 l 414 1232 z "},"Ä":{"ha":850,"x_min":33,"x_max":817,"o":"m 399 986 l 451 986 l 817 0 l 771 0 l 651 326 l 199 326 l 79 0 l 33 0 l 399 986 m 636 368 l 425 942 l 214 368 l 636 368 z "},"À":{"ha":850,"x_min":33,"x_max":817,"o":"m 399 986 l 451 986 l 817 0 l 771 0 l 651 326 l 199 326 l 79 0 l 33 0 l 399 986 m 636 368 l 425 942 l 214 368 l 636 368 m 343 1269 l 443 1103 l 407 1103 l 296 1269 l 343 1269 z "},"Ā":{"ha":850,"x_min":33,"x_max":817,"o":"m 399 986 l 451 986 l 817 0 l 771 0 l 651 326 l 199 326 l 79 0 l 33 0 l 399 986 m 636 368 l 425 942 l 214 368 l 636 368 m 589 1182 l 589 1140 l 261 1140 l 261 1182 l 589 1182 z "},"Ą":{"ha":850,"x_min":33,"x_max":871,"o":"m 399 986 l 451 986 l 817 0 l 771 0 l 651 326 l 199 326 l 79 0 l 33 0 l 399 986 m 636 368 l 425 942 l 214 368 l 636 368 m 785 -47 q 752 -107 764 -78 q 740 -160 740 -136 q 758 -210 740 -193 q 811 -226 775 -226 q 838 -224 825 -226 q 861 -217 851 -221 q 871 -211 867 -214 l 871 -246 q 834 -263 853 -258 q 793 -268 815 -268 q 726 -244 753 -268 q 700 -181 700 -219 q 715 -109 700 -143 q 758 -39 731 -75 l 788 0 l 817 0 l 785 -47 z "},"Å":{"ha":850,"x_min":33,"x_max":817,"o":"m 399 986 l 451 986 l 817 0 l 771 0 l 651 326 l 199 326 l 79 0 l 33 0 l 399 986 m 636 368 l 425 942 l 214 368 l 636 368 m 425 1094 q 358 1122 385 1094 q 331 1188 331 1149 q 358 1253 331 1226 q 425 1281 386 1281 q 491 1253 464 1281 q 518 1188 518 1226 q 491 1122 518 1149 q 425 1094 464 1094 m 425 1132 q 463 1149 446 1132 q 479 1188 479 1165 q 463 1225 479 1208 q 425 1242 446 1242 q 386 1225 403 1242 q 369 1188 369 1208 q 386 1149 369 1165 q 425 1132 403 1132 z "},"Ã":{"ha":850,"x_min":33,"x_max":817,"o":"m 399 986 l 451 986 l 817 0 l 771 0 l 651 326 l 199 326 l 79 0 l 33 0 l 399 986 m 636 368 l 425 942 l 214 368 l 636 368 m 332 1211 q 279 1188 297 1211 q 258 1118 261 1165 l 215 1118 q 250 1219 219 1182 q 329 1256 281 1256 q 382 1244 360 1256 q 432 1206 404 1233 l 446 1192 q 477 1168 461 1176 q 515 1160 493 1160 q 569 1183 550 1160 q 592 1254 589 1207 l 635 1254 q 601 1151 631 1188 q 521 1115 572 1115 q 467 1126 486 1115 q 424 1158 447 1136 l 415 1165 l 406 1174 q 370 1201 386 1192 q 332 1211 354 1211 z "},"Æ":{"ha":1236,"x_min":33,"x_max":1167,"o":"m 1156 986 l 1156 944 l 671 944 l 671 515 l 1139 515 l 1139 474 l 671 474 l 671 42 l 1167 42 l 1167 0 l 626 0 l 626 321 l 249 321 l 83 0 l 33 0 l 549 986 l 1156 986 m 626 363 l 626 944 l 572 944 l 268 363 l 626 363 z "},"B":{"ha":886,"x_min":133,"x_max":810,"o":"m 133 986 l 435 986 q 685 920 601 986 q 768 722 768 854 q 737 603 768 656 q 651 521 706 550 q 525 492 596 492 l 525 500 q 733 436 656 500 q 810 263 810 372 q 730 65 810 131 q 490 0 650 0 l 133 0 l 133 986 m 490 42 q 694 97 626 42 q 763 263 763 151 q 689 415 763 358 q 490 471 615 471 l 178 471 l 178 42 l 490 42 m 435 513 q 647 567 572 513 q 721 722 721 621 q 649 889 721 833 q 435 944 578 944 l 178 944 l 178 513 l 435 513 z "},"C":{"ha":925,"x_min":69,"x_max":863,"o":"m 863 340 q 737 73 836 168 q 492 -22 638 -22 q 267 40 363 -22 q 121 219 172 103 q 69 492 69 335 q 121 767 69 650 q 267 946 172 883 q 492 1008 363 1008 q 726 919 629 1008 q 854 668 824 829 l 807 663 q 699 883 783 801 q 492 964 614 964 q 293 906 378 964 q 163 742 208 849 q 117 492 117 636 q 163 242 117 349 q 293 79 208 136 q 492 22 378 22 q 706 106 619 22 q 815 346 792 190 l 863 340 z "},"Ć":{"ha":925,"x_min":69,"x_max":863,"o":"m 863 340 q 737 73 836 168 q 492 -22 638 -22 q 267 40 363 -22 q 121 219 172 103 q 69 492 69 335 q 121 767 69 650 q 267 946 172 883 q 492 1008 363 1008 q 726 919 629 1008 q 854 668 824 829 l 807 663 q 699 883 783 801 q 492 964 614 964 q 293 906 378 964 q 163 742 208 849 q 117 492 117 636 q 163 242 117 349 q 293 79 208 136 q 492 22 378 22 q 706 106 619 22 q 815 346 792 190 l 863 340 m 508 1103 l 472 1103 l 572 1269 l 619 1269 l 508 1103 z "},"Č":{"ha":925,"x_min":69,"x_max":863,"o":"m 863 340 q 737 73 836 168 q 492 -22 638 -22 q 267 40 363 -22 q 121 219 172 103 q 69 492 69 335 q 121 767 69 650 q 267 946 172 883 q 492 1008 363 1008 q 726 919 629 1008 q 854 668 824 829 l 807 663 q 699 883 783 801 q 492 964 614 964 q 293 906 378 964 q 163 742 208 849 q 117 492 117 636 q 163 242 117 349 q 293 79 208 136 q 492 22 378 22 q 706 106 619 22 q 815 346 792 190 l 863 340 z "},"Ç":{"ha":925,"x_min":69,"x_max":863,"o":"m 863 340 q 737 73 836 168 q 492 -22 638 -22 q 267 40 363 -22 q 121 219 172 103 q 69 492 69 335 q 121 767 69 650 q 267 946 172 883 q 492 1008 363 1008 q 726 919 629 1008 q 854 668 824 829 l 807 663 q 699 883 783 801 q 492 964 614 964 q 293 906 378 964 q 163 742 208 849 q 117 492 117 636 q 163 242 117 349 q 293 79 208 136 q 492 22 378 22 q 706 106 619 22 q 815 346 792 190 l 863 340 m 479 11 l 522 11 l 453 -65 q 549 -90 510 -58 q 588 -176 588 -122 q 572 -233 588 -208 q 531 -273 557 -258 q 469 -287 504 -287 q 398 -271 428 -287 q 331 -214 368 -254 l 361 -185 l 368 -192 q 413 -233 389 -217 q 464 -249 436 -249 q 523 -227 500 -249 q 546 -171 546 -206 q 513 -110 546 -131 q 429 -99 479 -90 l 407 -68 l 479 11 z "},"Ĉ":{"ha":925,"x_min":69,"x_max":863,"o":"m 863 340 q 737 73 836 168 q 492 -22 638 -22 q 267 40 363 -22 q 121 219 172 103 q 69 492 69 335 q 121 767 69 650 q 267 946 172 883 q 492 1008 363 1008 q 726 919 629 1008 q 854 668 824 829 l 807 663 q 699 883 783 801 q 492 964 614 964 q 293 906 378 964 q 163 742 208 849 q 117 492 117 636 q 163 242 117 349 q 293 79 208 136 q 492 22 378 22 q 706 106 619 22 q 815 346 792 190 l 863 340 m 481 1232 l 503 1232 l 406 1096 l 356 1096 l 475 1263 l 508 1263 l 629 1096 l 579 1096 l 481 1232 z "},"Ċ":{"ha":925,"x_min":69,"x_max":863,"o":"m 863 340 q 737 73 836 168 q 492 -22 638 -22 q 267 40 363 -22 q 121 219 172 103 q 69 492 69 335 q 121 767 69 650 q 267 946 172 883 q 492 1008 363 1008 q 726 919 629 1008 q 854 668 824 829 l 807 663 q 699 883 783 801 q 492 964 614 964 q 293 906 378 964 q 163 742 208 849 q 117 492 117 636 q 163 242 117 349 q 293 79 208 136 q 492 22 378 22 q 706 106 619 22 q 815 346 792 190 l 863 340 m 515 1203 l 515 1106 l 468 1106 l 468 1203 l 515 1203 z "},"D":{"ha":939,"x_min":133,"x_max":869,"o":"m 414 986 q 751 858 633 986 q 869 492 869 729 q 753 128 869 256 q 422 0 638 0 l 133 0 l 133 986 l 414 986 m 414 42 q 717 158 611 42 q 822 492 822 275 q 717 827 822 710 q 414 944 611 944 l 178 944 l 178 42 l 414 42 z "},"Ð":{"ha":1063,"x_min":69,"x_max":993,"o":"m 583 514 l 583 472 l 69 472 l 69 514 l 583 514 m 538 986 q 875 858 757 986 q 993 492 993 729 q 877 128 993 256 q 546 0 761 0 l 257 0 l 257 986 l 538 986 m 538 42 q 840 158 735 42 q 946 492 946 275 q 840 827 946 710 q 538 944 735 944 l 301 944 l 301 42 l 538 42 z "},"Ď":{"ha":939,"x_min":133,"x_max":869,"o":"m 414 986 q 751 858 633 986 q 869 492 869 729 q 753 128 869 256 q 422 0 638 0 l 133 0 l 133 986 l 414 986 m 414 42 q 717 158 611 42 q 822 492 822 275 q 717 827 822 710 q 414 944 611 944 l 178 944 l 178 42 l 414 42 z "},"Đ":{"ha":1063,"x_min":69,"x_max":993,"o":"m 583 514 l 583 472 l 69 472 l 69 514 l 583 514 m 538 986 q 875 858 757 986 q 993 492 993 729 q 877 128 993 256 q 546 0 761 0 l 257 0 l 257 986 l 538 986 m 538 42 q 840 158 735 42 q 946 492 946 275 q 840 827 946 710 q 538 944 735 944 l 301 944 l 301 42 l 538 42 z "},"E":{"ha":796,"x_min":133,"x_max":726,"o":"m 715 986 l 715 944 l 178 944 l 178 513 l 699 513 l 699 471 l 178 471 l 178 42 l 726 42 l 726 0 l 133 0 l 133 986 l 715 986 z "},"É":{"ha":796,"x_min":133,"x_max":726,"o":"m 715 986 l 715 944 l 178 944 l 178 513 l 699 513 l 699 471 l 178 471 l 178 42 l 726 42 l 726 0 l 133 0 l 133 986 l 715 986 m 442 1103 l 406 1103 l 506 1269 l 553 1269 l 442 1103 z "},"Ě":{"ha":796,"x_min":133,"x_max":726,"o":"m 715 986 l 715 944 l 178 944 l 178 513 l 699 513 l 699 471 l 178 471 l 178 42 l 726 42 l 726 0 l 133 0 l 133 986 l 715 986 z "},"Ê":{"ha":796,"x_min":133,"x_max":726,"o":"m 715 986 l 715 944 l 178 944 l 178 513 l 699 513 l 699 471 l 178 471 l 178 42 l 726 42 l 726 0 l 133 0 l 133 986 l 715 986 m 414 1232 l 436 1232 l 339 1096 l 289 1096 l 408 1263 l 442 1263 l 563 1096 l 513 1096 l 414 1232 z "},"Ë":{"ha":796,"x_min":133,"x_max":726,"o":"m 715 986 l 715 944 l 178 944 l 178 513 l 699 513 l 699 471 l 178 471 l 178 42 l 726 42 l 726 0 l 133 0 l 133 986 l 715 986 z "},"Ė":{"ha":796,"x_min":133,"x_max":726,"o":"m 715 986 l 715 944 l 178 944 l 178 513 l 699 513 l 699 471 l 178 471 l 178 42 l 726 42 l 726 0 l 133 0 l 133 986 l 715 986 m 449 1203 l 449 1106 l 401 1106 l 401 1203 l 449 1203 z "},"È":{"ha":796,"x_min":133,"x_max":726,"o":"m 715 986 l 715 944 l 178 944 l 178 513 l 699 513 l 699 471 l 178 471 l 178 42 l 726 42 l 726 0 l 133 0 l 133 986 l 715 986 m 343 1269 l 443 1103 l 407 1103 l 296 1269 l 343 1269 z "},"Ē":{"ha":796,"x_min":133,"x_max":726,"o":"m 715 986 l 715 944 l 178 944 l 178 513 l 699 513 l 699 471 l 178 471 l 178 42 l 726 42 l 726 0 l 133 0 l 133 986 l 715 986 m 589 1182 l 589 1140 l 261 1140 l 261 1182 l 589 1182 z "},"Ę":{"ha":796,"x_min":133,"x_max":781,"o":"m 715 986 l 715 944 l 178 944 l 178 513 l 699 513 l 699 471 l 178 471 l 178 42 l 726 42 l 726 0 l 133 0 l 133 986 l 715 986 m 694 -47 q 662 -107 674 -78 q 650 -160 650 -136 q 667 -210 650 -193 q 721 -226 685 -226 q 748 -224 735 -226 q 771 -217 761 -221 q 781 -211 776 -214 l 781 -246 q 744 -263 763 -258 q 703 -268 725 -268 q 636 -244 663 -268 q 610 -181 610 -219 q 625 -109 610 -143 q 668 -39 640 -75 l 697 0 l 726 0 l 694 -47 z "},"Ẽ":{"ha":796,"x_min":133,"x_max":726,"o":"m 715 986 l 715 944 l 178 944 l 178 513 l 699 513 l 699 471 l 178 471 l 178 42 l 726 42 l 726 0 l 133 0 l 133 986 l 715 986 m 332 1211 q 279 1188 297 1211 q 258 1118 261 1165 l 215 1118 q 250 1219 219 1182 q 329 1256 281 1256 q 382 1244 360 1256 q 432 1206 404 1233 l 446 1192 q 477 1168 461 1176 q 515 1160 493 1160 q 569 1183 550 1160 q 592 1254 589 1207 l 635 1254 q 601 1151 631 1188 q 521 1115 572 1115 q 467 1126 486 1115 q 424 1158 447 1136 l 415 1165 l 406 1174 q 370 1201 386 1192 q 332 1211 354 1211 z "},"Ə":{"ha":974,"x_min":69,"x_max":904,"o":"m 858 507 q 809 744 857 640 q 678 906 761 847 q 488 964 594 964 q 281 895 376 964 q 144 717 185 826 l 97 721 q 183 869 124 804 q 322 972 242 935 q 488 1008 401 1008 q 703 943 608 1008 q 851 760 799 878 q 904 494 904 643 q 851 227 904 344 q 703 44 799 110 q 488 -21 608 -21 q 272 44 367 -21 q 123 227 176 110 q 69 494 69 344 l 69 507 l 858 507 m 488 24 q 674 79 592 24 q 804 235 756 135 q 858 465 853 336 l 117 465 q 171 235 122 336 q 301 79 219 135 q 488 24 383 24 z "},"Ʒ":{"ha":783,"x_min":83,"x_max":700,"o":"m 83 203 q 227 69 147 117 q 392 22 307 22 q 526 56 467 22 q 619 148 586 90 q 653 276 653 206 q 617 412 653 353 q 519 503 582 471 q 378 535 457 536 l 303 533 l 303 585 l 640 944 l 89 944 l 89 986 l 685 986 l 685 931 l 351 576 q 532 546 453 582 q 656 440 611 510 q 700 276 700 369 q 660 126 700 194 q 550 17 621 57 q 392 -22 479 -22 q 224 18 304 -22 q 83 132 144 58 l 83 203 z "},"Ǯ":{"ha":783,"x_min":83,"x_max":700,"o":"m 83 203 q 227 69 147 117 q 392 22 307 22 q 526 56 467 22 q 619 148 586 90 q 653 276 653 206 q 617 412 653 353 q 519 503 582 471 q 378 535 457 536 l 303 533 l 303 585 l 640 944 l 89 944 l 89 986 l 685 986 l 685 931 l 351 576 q 532 546 453 582 q 656 440 611 510 q 700 276 700 369 q 660 126 700 194 q 550 17 621 57 q 392 -22 479 -22 q 224 18 304 -22 q 83 132 144 58 l 83 203 z "},"F":{"ha":778,"x_min":133,"x_max":715,"o":"m 715 986 l 715 944 l 168 944 l 178 957 l 178 478 l 168 513 l 690 513 l 690 471 l 168 471 l 178 486 l 178 0 l 133 0 l 133 986 l 715 986 z "},"G":{"ha":938,"x_min":69,"x_max":861,"o":"m 817 0 l 810 271 l 818 246 q 756 103 801 164 q 642 10 710 43 q 492 -22 575 -22 q 267 40 363 -22 q 121 219 172 103 q 69 492 69 335 q 121 767 69 650 q 267 946 172 883 q 492 1008 363 1008 q 724 919 626 1008 q 856 668 822 831 l 810 663 q 692 885 775 807 q 492 964 610 964 q 293 906 378 964 q 163 742 208 849 q 117 492 117 636 q 163 242 117 349 q 293 79 208 136 q 492 22 378 22 q 653 70 582 22 q 765 208 724 118 q 814 417 807 297 l 492 417 l 492 458 l 861 458 l 861 0 l 817 0 z "},"Ğ":{"ha":938,"x_min":69,"x_max":861,"o":"m 817 0 l 810 271 l 818 246 q 756 103 801 164 q 642 10 710 43 q 492 -22 575 -22 q 267 40 363 -22 q 121 219 172 103 q 69 492 69 335 q 121 767 69 650 q 267 946 172 883 q 492 1008 363 1008 q 724 919 626 1008 q 856 668 822 831 l 810 663 q 692 885 775 807 q 492 964 610 964 q 293 906 378 964 q 163 742 208 849 q 117 492 117 636 q 163 242 117 349 q 293 79 208 136 q 492 22 378 22 q 653 70 582 22 q 765 208 724 118 q 814 417 807 297 l 492 417 l 492 458 l 861 458 l 861 0 l 817 0 m 365 1253 q 409 1187 374 1213 q 492 1161 444 1161 q 574 1187 539 1161 q 618 1253 610 1213 l 664 1253 q 635 1183 658 1214 q 575 1136 613 1153 q 492 1119 538 1119 q 408 1136 446 1119 q 348 1183 371 1153 q 319 1253 325 1214 l 365 1253 z "},"Ǧ":{"ha":938,"x_min":69,"x_max":861,"o":"m 817 0 l 810 271 l 818 246 q 756 103 801 164 q 642 10 710 43 q 492 -22 575 -22 q 267 40 363 -22 q 121 219 172 103 q 69 492 69 335 q 121 767 69 650 q 267 946 172 883 q 492 1008 363 1008 q 724 919 626 1008 q 856 668 822 831 l 810 663 q 692 885 775 807 q 492 964 610 964 q 293 906 378 964 q 163 742 208 849 q 117 492 117 636 q 163 242 117 349 q 293 79 208 136 q 492 22 378 22 q 653 70 582 22 q 765 208 724 118 q 814 417 807 297 l 492 417 l 492 458 l 861 458 l 861 0 l 817 0 z "},"Ĝ":{"ha":938,"x_min":69,"x_max":861,"o":"m 817 0 l 810 271 l 818 246 q 756 103 801 164 q 642 10 710 43 q 492 -22 575 -22 q 267 40 363 -22 q 121 219 172 103 q 69 492 69 335 q 121 767 69 650 q 267 946 172 883 q 492 1008 363 1008 q 724 919 626 1008 q 856 668 822 831 l 810 663 q 692 885 775 807 q 492 964 610 964 q 293 906 378 964 q 163 742 208 849 q 117 492 117 636 q 163 242 117 349 q 293 79 208 136 q 492 22 378 22 q 653 70 582 22 q 765 208 724 118 q 814 417 807 297 l 492 417 l 492 458 l 861 458 l 861 0 l 817 0 m 481 1232 l 503 1232 l 406 1096 l 356 1096 l 475 1263 l 508 1263 l 629 1096 l 579 1096 l 481 1232 z "},"Ģ":{"ha":938,"x_min":69,"x_max":861,"o":"m 817 0 l 810 271 l 818 246 q 756 103 801 164 q 642 10 710 43 q 492 -22 575 -22 q 267 40 363 -22 q 121 219 172 103 q 69 492 69 335 q 121 767 69 650 q 267 946 172 883 q 492 1008 363 1008 q 724 919 626 1008 q 856 668 822 831 l 810 663 q 692 885 775 807 q 492 964 610 964 q 293 906 378 964 q 163 742 208 849 q 117 492 117 636 q 163 242 117 349 q 293 79 208 136 q 492 22 378 22 q 653 70 582 22 q 765 208 724 118 q 814 417 807 297 l 492 417 l 492 458 l 861 458 l 861 0 l 817 0 z "},"Ġ":{"ha":938,"x_min":69,"x_max":861,"o":"m 817 0 l 810 271 l 818 246 q 756 103 801 164 q 642 10 710 43 q 492 -22 575 -22 q 267 40 363 -22 q 121 219 172 103 q 69 492 69 335 q 121 767 69 650 q 267 946 172 883 q 492 1008 363 1008 q 724 919 626 1008 q 856 668 822 831 l 810 663 q 692 885 775 807 q 492 964 610 964 q 293 906 378 964 q 163 742 208 849 q 117 492 117 636 q 163 242 117 349 q 293 79 208 136 q 492 22 378 22 q 653 70 582 22 q 765 208 724 118 q 814 417 807 297 l 492 417 l 492 458 l 861 458 l 861 0 l 817 0 m 515 1203 l 515 1106 l 468 1106 l 468 1203 l 515 1203 z "},"Ḡ":{"ha":938,"x_min":69,"x_max":861,"o":"m 817 0 l 810 271 l 818 246 q 756 103 801 164 q 642 10 710 43 q 492 -22 575 -22 q 267 40 363 -22 q 121 219 172 103 q 69 492 69 335 q 121 767 69 650 q 267 946 172 883 q 492 1008 363 1008 q 724 919 626 1008 q 856 668 822 831 l 810 663 q 692 885 775 807 q 492 964 610 964 q 293 906 378 964 q 163 742 208 849 q 117 492 117 636 q 163 242 117 349 q 293 79 208 136 q 492 22 378 22 q 653 70 582 22 q 765 208 724 118 q 814 417 807 297 l 492 417 l 492 458 l 861 458 l 861 0 l 817 0 m 656 1182 l 656 1140 l 328 1140 l 328 1182 l 656 1182 z "},"Ǥ":{"ha":992,"x_min":69,"x_max":929,"o":"m 861 458 l 861 425 q 816 188 861 289 q 688 32 771 86 q 492 -22 604 -22 q 267 40 363 -22 q 121 219 172 103 q 69 492 69 335 q 121 767 69 650 q 267 946 172 883 q 492 1008 363 1008 q 723 924 625 1008 q 856 696 821 840 l 810 690 q 690 890 775 817 q 492 964 604 964 q 293 906 378 964 q 163 742 208 849 q 117 492 117 636 q 163 242 117 349 q 293 79 208 136 q 492 22 378 22 q 663 70 590 22 q 775 208 736 118 q 814 417 814 297 l 492 417 l 492 458 l 861 458 m 929 276 l 929 235 l 492 235 l 492 276 l 929 276 z "},"H":{"ha":939,"x_min":133,"x_max":806,"o":"m 133 986 l 178 986 l 178 514 l 165 526 l 772 526 l 761 514 l 761 986 l 806 986 l 806 0 l 761 0 l 761 499 l 772 485 l 165 485 l 178 499 l 178 0 l 133 0 l 133 986 z "},"Ħ":{"ha":1217,"x_min":133,"x_max":1083,"o":"m 304 986 l 304 0 l 260 0 l 260 986 l 304 986 m 957 986 l 957 0 l 913 0 l 913 986 l 957 986 m 1083 772 l 133 772 l 133 814 l 1083 814 l 1083 772 m 936 482 l 281 482 l 281 524 l 936 524 l 936 482 z "},"Ĥ":{"ha":939,"x_min":133,"x_max":806,"o":"m 133 986 l 178 986 l 178 514 l 165 526 l 772 526 l 761 514 l 761 986 l 806 986 l 806 0 l 761 0 l 761 499 l 772 485 l 165 485 l 178 499 l 178 0 l 133 0 l 133 986 m 458 1232 l 481 1232 l 383 1096 l 333 1096 l 453 1263 l 486 1263 l 607 1096 l 557 1096 l 458 1232 z "},"I":{"ha":311,"x_min":133,"x_max":178,"o":"m 178 986 l 178 0 l 133 0 l 133 986 l 178 986 z "},"Ĳ":{"ha":1103,"x_min":133,"x_max":990,"o":"m 178 986 l 178 0 l 133 0 l 133 986 l 178 986 m 457 328 q 524 105 458 188 q 699 22 590 22 q 879 108 813 22 q 946 344 946 193 l 946 986 l 990 986 l 990 344 q 955 150 990 233 q 853 22 919 67 q 699 -22 788 -22 q 550 22 615 -22 q 447 144 485 65 q 410 322 410 222 l 457 328 z "},"Í":{"ha":311,"x_min":133,"x_max":283,"o":"m 178 986 l 178 0 l 133 0 l 133 986 l 178 986 m 172 1103 l 136 1103 l 236 1269 l 283 1269 l 172 1103 z "},"Î":{"ha":311,"x_min":19,"x_max":293,"o":"m 178 986 l 178 0 l 133 0 l 133 986 l 178 986 m 144 1232 l 167 1232 l 69 1096 l 19 1096 l 139 1263 l 172 1263 l 293 1096 l 243 1096 l 144 1232 z "},"Ï":{"ha":311,"x_min":43,"x_max":267,"o":"m 178 986 l 178 0 l 133 0 l 133 986 l 178 986 z "},"İ":{"ha":311,"x_min":132,"x_max":179,"o":"m 178 986 l 178 0 l 133 0 l 133 986 l 178 986 m 179 1203 l 179 1106 l 132 1106 l 132 1203 l 179 1203 z "},"Ì":{"ha":311,"x_min":26,"x_max":178,"o":"m 178 986 l 178 0 l 133 0 l 133 986 l 178 986 m 74 1269 l 174 1103 l 138 1103 l 26 1269 l 74 1269 z "},"Ī":{"ha":311,"x_min":-8,"x_max":319,"o":"m 178 986 l 178 0 l 133 0 l 133 986 l 178 986 m 319 1182 l 319 1140 l -8 1140 l -8 1182 l 319 1182 z "},"Į":{"ha":311,"x_min":61,"x_max":232,"o":"m 178 986 l 178 0 l 133 0 l 133 986 l 178 986 m 146 -47 q 113 -107 125 -78 q 101 -160 101 -136 q 119 -210 101 -193 q 172 -226 136 -226 q 199 -224 186 -226 q 222 -217 213 -221 q 232 -211 228 -214 l 232 -246 q 195 -263 214 -258 q 154 -268 176 -268 q 88 -244 114 -268 q 61 -181 61 -219 q 76 -109 61 -143 q 119 -39 92 -75 l 149 0 l 178 0 l 146 -47 z "},"Ĩ":{"ha":311,"x_min":-54,"x_max":365,"o":"m 178 986 l 178 0 l 133 0 l 133 986 l 178 986 m 63 1211 q 10 1188 28 1211 q -11 1118 -8 1165 l -54 1118 q -19 1219 -50 1182 q 60 1256 11 1256 q 113 1244 90 1256 q 163 1206 135 1233 l 176 1192 q 208 1168 192 1176 q 246 1160 224 1160 q 300 1183 281 1160 q 322 1254 319 1207 l 365 1254 q 332 1151 361 1188 q 251 1115 303 1115 q 197 1126 217 1115 q 154 1158 178 1136 l 146 1165 l 136 1174 q 101 1201 117 1192 q 63 1211 85 1211 z "},"J":{"ha":792,"x_min":99,"x_max":679,"o":"m 146 328 q 213 105 147 188 q 388 22 279 22 q 568 108 501 22 q 635 344 635 193 l 635 986 l 679 986 l 679 344 q 644 150 679 233 q 542 22 608 67 q 388 -22 476 -22 q 239 22 304 -22 q 136 144 174 65 q 99 322 99 222 l 146 328 z "},"Ĵ":{"ha":792,"x_min":99,"x_max":794,"o":"m 146 328 q 213 105 147 188 q 388 22 279 22 q 568 108 501 22 q 635 344 635 193 l 635 986 l 679 986 l 679 344 q 644 150 679 233 q 542 22 608 67 q 388 -22 476 -22 q 239 22 304 -22 q 136 144 174 65 q 99 322 99 222 l 146 328 m 646 1232 l 668 1232 l 571 1096 l 521 1096 l 640 1263 l 674 1263 l 794 1096 l 744 1096 l 646 1232 z "},"K":{"ha":868,"x_min":133,"x_max":826,"o":"m 178 986 l 178 382 l 742 986 l 796 986 l 394 557 l 826 0 l 775 0 l 368 528 l 178 324 l 178 0 l 133 0 l 133 986 l 178 986 z "},"Ǩ":{"ha":868,"x_min":133,"x_max":826,"o":"m 178 986 l 178 382 l 742 986 l 796 986 l 394 557 l 826 0 l 775 0 l 368 528 l 178 324 l 178 0 l 133 0 l 133 986 l 178 986 z "},"Ķ":{"ha":868,"x_min":133,"x_max":826,"o":"m 178 986 l 178 382 l 742 986 l 796 986 l 394 557 l 826 0 l 775 0 l 368 528 l 178 324 l 178 0 l 133 0 l 133 986 l 178 986 z "},"L":{"ha":764,"x_min":133,"x_max":708,"o":"m 133 986 l 178 986 l 178 29 l 168 42 l 708 42 l 708 0 l 133 0 l 133 986 z "},"Ĺ":{"ha":764,"x_min":133,"x_max":708,"o":"m 133 986 l 178 986 l 178 29 l 168 42 l 708 42 l 708 0 l 133 0 l 133 986 m 172 1103 l 136 1103 l 236 1269 l 283 1269 l 172 1103 z "},"Ľ":{"ha":764,"x_min":133,"x_max":708,"o":"m 133 986 l 178 986 l 178 29 l 168 42 l 708 42 l 708 0 l 133 0 l 133 986 z "},"Ļ":{"ha":764,"x_min":133,"x_max":708,"o":"m 133 986 l 178 986 l 178 29 l 168 42 l 708 42 l 708 0 l 133 0 l 133 986 z "},"Ł":{"ha":792,"x_min":36,"x_max":736,"o":"m 350 631 l 368 593 l 54 449 l 36 486 l 350 631 m 161 986 l 206 986 l 206 29 l 196 42 l 736 42 l 736 0 l 161 0 l 161 986 z "},"M":{"ha":1181,"x_min":133,"x_max":1047,"o":"m 208 986 l 590 47 l 972 986 l 1047 986 l 1047 0 l 1003 0 l 1003 942 l 615 0 l 565 0 l 178 942 l 178 0 l 133 0 l 133 986 l 208 986 z "},"N":{"ha":988,"x_min":133,"x_max":854,"o":"m 199 986 l 810 44 l 810 986 l 854 986 l 854 0 l 789 0 l 178 942 l 178 0 l 133 0 l 133 986 l 199 986 z "},"Ń":{"ha":988,"x_min":133,"x_max":854,"o":"m 199 986 l 810 44 l 810 986 l 854 986 l 854 0 l 789 0 l 178 942 l 178 0 l 133 0 l 133 986 l 199 986 m 511 1103 l 475 1103 l 575 1269 l 622 1269 l 511 1103 z "},"Ň":{"ha":988,"x_min":133,"x_max":854,"o":"m 199 986 l 810 44 l 810 986 l 854 986 l 854 0 l 789 0 l 178 942 l 178 0 l 133 0 l 133 986 l 199 986 z "},"Ņ":{"ha":988,"x_min":133,"x_max":854,"o":"m 199 986 l 810 44 l 810 986 l 854 986 l 854 0 l 789 0 l 178 942 l 178 0 l 133 0 l 133 986 l 199 986 z "},"Ñ":{"ha":988,"x_min":133,"x_max":854,"o":"m 199 986 l 810 44 l 810 986 l 854 986 l 854 0 l 789 0 l 178 942 l 178 0 l 133 0 l 133 986 l 199 986 m 401 1211 q 349 1188 367 1211 q 328 1118 331 1165 l 285 1118 q 319 1219 289 1182 q 399 1256 350 1256 q 451 1244 429 1256 q 501 1206 474 1233 l 515 1192 q 547 1168 531 1176 q 585 1160 563 1160 q 639 1183 619 1160 q 661 1254 658 1207 l 704 1254 q 671 1151 700 1188 q 590 1115 642 1115 q 536 1126 556 1115 q 493 1158 517 1136 l 485 1165 l 475 1174 q 440 1201 456 1192 q 401 1211 424 1211 z "},"Ŋ":{"ha":988,"x_min":133,"x_max":854,"o":"m 201 986 l 810 78 l 810 986 l 854 986 l 854 0 l 810 0 l 178 942 l 178 0 l 133 0 l 133 986 l 201 986 m 854 46 l 854 -42 q 806 -162 854 -115 q 682 -208 758 -208 l 547 -208 l 547 -167 l 682 -167 q 774 -132 739 -167 q 810 -42 810 -97 l 810 46 l 854 46 z "},"O":{"ha":992,"x_min":69,"x_max":922,"o":"m 496 -22 q 269 40 365 -22 q 121 219 172 103 q 69 492 69 335 q 121 767 69 650 q 269 946 172 883 q 496 1008 365 1008 q 723 946 626 1008 q 871 767 819 883 q 922 492 922 650 q 871 219 922 335 q 723 40 819 103 q 496 -22 626 -22 m 496 22 q 698 79 613 22 q 829 242 783 136 q 875 492 875 349 q 829 742 875 636 q 698 906 783 849 q 496 964 613 964 q 294 906 379 964 q 163 742 208 849 q 117 492 117 636 q 163 242 117 349 q 294 79 208 136 q 496 22 379 22 z "},"Ó":{"ha":992,"x_min":69,"x_max":922,"o":"m 496 -22 q 269 40 365 -22 q 121 219 172 103 q 69 492 69 335 q 121 767 69 650 q 269 946 172 883 q 496 1008 365 1008 q 723 946 626 1008 q 871 767 819 883 q 922 492 922 650 q 871 219 922 335 q 723 40 819 103 q 496 -22 626 -22 m 496 22 q 698 79 613 22 q 829 242 783 136 q 875 492 875 349 q 829 742 875 636 q 698 906 783 849 q 496 964 613 964 q 294 906 379 964 q 163 742 208 849 q 117 492 117 636 q 163 242 117 349 q 294 79 208 136 q 496 22 379 22 m 513 1103 l 476 1103 l 576 1269 l 624 1269 l 513 1103 z "},"Ô":{"ha":992,"x_min":69,"x_max":922,"o":"m 496 -22 q 269 40 365 -22 q 121 219 172 103 q 69 492 69 335 q 121 767 69 650 q 269 946 172 883 q 496 1008 365 1008 q 723 946 626 1008 q 871 767 819 883 q 922 492 922 650 q 871 219 922 335 q 723 40 819 103 q 496 -22 626 -22 m 496 22 q 698 79 613 22 q 829 242 783 136 q 875 492 875 349 q 829 742 875 636 q 698 906 783 849 q 496 964 613 964 q 294 906 379 964 q 163 742 208 849 q 117 492 117 636 q 163 242 117 349 q 294 79 208 136 q 496 22 379 22 m 485 1232 l 507 1232 l 410 1096 l 360 1096 l 479 1263 l 513 1263 l 633 1096 l 583 1096 l 485 1232 z "},"Ö":{"ha":992,"x_min":69,"x_max":922,"o":"m 496 -22 q 269 40 365 -22 q 121 219 172 103 q 69 492 69 335 q 121 767 69 650 q 269 946 172 883 q 496 1008 365 1008 q 723 946 626 1008 q 871 767 819 883 q 922 492 922 650 q 871 219 922 335 q 723 40 819 103 q 496 -22 626 -22 m 496 22 q 698 79 613 22 q 829 242 783 136 q 875 492 875 349 q 829 742 875 636 q 698 906 783 849 q 496 964 613 964 q 294 906 379 964 q 163 742 208 849 q 117 492 117 636 q 163 242 117 349 q 294 79 208 136 q 496 22 379 22 z "},"Ò":{"ha":992,"x_min":69,"x_max":922,"o":"m 496 -22 q 269 40 365 -22 q 121 219 172 103 q 69 492 69 335 q 121 767 69 650 q 269 946 172 883 q 496 1008 365 1008 q 723 946 626 1008 q 871 767 819 883 q 922 492 922 650 q 871 219 922 335 q 723 40 819 103 q 496 -22 626 -22 m 496 22 q 698 79 613 22 q 829 242 783 136 q 875 492 875 349 q 829 742 875 636 q 698 906 783 849 q 496 964 613 964 q 294 906 379 964 q 163 742 208 849 q 117 492 117 636 q 163 242 117 349 q 294 79 208 136 q 496 22 379 22 m 414 1269 l 514 1103 l 478 1103 l 367 1269 l 414 1269 z "},"Ő":{"ha":992,"x_min":69,"x_max":922,"o":"m 496 -22 q 269 40 365 -22 q 121 219 172 103 q 69 492 69 335 q 121 767 69 650 q 269 946 172 883 q 496 1008 365 1008 q 723 946 626 1008 q 871 767 819 883 q 922 492 922 650 q 871 219 922 335 q 723 40 819 103 q 496 -22 626 -22 m 496 22 q 698 79 613 22 q 829 242 783 136 q 875 492 875 349 q 829 742 875 636 q 698 906 783 849 q 496 964 613 964 q 294 906 379 964 q 163 742 208 849 q 117 492 117 636 q 163 242 117 349 q 294 79 208 136 q 496 22 379 22 z "},"Ō":{"ha":992,"x_min":69,"x_max":922,"o":"m 496 -22 q 269 40 365 -22 q 121 219 172 103 q 69 492 69 335 q 121 767 69 650 q 269 946 172 883 q 496 1008 365 1008 q 723 946 626 1008 q 871 767 819 883 q 922 492 922 650 q 871 219 922 335 q 723 40 819 103 q 496 -22 626 -22 m 496 22 q 698 79 613 22 q 829 242 783 136 q 875 492 875 349 q 829 742 875 636 q 698 906 783 849 q 496 964 613 964 q 294 906 379 964 q 163 742 208 849 q 117 492 117 636 q 163 242 117 349 q 294 79 208 136 q 496 22 379 22 m 660 1182 l 660 1140 l 332 1140 l 332 1182 l 660 1182 z "},"Ø":{"ha":992,"x_min":69,"x_max":922,"o":"m 496 -22 q 269 40 365 -22 q 121 219 172 103 q 69 492 69 335 q 121 767 69 650 q 269 946 172 883 q 496 1008 365 1008 q 723 946 626 1008 q 871 767 819 883 q 922 492 922 650 q 871 219 922 335 q 723 40 819 103 q 496 -22 626 -22 m 496 22 q 698 79 613 22 q 829 242 783 136 q 875 492 875 349 q 829 742 875 636 q 698 906 783 849 q 496 964 613 964 q 294 906 379 964 q 163 742 208 849 q 117 492 117 636 q 163 242 117 349 q 294 79 208 136 q 496 22 379 22 m 911 1008 l 149 -22 l 96 -22 l 860 1008 l 911 1008 z "},"Õ":{"ha":992,"x_min":69,"x_max":922,"o":"m 496 -22 q 269 40 365 -22 q 121 219 172 103 q 69 492 69 335 q 121 767 69 650 q 269 946 172 883 q 496 1008 365 1008 q 723 946 626 1008 q 871 767 819 883 q 922 492 922 650 q 871 219 922 335 q 723 40 819 103 q 496 -22 626 -22 m 496 22 q 698 79 613 22 q 829 242 783 136 q 875 492 875 349 q 829 742 875 636 q 698 906 783 849 q 496 964 613 964 q 294 906 379 964 q 163 742 208 849 q 117 492 117 636 q 163 242 117 349 q 294 79 208 136 q 496 22 379 22 m 403 1211 q 350 1188 368 1211 q 329 1118 332 1165 l 286 1118 q 321 1219 290 1182 q 400 1256 351 1256 q 453 1244 431 1256 q 503 1206 475 1233 l 517 1192 q 548 1168 532 1176 q 586 1160 564 1160 q 640 1183 621 1160 q 663 1254 660 1207 l 706 1254 q 672 1151 701 1188 q 592 1115 643 1115 q 538 1126 557 1115 q 494 1158 518 1136 l 486 1165 l 476 1174 q 441 1201 457 1192 q 403 1211 425 1211 z "},"Œ":{"ha":1488,"x_min":69,"x_max":1418,"o":"m 492 -22 q 270 42 365 -22 q 122 222 175 106 q 69 492 69 339 q 122 763 69 646 q 269 944 174 881 q 492 1008 365 1008 q 719 941 622 1008 q 867 751 817 874 l 867 986 l 1407 986 l 1407 944 l 911 944 l 911 513 l 1390 513 l 1390 471 l 911 471 l 911 42 l 1418 42 l 1418 0 l 867 0 l 867 235 q 719 45 817 113 q 492 -22 621 -22 m 117 492 q 163 242 117 349 q 293 79 208 136 q 492 22 378 22 q 690 79 606 22 q 821 242 775 136 q 867 492 867 349 q 821 742 867 636 q 690 906 775 849 q 492 964 606 964 q 293 906 378 964 q 163 742 208 849 q 117 492 117 636 z "},"P":{"ha":858,"x_min":133,"x_max":796,"o":"m 463 986 q 639 951 564 986 q 755 852 714 917 q 796 701 796 788 q 755 554 796 617 q 639 458 714 492 q 463 424 564 424 l 178 424 l 178 0 l 133 0 l 133 986 l 463 986 m 463 465 q 674 526 600 465 q 749 701 749 588 q 674 881 749 818 q 463 944 600 944 l 178 944 l 178 465 l 463 465 z "},"Þ":{"ha":819,"x_min":133,"x_max":757,"o":"m 133 0 l 133 986 l 178 986 l 178 0 l 133 0 m 407 782 q 663 709 568 782 q 757 511 757 636 q 663 308 757 383 q 407 233 568 233 l 156 233 l 156 275 l 407 275 q 628 339 546 275 q 710 511 710 403 q 628 678 710 617 q 407 740 546 740 l 156 740 l 156 782 l 407 782 z "},"Q":{"ha":983,"x_min":69,"x_max":914,"o":"m 492 -22 q 270 42 365 -22 q 122 222 175 106 q 69 492 69 339 q 122 763 69 646 q 269 944 174 881 q 492 1008 365 1008 q 714 944 618 1008 q 862 763 810 881 q 914 492 914 646 q 865 231 914 344 q 728 51 817 117 l 842 -96 l 792 -96 l 694 31 q 492 -22 606 -22 m 117 492 q 163 242 117 349 q 293 79 208 136 q 492 22 378 22 q 668 65 589 22 l 494 289 l 544 289 l 701 86 q 824 249 781 144 q 867 492 867 353 q 821 742 867 636 q 690 906 775 849 q 492 964 606 964 q 293 906 378 964 q 163 742 208 849 q 117 492 117 636 z "},"R":{"ha":875,"x_min":133,"x_max":799,"o":"m 465 986 q 647 953 572 986 q 760 856 721 919 q 799 701 799 792 q 769 578 799 632 q 687 492 740 525 q 563 449 633 458 l 528 463 q 703 419 639 464 q 775 290 768 374 l 799 0 l 753 0 l 731 289 q 661 398 725 364 q 465 432 597 432 l 178 432 l 178 0 l 133 0 l 133 986 l 465 986 m 465 474 q 677 533 603 474 q 751 701 751 592 q 680 884 751 824 q 465 944 608 944 l 178 944 l 178 474 l 465 474 z "},"Ŕ":{"ha":875,"x_min":133,"x_max":799,"o":"m 465 986 q 647 953 572 986 q 760 856 721 919 q 799 701 799 792 q 769 578 799 632 q 687 492 740 525 q 563 449 633 458 l 528 463 q 703 419 639 464 q 775 290 768 374 l 799 0 l 753 0 l 731 289 q 661 398 725 364 q 465 432 597 432 l 178 432 l 178 0 l 133 0 l 133 986 l 465 986 m 465 474 q 677 533 603 474 q 751 701 751 592 q 680 884 751 824 q 465 944 608 944 l 178 944 l 178 474 l 465 474 m 467 1103 l 431 1103 l 531 1269 l 578 1269 l 467 1103 z "},"Ř":{"ha":875,"x_min":133,"x_max":799,"o":"m 465 986 q 647 953 572 986 q 760 856 721 919 q 799 701 799 792 q 769 578 799 632 q 687 492 740 525 q 563 449 633 458 l 528 463 q 703 419 639 464 q 775 290 768 374 l 799 0 l 753 0 l 731 289 q 661 398 725 364 q 465 432 597 432 l 178 432 l 178 0 l 133 0 l 133 986 l 465 986 m 465 474 q 677 533 603 474 q 751 701 751 592 q 680 884 751 824 q 465 944 608 944 l 178 944 l 178 474 l 465 474 z "},"Ŗ":{"ha":875,"x_min":133,"x_max":799,"o":"m 465 986 q 647 953 572 986 q 760 856 721 919 q 799 701 799 792 q 769 578 799 632 q 687 492 740 525 q 563 449 633 458 l 528 463 q 703 419 639 464 q 775 290 768 374 l 799 0 l 753 0 l 731 289 q 661 398 725 364 q 465 432 597 432 l 178 432 l 178 0 l 133 0 l 133 986 l 465 986 m 465 474 q 677 533 603 474 q 751 701 751 592 q 680 884 751 824 q 465 944 608 944 l 178 944 l 178 474 l 465 474 z "},"S":{"ha":865,"x_min":83,"x_max":782,"o":"m 129 308 q 172 167 129 231 q 288 65 214 103 q 449 28 361 28 q 593 56 528 28 q 697 134 658 85 q 735 242 735 183 q 658 385 735 326 q 414 489 582 444 q 176 595 250 533 q 101 750 101 657 q 142 888 101 829 q 256 977 182 946 q 431 1008 331 1008 q 594 968 519 1008 q 712 858 668 928 q 756 706 756 789 l 708 701 q 671 838 708 778 q 567 931 633 897 q 417 964 501 964 q 221 906 293 964 q 149 750 149 849 q 174 662 149 699 q 259 594 200 625 q 421 531 318 563 q 453 521 438 526 q 703 406 625 472 q 782 242 782 339 q 738 111 782 171 q 615 17 693 51 q 442 -17 538 -17 q 261 26 343 -17 q 131 143 179 69 q 83 304 83 217 l 129 308 z "},"Ś":{"ha":865,"x_min":83,"x_max":782,"o":"m 129 308 q 172 167 129 231 q 288 65 214 103 q 449 28 361 28 q 593 56 528 28 q 697 134 658 85 q 735 242 735 183 q 658 385 735 326 q 414 489 582 444 q 176 595 250 533 q 101 750 101 657 q 142 888 101 829 q 256 977 182 946 q 431 1008 331 1008 q 594 968 519 1008 q 712 858 668 928 q 756 706 756 789 l 708 701 q 671 838 708 778 q 567 931 633 897 q 417 964 501 964 q 221 906 293 964 q 149 750 149 849 q 174 662 149 699 q 259 594 200 625 q 421 531 318 563 q 453 521 438 526 q 703 406 625 472 q 782 242 782 339 q 738 111 782 171 q 615 17 693 51 q 442 -17 538 -17 q 261 26 343 -17 q 131 143 179 69 q 83 304 83 217 l 129 308 m 447 1103 l 411 1103 l 511 1269 l 558 1269 l 447 1103 z "},"Ꞌ":{"ha":194,"x_min":69,"x_max":125,"o":"m 125 986 l 125 806 l 117 551 l 78 551 l 69 806 l 69 986 l 125 986 z "},"Š":{"ha":865,"x_min":83,"x_max":782,"o":"m 129 308 q 172 167 129 231 q 288 65 214 103 q 449 28 361 28 q 593 56 528 28 q 697 134 658 85 q 735 242 735 183 q 658 385 735 326 q 414 489 582 444 q 176 595 250 533 q 101 750 101 657 q 142 888 101 829 q 256 977 182 946 q 431 1008 331 1008 q 594 968 519 1008 q 712 858 668 928 q 756 706 756 789 l 708 701 q 671 838 708 778 q 567 931 633 897 q 417 964 501 964 q 221 906 293 964 q 149 750 149 849 q 174 662 149 699 q 259 594 200 625 q 421 531 318 563 q 453 521 438 526 q 703 406 625 472 q 782 242 782 339 q 738 111 782 171 q 615 17 693 51 q 442 -17 538 -17 q 261 26 343 -17 q 131 143 179 69 q 83 304 83 217 l 129 308 z "},"Ş":{"ha":865,"x_min":83,"x_max":782,"o":"m 129 308 q 172 167 129 231 q 288 65 214 103 q 449 28 361 28 q 593 56 528 28 q 697 134 658 85 q 735 242 735 183 q 658 385 735 326 q 414 489 582 444 q 176 595 250 533 q 101 750 101 657 q 142 888 101 829 q 256 977 182 946 q 431 1008 331 1008 q 594 968 519 1008 q 712 858 668 928 q 756 706 756 789 l 708 701 q 671 838 708 778 q 567 931 633 897 q 417 964 501 964 q 221 906 293 964 q 149 750 149 849 q 174 662 149 699 q 259 594 200 625 q 421 531 318 563 q 453 521 438 526 q 703 406 625 472 q 782 242 782 339 q 738 111 782 171 q 615 17 693 51 q 442 -17 538 -17 q 261 26 343 -17 q 131 143 179 69 q 83 304 83 217 l 129 308 m 418 11 l 461 11 l 392 -65 q 488 -90 449 -58 q 526 -176 526 -122 q 511 -233 526 -208 q 469 -273 496 -258 q 408 -287 443 -287 q 337 -271 367 -287 q 269 -214 307 -254 l 300 -185 l 307 -192 q 351 -233 328 -217 q 403 -249 375 -249 q 462 -227 439 -249 q 485 -171 485 -206 q 451 -110 485 -131 q 368 -99 418 -90 l 346 -68 l 418 11 z "},"Ŝ":{"ha":865,"x_min":83,"x_max":782,"o":"m 129 308 q 172 167 129 231 q 288 65 214 103 q 449 28 361 28 q 593 56 528 28 q 697 134 658 85 q 735 242 735 183 q 658 385 735 326 q 414 489 582 444 q 176 595 250 533 q 101 750 101 657 q 142 888 101 829 q 256 977 182 946 q 431 1008 331 1008 q 594 968 519 1008 q 712 858 668 928 q 756 706 756 789 l 708 701 q 671 838 708 778 q 567 931 633 897 q 417 964 501 964 q 221 906 293 964 q 149 750 149 849 q 174 662 149 699 q 259 594 200 625 q 421 531 318 563 q 453 521 438 526 q 703 406 625 472 q 782 242 782 339 q 738 111 782 171 q 615 17 693 51 q 442 -17 538 -17 q 261 26 343 -17 q 131 143 179 69 q 83 304 83 217 l 129 308 m 419 1232 l 442 1232 l 344 1096 l 294 1096 l 414 1263 l 447 1263 l 568 1096 l 518 1096 l 419 1232 z "},"Ș":{"ha":865,"x_min":83,"x_max":782,"o":"m 129 308 q 172 167 129 231 q 288 65 214 103 q 449 28 361 28 q 593 56 528 28 q 697 134 658 85 q 735 242 735 183 q 658 385 735 326 q 414 489 582 444 q 176 595 250 533 q 101 750 101 657 q 142 888 101 829 q 256 977 182 946 q 431 1008 331 1008 q 594 968 519 1008 q 712 858 668 928 q 756 706 756 789 l 708 701 q 671 838 708 778 q 567 931 633 897 q 417 964 501 964 q 221 906 293 964 q 149 750 149 849 q 174 662 149 699 q 259 594 200 625 q 421 531 318 563 q 453 521 438 526 q 703 406 625 472 q 782 242 782 339 q 738 111 782 171 q 615 17 693 51 q 442 -17 538 -17 q 261 26 343 -17 q 131 143 179 69 q 83 304 83 217 l 129 308 z "},"ẞ":{"ha":908,"x_min":133,"x_max":832,"o":"m 496 42 q 645 73 579 42 q 748 160 711 104 q 785 286 785 215 q 683 467 785 408 q 372 525 581 525 l 324 525 l 324 571 l 774 971 l 776 944 l 379 944 q 224 897 269 944 q 178 738 178 850 l 178 0 l 133 0 l 133 736 q 192 926 133 867 q 378 986 250 986 l 779 986 l 779 919 l 372 561 l 371 567 q 627 536 525 567 q 781 443 729 506 q 832 286 832 381 q 789 138 832 203 q 669 36 746 72 q 496 0 593 0 l 310 0 l 310 42 l 496 42 z "},"T":{"ha":794,"x_min":39,"x_max":756,"o":"m 756 944 l 419 944 l 419 0 l 375 0 l 375 944 l 39 944 l 39 986 l 756 986 l 756 944 z "},"Ŧ":{"ha":794,"x_min":39,"x_max":756,"o":"m 756 944 l 419 944 l 419 0 l 375 0 l 375 944 l 39 944 l 39 986 l 756 986 l 756 944 m 642 504 l 642 463 l 151 463 l 151 504 l 642 504 z "},"Ť":{"ha":794,"x_min":39,"x_max":756,"o":"m 756 944 l 419 944 l 419 0 l 375 0 l 375 944 l 39 944 l 39 986 l 756 986 l 756 944 z "},"Ţ":{"ha":794,"x_min":39,"x_max":756,"o":"m 756 944 l 419 944 l 419 0 l 375 0 l 375 944 l 39 944 l 39 986 l 756 986 l 756 944 m 385 11 l 428 11 l 358 -65 q 454 -90 415 -58 q 493 -176 493 -122 q 478 -233 493 -208 q 436 -273 463 -258 q 375 -287 410 -287 q 303 -271 333 -287 q 236 -214 274 -254 l 267 -185 l 274 -192 q 318 -233 294 -217 q 369 -249 342 -249 q 428 -227 406 -249 q 451 -171 451 -206 q 418 -110 451 -131 q 335 -99 385 -90 l 313 -68 l 385 11 z "},"Ț":{"ha":794,"x_min":39,"x_max":756,"o":"m 756 944 l 419 944 l 419 0 l 375 0 l 375 944 l 39 944 l 39 986 l 756 986 l 756 944 z "},"U":{"ha":919,"x_min":113,"x_max":807,"o":"m 807 344 q 767 146 807 228 q 649 21 726 64 q 460 -22 571 -22 q 271 21 349 -22 q 153 146 193 64 q 113 344 113 228 l 113 988 l 157 988 l 157 344 q 235 106 157 189 q 460 22 314 22 q 684 106 606 22 q 763 344 763 189 l 763 988 l 807 988 l 807 344 z "},"Ú":{"ha":919,"x_min":113,"x_max":807,"o":"m 807 344 q 767 146 807 228 q 649 21 726 64 q 460 -22 571 -22 q 271 21 349 -22 q 153 146 193 64 q 113 344 113 228 l 113 988 l 157 988 l 157 344 q 235 106 157 189 q 460 22 314 22 q 684 106 606 22 q 763 344 763 189 l 763 988 l 807 988 l 807 344 m 476 1103 l 440 1103 l 540 1269 l 588 1269 l 476 1103 z "},"Ŭ":{"ha":919,"x_min":113,"x_max":807,"o":"m 807 344 q 767 146 807 228 q 649 21 726 64 q 460 -22 571 -22 q 271 21 349 -22 q 153 146 193 64 q 113 344 113 228 l 113 988 l 157 988 l 157 344 q 235 106 157 189 q 460 22 314 22 q 684 106 606 22 q 763 344 763 189 l 763 988 l 807 988 l 807 344 m 333 1253 q 377 1187 342 1213 q 460 1161 413 1161 q 542 1187 507 1161 q 586 1253 578 1213 l 632 1253 q 603 1183 626 1214 q 543 1136 581 1153 q 460 1119 506 1119 q 376 1136 414 1119 q 316 1183 339 1153 q 288 1253 293 1214 l 333 1253 z "},"Û":{"ha":919,"x_min":113,"x_max":807,"o":"m 807 344 q 767 146 807 228 q 649 21 726 64 q 460 -22 571 -22 q 271 21 349 -22 q 153 146 193 64 q 113 344 113 228 l 113 988 l 157 988 l 157 344 q 235 106 157 189 q 460 22 314 22 q 684 106 606 22 q 763 344 763 189 l 763 988 l 807 988 l 807 344 m 449 1232 l 471 1232 l 374 1096 l 324 1096 l 443 1263 l 476 1263 l 597 1096 l 547 1096 l 449 1232 z "},"Ü":{"ha":919,"x_min":113,"x_max":807,"o":"m 807 344 q 767 146 807 228 q 649 21 726 64 q 460 -22 571 -22 q 271 21 349 -22 q 153 146 193 64 q 113 344 113 228 l 113 988 l 157 988 l 157 344 q 235 106 157 189 q 460 22 314 22 q 684 106 606 22 q 763 344 763 189 l 763 988 l 807 988 l 807 344 z "},"Ù":{"ha":919,"x_min":113,"x_max":807,"o":"m 807 344 q 767 146 807 228 q 649 21 726 64 q 460 -22 571 -22 q 271 21 349 -22 q 153 146 193 64 q 113 344 113 228 l 113 988 l 157 988 l 157 344 q 235 106 157 189 q 460 22 314 22 q 684 106 606 22 q 763 344 763 189 l 763 988 l 807 988 l 807 344 m 378 1269 l 478 1103 l 442 1103 l 331 1269 l 378 1269 z "},"Ű":{"ha":919,"x_min":113,"x_max":807,"o":"m 807 344 q 767 146 807 228 q 649 21 726 64 q 460 -22 571 -22 q 271 21 349 -22 q 153 146 193 64 q 113 344 113 228 l 113 988 l 157 988 l 157 344 q 235 106 157 189 q 460 22 314 22 q 684 106 606 22 q 763 344 763 189 l 763 988 l 807 988 l 807 344 z "},"Ū":{"ha":919,"x_min":113,"x_max":807,"o":"m 807 344 q 767 146 807 228 q 649 21 726 64 q 460 -22 571 -22 q 271 21 349 -22 q 153 146 193 64 q 113 344 113 228 l 113 988 l 157 988 l 157 344 q 235 106 157 189 q 460 22 314 22 q 684 106 606 22 q 763 344 763 189 l 763 988 l 807 988 l 807 344 m 624 1182 l 624 1140 l 296 1140 l 296 1182 l 624 1182 z "},"Ų":{"ha":919,"x_min":113,"x_max":807,"o":"m 807 344 q 767 146 807 228 q 649 21 726 64 q 460 -22 571 -22 q 271 21 349 -22 q 153 146 193 64 q 113 344 113 228 l 113 988 l 157 988 l 157 344 q 235 106 157 189 q 460 22 314 22 q 684 106 606 22 q 763 344 763 189 l 763 988 l 807 988 l 807 344 m 563 -47 q 530 -107 542 -78 q 518 -160 518 -136 q 535 -210 518 -193 q 589 -226 553 -226 q 616 -224 603 -226 q 639 -217 629 -221 q 649 -211 644 -214 l 649 -246 q 612 -263 631 -258 q 571 -268 593 -268 q 504 -244 531 -268 q 478 -181 478 -219 q 493 -109 478 -143 q 536 -39 508 -75 l 565 0 l 594 0 l 563 -47 z "},"Ů":{"ha":919,"x_min":113,"x_max":807,"o":"m 807 344 q 767 146 807 228 q 649 21 726 64 q 460 -22 571 -22 q 271 21 349 -22 q 153 146 193 64 q 113 344 113 228 l 113 988 l 157 988 l 157 344 q 235 106 157 189 q 460 22 314 22 q 684 106 606 22 q 763 344 763 189 l 763 988 l 807 988 l 807 344 m 460 1094 q 392 1122 419 1094 q 365 1188 365 1149 q 393 1253 365 1226 q 460 1281 421 1281 q 526 1253 499 1281 q 553 1188 553 1226 q 526 1122 553 1149 q 460 1094 499 1094 m 460 1132 q 497 1149 481 1132 q 514 1188 514 1165 q 497 1225 514 1208 q 460 1242 481 1242 q 421 1225 438 1242 q 404 1188 404 1208 q 421 1149 404 1165 q 460 1132 438 1132 z "},"Ũ":{"ha":919,"x_min":113,"x_max":807,"o":"m 807 344 q 767 146 807 228 q 649 21 726 64 q 460 -22 571 -22 q 271 21 349 -22 q 153 146 193 64 q 113 344 113 228 l 113 988 l 157 988 l 157 344 q 235 106 157 189 q 460 22 314 22 q 684 106 606 22 q 763 344 763 189 l 763 988 l 807 988 l 807 344 m 367 1211 q 314 1188 332 1211 q 293 1118 296 1165 l 250 1118 q 285 1219 254 1182 q 364 1256 315 1256 q 417 1244 394 1256 q 467 1206 439 1233 l 481 1192 q 512 1168 496 1176 q 550 1160 528 1160 q 604 1183 585 1160 q 626 1254 624 1207 l 669 1254 q 636 1151 665 1188 q 556 1115 607 1115 q 501 1126 521 1115 q 458 1158 482 1136 l 450 1165 l 440 1174 q 405 1201 421 1192 q 367 1211 389 1211 z "},"V":{"ha":892,"x_min":33,"x_max":858,"o":"m 82 986 l 446 47 l 810 986 l 858 986 l 471 0 l 421 0 l 33 986 l 82 986 z "},"W":{"ha":1219,"x_min":33,"x_max":1186,"o":"m 79 986 l 342 46 l 579 986 l 640 986 l 878 46 l 1140 986 l 1186 986 l 910 0 l 843 0 l 610 939 l 376 0 l 310 0 l 33 986 l 79 986 z "},"Ẃ":{"ha":1219,"x_min":33,"x_max":1186,"o":"m 79 986 l 342 46 l 579 986 l 640 986 l 878 46 l 1140 986 l 1186 986 l 910 0 l 843 0 l 610 939 l 376 0 l 310 0 l 33 986 l 79 986 m 626 1103 l 590 1103 l 690 1269 l 738 1269 l 626 1103 z "},"Ŵ":{"ha":1219,"x_min":33,"x_max":1186,"o":"m 79 986 l 342 46 l 579 986 l 640 986 l 878 46 l 1140 986 l 1186 986 l 910 0 l 843 0 l 610 939 l 376 0 l 310 0 l 33 986 l 79 986 m 599 1232 l 621 1232 l 524 1096 l 474 1096 l 593 1263 l 626 1263 l 747 1096 l 697 1096 l 599 1232 z "},"Ẅ":{"ha":1219,"x_min":33,"x_max":1186,"o":"m 79 986 l 342 46 l 579 986 l 640 986 l 878 46 l 1140 986 l 1186 986 l 910 0 l 843 0 l 610 939 l 376 0 l 310 0 l 33 986 l 79 986 z "},"Ẁ":{"ha":1219,"x_min":33,"x_max":1186,"o":"m 79 986 l 342 46 l 579 986 l 640 986 l 878 46 l 1140 986 l 1186 986 l 910 0 l 843 0 l 610 939 l 376 0 l 310 0 l 33 986 l 79 986 m 528 1269 l 628 1103 l 592 1103 l 481 1269 l 528 1269 z "},"X":{"ha":858,"x_min":42,"x_max":817,"o":"m 807 986 l 460 496 l 817 0 l 763 0 l 429 461 l 96 0 l 42 0 l 399 496 l 51 986 l 106 986 l 429 531 l 753 986 l 807 986 z "},"Y":{"ha":824,"x_min":33,"x_max":790,"o":"m 86 986 l 413 446 l 739 986 l 790 986 l 435 403 l 435 0 l 390 0 l 390 403 l 33 986 l 86 986 z "},"Ý":{"ha":824,"x_min":33,"x_max":790,"o":"m 86 986 l 413 446 l 739 986 l 790 986 l 435 403 l 435 0 l 390 0 l 390 403 l 33 986 l 86 986 m 429 1103 l 393 1103 l 493 1269 l 540 1269 l 429 1103 z "},"Ŷ":{"ha":824,"x_min":33,"x_max":790,"o":"m 86 986 l 413 446 l 739 986 l 790 986 l 435 403 l 435 0 l 390 0 l 390 403 l 33 986 l 86 986 m 401 1232 l 424 1232 l 326 1096 l 276 1096 l 396 1263 l 429 1263 l 550 1096 l 500 1096 l 401 1232 z "},"Ÿ":{"ha":824,"x_min":33,"x_max":790,"o":"m 86 986 l 413 446 l 739 986 l 790 986 l 435 403 l 435 0 l 390 0 l 390 403 l 33 986 l 86 986 z "},"Ỳ":{"ha":824,"x_min":33,"x_max":790,"o":"m 86 986 l 413 446 l 739 986 l 790 986 l 435 403 l 435 0 l 390 0 l 390 403 l 33 986 l 86 986 m 331 1269 l 431 1103 l 394 1103 l 283 1269 l 331 1269 z "},"Ỹ":{"ha":824,"x_min":33,"x_max":790,"o":"m 86 986 l 413 446 l 739 986 l 790 986 l 435 403 l 435 0 l 390 0 l 390 403 l 33 986 l 86 986 m 319 1211 q 267 1188 285 1211 q 246 1118 249 1165 l 203 1118 q 238 1219 207 1182 q 317 1256 268 1256 q 369 1244 347 1256 q 419 1206 392 1233 l 433 1192 q 465 1168 449 1176 q 503 1160 481 1160 q 557 1183 538 1160 q 579 1254 576 1207 l 622 1254 q 589 1151 618 1188 q 508 1115 560 1115 q 454 1126 474 1115 q 411 1158 435 1136 l 403 1165 l 393 1174 q 358 1201 374 1192 q 319 1211 342 1211 z "},"Z":{"ha":726,"x_min":42,"x_max":685,"o":"m 90 42 l 685 42 l 685 0 l 42 0 l 42 42 l 625 944 l 65 944 l 65 986 l 674 986 l 674 944 l 90 42 z "},"Ź":{"ha":726,"x_min":42,"x_max":685,"o":"m 90 42 l 685 42 l 685 0 l 42 0 l 42 42 l 625 944 l 65 944 l 65 986 l 674 986 l 674 944 l 90 42 m 386 1103 l 350 1103 l 450 1269 l 497 1269 l 386 1103 z "},"Ž":{"ha":726,"x_min":42,"x_max":685,"o":"m 90 42 l 685 42 l 685 0 l 42 0 l 42 42 l 625 944 l 65 944 l 65 986 l 674 986 l 674 944 l 90 42 z "},"Ż":{"ha":726,"x_min":42,"x_max":685,"o":"m 90 42 l 685 42 l 685 0 l 42 0 l 42 42 l 625 944 l 65 944 l 65 986 l 674 986 l 674 944 l 90 42 m 393 1203 l 393 1106 l 346 1106 l 346 1203 l 393 1203 z "},"a":{"ha":765,"x_min":69,"x_max":717,"o":"m 82 518 q 172 692 100 631 q 358 753 244 753 q 563 676 494 753 q 631 444 631 599 l 631 125 q 645 61 631 81 q 692 42 660 42 l 717 42 l 717 0 l 692 0 l 676 0 q 607 41 631 4 q 589 160 583 78 q 478 31 551 76 q 310 -17 404 -14 q 135 40 200 -15 q 69 182 69 94 q 104 286 69 244 q 194 351 139 328 q 322 389 250 375 l 586 438 q 532 646 586 581 q 358 711 478 711 q 203 660 263 711 q 128 514 143 608 l 82 518 m 114 182 q 172 63 114 107 q 325 25 229 19 q 464 65 403 28 q 558 165 525 103 q 590 304 592 228 l 589 399 l 367 357 q 339 351 353 354 q 224 319 272 338 q 144 268 175 301 q 114 182 114 235 z "},"á":{"ha":765,"x_min":69,"x_max":717,"o":"m 82 518 q 172 692 100 631 q 358 753 244 753 q 563 676 494 753 q 631 444 631 599 l 631 125 q 645 61 631 81 q 692 42 660 42 l 717 42 l 717 0 l 692 0 l 676 0 q 607 41 631 4 q 589 160 583 78 q 478 31 551 76 q 310 -17 404 -14 q 135 40 200 -15 q 69 182 69 94 q 104 286 69 244 q 194 351 139 328 q 322 389 250 375 l 586 438 q 532 646 586 581 q 358 711 478 711 q 203 660 263 711 q 128 514 143 608 l 82 518 m 114 182 q 172 63 114 107 q 325 25 229 19 q 464 65 403 28 q 558 165 525 103 q 590 304 592 228 l 589 399 l 367 357 q 339 351 353 354 q 224 319 272 338 q 144 268 175 301 q 114 182 114 235 m 383 853 l 347 853 l 447 1019 l 494 1019 l 383 853 z "},"ă":{"ha":765,"x_min":69,"x_max":717,"o":"m 82 518 q 172 692 100 631 q 358 753 244 753 q 563 676 494 753 q 631 444 631 599 l 631 125 q 645 61 631 81 q 692 42 660 42 l 717 42 l 717 0 l 692 0 l 676 0 q 607 41 631 4 q 589 160 583 78 q 478 31 551 76 q 310 -17 404 -14 q 135 40 200 -15 q 69 182 69 94 q 104 286 69 244 q 194 351 139 328 q 322 389 250 375 l 586 438 q 532 646 586 581 q 358 711 478 711 q 203 660 263 711 q 128 514 143 608 l 82 518 m 114 182 q 172 63 114 107 q 325 25 229 19 q 464 65 403 28 q 558 165 525 103 q 590 304 592 228 l 589 399 l 367 357 q 339 351 353 354 q 224 319 272 338 q 144 268 175 301 q 114 182 114 235 m 240 1003 q 284 937 249 963 q 367 911 319 911 q 449 937 414 911 q 493 1003 485 963 l 539 1003 q 510 933 533 964 q 450 886 488 903 q 367 869 413 869 q 283 886 321 869 q 223 933 246 903 q 194 1003 200 964 l 240 1003 z "},"ǎ":{"ha":765,"x_min":69,"x_max":717,"o":"m 82 518 q 172 692 100 631 q 358 753 244 753 q 563 676 494 753 q 631 444 631 599 l 631 125 q 645 61 631 81 q 692 42 660 42 l 717 42 l 717 0 l 692 0 l 676 0 q 607 41 631 4 q 589 160 583 78 q 478 31 551 76 q 310 -17 404 -14 q 135 40 200 -15 q 69 182 69 94 q 104 286 69 244 q 194 351 139 328 q 322 389 250 375 l 586 438 q 532 646 586 581 q 358 711 478 711 q 203 660 263 711 q 128 514 143 608 l 82 518 m 114 182 q 172 63 114 107 q 325 25 229 19 q 464 65 403 28 q 558 165 525 103 q 590 304 592 228 l 589 399 l 367 357 q 339 351 353 354 q 224 319 272 338 q 144 268 175 301 q 114 182 114 235 z "},"â":{"ha":765,"x_min":69,"x_max":717,"o":"m 82 518 q 172 692 100 631 q 358 753 244 753 q 563 676 494 753 q 631 444 631 599 l 631 125 q 645 61 631 81 q 692 42 660 42 l 717 42 l 717 0 l 692 0 l 676 0 q 607 41 631 4 q 589 160 583 78 q 478 31 551 76 q 310 -17 404 -14 q 135 40 200 -15 q 69 182 69 94 q 104 286 69 244 q 194 351 139 328 q 322 389 250 375 l 586 438 q 532 646 586 581 q 358 711 478 711 q 203 660 263 711 q 128 514 143 608 l 82 518 m 114 182 q 172 63 114 107 q 325 25 229 19 q 464 65 403 28 q 558 165 525 103 q 590 304 592 228 l 589 399 l 367 357 q 339 351 353 354 q 224 319 272 338 q 144 268 175 301 q 114 182 114 235 m 356 982 l 378 982 l 281 846 l 231 846 l 350 1013 l 383 1013 l 504 846 l 454 846 l 356 982 z "},"ä":{"ha":765,"x_min":69,"x_max":717,"o":"m 82 518 q 172 692 100 631 q 358 753 244 753 q 563 676 494 753 q 631 444 631 599 l 631 125 q 645 61 631 81 q 692 42 660 42 l 717 42 l 717 0 l 692 0 l 676 0 q 607 41 631 4 q 589 160 583 78 q 478 31 551 76 q 310 -17 404 -14 q 135 40 200 -15 q 69 182 69 94 q 104 286 69 244 q 194 351 139 328 q 322 389 250 375 l 586 438 q 532 646 586 581 q 358 711 478 711 q 203 660 263 711 q 128 514 143 608 l 82 518 m 114 182 q 172 63 114 107 q 325 25 229 19 q 464 65 403 28 q 558 165 525 103 q 590 304 592 228 l 589 399 l 367 357 q 339 351 353 354 q 224 319 272 338 q 144 268 175 301 q 114 182 114 235 z "},"à":{"ha":765,"x_min":69,"x_max":717,"o":"m 82 518 q 172 692 100 631 q 358 753 244 753 q 563 676 494 753 q 631 444 631 599 l 631 125 q 645 61 631 81 q 692 42 660 42 l 717 42 l 717 0 l 692 0 l 676 0 q 607 41 631 4 q 589 160 583 78 q 478 31 551 76 q 310 -17 404 -14 q 135 40 200 -15 q 69 182 69 94 q 104 286 69 244 q 194 351 139 328 q 322 389 250 375 l 586 438 q 532 646 586 581 q 358 711 478 711 q 203 660 263 711 q 128 514 143 608 l 82 518 m 114 182 q 172 63 114 107 q 325 25 229 19 q 464 65 403 28 q 558 165 525 103 q 590 304 592 228 l 589 399 l 367 357 q 339 351 353 354 q 224 319 272 338 q 144 268 175 301 q 114 182 114 235 m 285 1019 l 385 853 l 349 853 l 238 1019 l 285 1019 z "},"ā":{"ha":765,"x_min":69,"x_max":717,"o":"m 82 518 q 172 692 100 631 q 358 753 244 753 q 563 676 494 753 q 631 444 631 599 l 631 125 q 645 61 631 81 q 692 42 660 42 l 717 42 l 717 0 l 692 0 l 676 0 q 607 41 631 4 q 589 160 583 78 q 478 31 551 76 q 310 -17 404 -14 q 135 40 200 -15 q 69 182 69 94 q 104 286 69 244 q 194 351 139 328 q 322 389 250 375 l 586 438 q 532 646 586 581 q 358 711 478 711 q 203 660 263 711 q 128 514 143 608 l 82 518 m 114 182 q 172 63 114 107 q 325 25 229 19 q 464 65 403 28 q 558 165 525 103 q 590 304 592 228 l 589 399 l 367 357 q 339 351 353 354 q 224 319 272 338 q 144 268 175 301 q 114 182 114 235 m 531 932 l 531 890 l 203 890 l 203 932 l 531 932 z "},"ą":{"ha":765,"x_min":69,"x_max":771,"o":"m 82 518 q 172 692 100 631 q 358 753 244 753 q 563 676 494 753 q 631 444 631 599 l 631 125 q 645 61 631 81 q 692 42 660 42 l 717 42 l 717 0 l 692 0 l 676 0 q 607 41 631 4 q 589 160 583 78 q 478 31 551 76 q 310 -17 404 -14 q 135 40 200 -15 q 69 182 69 94 q 104 286 69 244 q 194 351 139 328 q 322 389 250 375 l 586 438 q 532 646 586 581 q 358 711 478 711 q 203 660 263 711 q 128 514 143 608 l 82 518 m 114 182 q 172 63 114 107 q 325 25 229 19 q 464 65 403 28 q 558 165 525 103 q 590 304 592 228 l 589 399 l 367 357 q 339 351 353 354 q 224 319 272 338 q 144 268 175 301 q 114 182 114 235 m 685 -47 q 652 -107 664 -78 q 640 -160 640 -136 q 658 -210 640 -193 q 711 -226 675 -226 q 738 -224 725 -226 q 761 -217 751 -221 q 771 -211 767 -214 l 771 -246 q 734 -263 753 -258 q 693 -268 715 -268 q 626 -244 653 -268 q 600 -181 600 -219 q 615 -109 600 -143 q 658 -39 631 -75 l 688 0 l 717 0 l 685 -47 z "},"å":{"ha":765,"x_min":69,"x_max":717,"o":"m 82 518 q 172 692 100 631 q 358 753 244 753 q 563 676 494 753 q 631 444 631 599 l 631 125 q 645 61 631 81 q 692 42 660 42 l 717 42 l 717 0 l 692 0 l 676 0 q 607 41 631 4 q 589 160 583 78 q 478 31 551 76 q 310 -17 404 -14 q 135 40 200 -15 q 69 182 69 94 q 104 286 69 244 q 194 351 139 328 q 322 389 250 375 l 586 438 q 532 646 586 581 q 358 711 478 711 q 203 660 263 711 q 128 514 143 608 l 82 518 m 114 182 q 172 63 114 107 q 325 25 229 19 q 464 65 403 28 q 558 165 525 103 q 590 304 592 228 l 589 399 l 367 357 q 339 351 353 354 q 224 319 272 338 q 144 268 175 301 q 114 182 114 235 m 367 844 q 299 872 326 844 q 272 938 272 899 q 300 1003 272 976 q 367 1031 328 1031 q 433 1003 406 1031 q 460 938 460 976 q 433 872 460 899 q 367 844 406 844 m 367 882 q 404 899 388 882 q 421 938 421 915 q 404 975 421 958 q 367 992 388 992 q 328 975 344 992 q 311 938 311 958 q 328 899 311 915 q 367 882 344 882 z "},"ã":{"ha":765,"x_min":69,"x_max":717,"o":"m 82 518 q 172 692 100 631 q 358 753 244 753 q 563 676 494 753 q 631 444 631 599 l 631 125 q 645 61 631 81 q 692 42 660 42 l 717 42 l 717 0 l 692 0 l 676 0 q 607 41 631 4 q 589 160 583 78 q 478 31 551 76 q 310 -17 404 -14 q 135 40 200 -15 q 69 182 69 94 q 104 286 69 244 q 194 351 139 328 q 322 389 250 375 l 586 438 q 532 646 586 581 q 358 711 478 711 q 203 660 263 711 q 128 514 143 608 l 82 518 m 114 182 q 172 63 114 107 q 325 25 229 19 q 464 65 403 28 q 558 165 525 103 q 590 304 592 228 l 589 399 l 367 357 q 339 351 353 354 q 224 319 272 338 q 144 268 175 301 q 114 182 114 235 m 274 961 q 221 938 239 961 q 200 868 203 915 l 157 868 q 192 969 161 932 q 271 1006 222 1006 q 324 994 301 1006 q 374 956 346 983 l 388 942 q 419 918 403 926 q 457 910 435 910 q 511 933 492 910 q 533 1004 531 957 l 576 1004 q 543 901 572 938 q 463 865 514 865 q 408 876 428 865 q 365 908 389 886 l 357 915 l 347 924 q 312 951 328 942 q 274 961 296 961 z "},"æ":{"ha":1297,"x_min":69,"x_max":1228,"o":"m 82 518 q 173 689 100 625 q 358 753 246 753 q 558 676 492 753 q 625 444 625 599 l 617 267 q 570 116 613 179 q 459 19 528 53 q 310 -17 390 -15 q 182 10 236 -15 q 99 81 128 36 q 69 182 69 125 q 104 286 69 244 q 194 351 139 328 q 322 389 250 375 l 586 438 q 528 642 586 572 q 358 711 469 711 q 204 659 264 711 q 132 514 144 607 l 82 518 m 114 182 q 172 63 114 107 q 325 25 229 19 q 463 65 403 28 q 556 165 522 103 q 589 304 589 228 l 589 399 l 367 357 l 321 349 q 214 316 258 335 q 142 265 169 297 q 114 182 114 232 m 603 368 q 638 563 603 475 q 744 701 674 650 q 915 753 815 753 q 1086 701 1015 753 q 1192 563 1157 650 q 1228 368 1228 475 l 1228 358 l 647 358 q 722 115 649 204 q 915 25 794 25 q 1065 72 999 25 q 1161 201 1131 119 l 1207 199 q 1096 42 1175 100 q 915 -17 1017 -17 q 744 35 815 -17 q 638 174 674 86 q 603 368 603 261 m 1182 400 q 1103 628 1175 544 q 915 711 1032 711 q 727 628 799 711 q 649 400 656 544 l 1182 400 z "},"b":{"ha":792,"x_min":118,"x_max":722,"o":"m 160 986 l 160 558 q 260 695 189 642 q 415 749 332 749 q 578 702 508 749 q 685 569 647 656 q 722 368 722 483 q 685 165 722 251 q 578 31 647 78 q 415 -17 508 -17 q 261 37 332 -17 q 153 181 190 90 l 149 0 l 118 0 l 118 986 l 160 986 m 156 368 q 189 190 156 268 q 281 67 222 111 q 415 24 340 24 q 607 117 536 24 q 678 368 678 210 q 607 615 678 524 q 415 707 536 707 q 281 664 340 707 q 189 544 222 621 q 156 368 156 467 z "},"c":{"ha":738,"x_min":69,"x_max":682,"o":"m 632 504 q 539 656 604 601 q 382 711 474 711 q 186 619 258 711 q 114 368 114 526 q 186 117 114 210 q 382 25 258 25 q 544 85 476 25 q 636 247 611 144 l 682 243 q 626 107 665 165 q 525 16 586 49 q 382 -17 464 -17 q 211 35 282 -17 q 105 174 140 86 q 69 368 69 261 q 105 563 69 475 q 211 701 140 650 q 382 753 282 753 q 521 722 461 753 q 620 637 581 692 q 678 507 660 582 l 632 504 z "},"ć":{"ha":738,"x_min":69,"x_max":682,"o":"m 632 504 q 539 656 604 601 q 382 711 474 711 q 186 619 258 711 q 114 368 114 526 q 186 117 114 210 q 382 25 258 25 q 544 85 476 25 q 636 247 611 144 l 682 243 q 626 107 665 165 q 525 16 586 49 q 382 -17 464 -17 q 211 35 282 -17 q 105 174 140 86 q 69 368 69 261 q 105 563 69 475 q 211 701 140 650 q 382 753 282 753 q 521 722 461 753 q 620 637 581 692 q 678 507 660 582 l 632 504 m 399 853 l 363 853 l 463 1019 l 510 1019 l 399 853 z "},"č":{"ha":738,"x_min":69,"x_max":682,"o":"m 632 504 q 539 656 604 601 q 382 711 474 711 q 186 619 258 711 q 114 368 114 526 q 186 117 114 210 q 382 25 258 25 q 544 85 476 25 q 636 247 611 144 l 682 243 q 626 107 665 165 q 525 16 586 49 q 382 -17 464 -17 q 211 35 282 -17 q 105 174 140 86 q 69 368 69 261 q 105 563 69 475 q 211 701 140 650 q 382 753 282 753 q 521 722 461 753 q 620 637 581 692 q 678 507 660 582 l 632 504 z "},"ç":{"ha":738,"x_min":69,"x_max":682,"o":"m 632 504 q 539 656 604 601 q 382 711 474 711 q 186 619 258 711 q 114 368 114 526 q 186 117 114 210 q 382 25 258 25 q 544 85 476 25 q 636 247 611 144 l 682 243 q 626 107 665 165 q 525 16 586 49 q 382 -17 464 -17 q 211 35 282 -17 q 105 174 140 86 q 69 368 69 261 q 105 563 69 475 q 211 701 140 650 q 382 753 282 753 q 521 722 461 753 q 620 637 581 692 q 678 507 660 582 l 632 504 m 369 11 l 413 11 l 343 -65 q 439 -90 400 -58 q 478 -176 478 -122 q 463 -233 478 -208 q 421 -273 447 -258 q 360 -287 394 -287 q 288 -271 318 -287 q 221 -214 258 -254 l 251 -185 l 258 -192 q 303 -233 279 -217 q 354 -249 326 -249 q 413 -227 390 -249 q 436 -171 436 -206 q 403 -110 436 -131 q 319 -99 369 -90 l 297 -68 l 369 11 z "},"ĉ":{"ha":738,"x_min":69,"x_max":682,"o":"m 632 504 q 539 656 604 601 q 382 711 474 711 q 186 619 258 711 q 114 368 114 526 q 186 117 114 210 q 382 25 258 25 q 544 85 476 25 q 636 247 611 144 l 682 243 q 626 107 665 165 q 525 16 586 49 q 382 -17 464 -17 q 211 35 282 -17 q 105 174 140 86 q 69 368 69 261 q 105 563 69 475 q 211 701 140 650 q 382 753 282 753 q 521 722 461 753 q 620 637 581 692 q 678 507 660 582 l 632 504 m 371 982 l 393 982 l 296 846 l 246 846 l 365 1013 l 399 1013 l 519 846 l 469 846 l 371 982 z "},"ċ":{"ha":738,"x_min":69,"x_max":682,"o":"m 632 504 q 539 656 604 601 q 382 711 474 711 q 186 619 258 711 q 114 368 114 526 q 186 117 114 210 q 382 25 258 25 q 544 85 476 25 q 636 247 611 144 l 682 243 q 626 107 665 165 q 525 16 586 49 q 382 -17 464 -17 q 211 35 282 -17 q 105 174 140 86 q 69 368 69 261 q 105 563 69 475 q 211 701 140 650 q 382 753 282 753 q 521 722 461 753 q 620 637 581 692 q 678 507 660 582 l 632 504 m 406 953 l 406 856 l 358 856 l 358 953 l 406 953 z "},"d":{"ha":792,"x_min":69,"x_max":674,"o":"m 632 986 l 632 558 q 531 695 603 642 q 376 749 460 749 q 214 702 283 749 q 107 569 144 656 q 69 368 69 483 q 107 165 69 251 q 214 31 144 78 q 376 -17 283 -17 q 531 37 460 -17 q 639 181 601 90 l 643 0 l 674 0 l 674 986 l 632 986 m 636 368 q 603 190 636 268 q 510 67 569 111 q 376 24 451 24 q 185 117 256 24 q 114 368 114 210 q 185 615 114 524 q 376 707 256 707 q 510 664 451 707 q 603 544 569 621 q 636 368 636 467 z "},"ð":{"ha":847,"x_min":63,"x_max":778,"o":"m 433 658 q 544 624 486 653 q 649 542 603 594 q 710 421 694 489 q 659 710 710 586 q 511 910 608 835 q 276 1003 414 985 l 288 1046 q 655 813 542 1010 q 747 388 768 617 q 613 61 725 160 q 501 -3 558 17 q 385 -17 444 -22 q 210 41 285 -8 q 99 169 136 90 q 71 346 63 249 q 128 519 79 446 q 257 630 178 593 q 433 658 336 667 m 118 336 q 141 188 110 256 q 235 78 172 121 q 383 28 299 36 q 532 56 464 21 q 643 162 600 92 q 693 325 686 232 q 658 465 693 401 q 560 569 622 529 q 424 615 499 610 q 274 590 342 622 q 165 491 207 557 q 118 336 124 425 m 350 792 l 764 940 l 778 901 l 364 751 l 350 792 z "},"ď":{"ha":906,"x_min":69,"x_max":836,"o":"m 632 986 l 632 558 q 531 695 603 642 q 376 749 460 749 q 214 702 283 749 q 107 569 144 656 q 69 368 69 483 q 107 165 69 251 q 214 31 144 78 q 376 -17 283 -17 q 531 37 460 -17 q 639 181 601 90 l 643 0 l 674 0 l 674 986 l 632 986 m 636 368 q 603 190 636 268 q 510 67 569 111 q 376 24 451 24 q 185 117 256 24 q 114 368 114 210 q 185 615 114 524 q 376 707 256 707 q 510 664 451 707 q 603 544 569 621 q 636 368 636 467 z "},"đ":{"ha":861,"x_min":69,"x_max":757,"o":"m 674 0 l 643 0 l 639 181 q 531 37 601 90 q 376 -17 460 -17 q 214 31 283 -17 q 107 165 144 78 q 69 368 69 251 q 107 569 69 483 q 214 702 144 656 q 376 749 283 749 q 531 695 460 749 q 632 558 603 642 l 632 986 l 674 986 l 674 0 m 636 368 q 603 544 636 467 q 510 664 569 621 q 376 707 451 707 q 185 615 256 707 q 114 368 114 524 q 185 117 114 210 q 376 24 256 24 q 510 67 451 24 q 603 190 569 111 q 636 368 636 268 m 757 883 l 757 842 l 418 842 l 418 883 l 757 883 z "},"e":{"ha":764,"x_min":69,"x_max":694,"o":"m 69 368 q 105 563 69 475 q 211 701 140 650 q 382 753 282 753 q 553 701 482 753 q 659 563 624 650 q 694 368 694 475 l 694 358 l 114 358 q 188 115 115 204 q 382 25 261 25 q 531 72 465 25 q 628 201 597 119 l 674 199 q 563 42 642 100 q 382 -17 483 -17 q 211 35 282 -17 q 105 174 140 86 q 69 368 69 261 m 649 400 q 570 628 642 544 q 382 711 499 711 q 194 628 265 711 q 115 400 122 544 l 649 400 z "},"é":{"ha":764,"x_min":69,"x_max":694,"o":"m 69 368 q 105 563 69 475 q 211 701 140 650 q 382 753 282 753 q 553 701 482 753 q 659 563 624 650 q 694 368 694 475 l 694 358 l 114 358 q 188 115 115 204 q 382 25 261 25 q 531 72 465 25 q 628 201 597 119 l 674 199 q 563 42 642 100 q 382 -17 483 -17 q 211 35 282 -17 q 105 174 140 86 q 69 368 69 261 m 649 400 q 570 628 642 544 q 382 711 499 711 q 194 628 265 711 q 115 400 122 544 l 649 400 m 399 853 l 363 853 l 463 1019 l 510 1019 l 399 853 z "},"ě":{"ha":764,"x_min":69,"x_max":694,"o":"m 69 368 q 105 563 69 475 q 211 701 140 650 q 382 753 282 753 q 553 701 482 753 q 659 563 624 650 q 694 368 694 475 l 694 358 l 114 358 q 188 115 115 204 q 382 25 261 25 q 531 72 465 25 q 628 201 597 119 l 674 199 q 563 42 642 100 q 382 -17 483 -17 q 211 35 282 -17 q 105 174 140 86 q 69 368 69 261 m 649 400 q 570 628 642 544 q 382 711 499 711 q 194 628 265 711 q 115 400 122 544 l 649 400 z "},"ê":{"ha":764,"x_min":69,"x_max":694,"o":"m 69 368 q 105 563 69 475 q 211 701 140 650 q 382 753 282 753 q 553 701 482 753 q 659 563 624 650 q 694 368 694 475 l 694 358 l 114 358 q 188 115 115 204 q 382 25 261 25 q 531 72 465 25 q 628 201 597 119 l 674 199 q 563 42 642 100 q 382 -17 483 -17 q 211 35 282 -17 q 105 174 140 86 q 69 368 69 261 m 649 400 q 570 628 642 544 q 382 711 499 711 q 194 628 265 711 q 115 400 122 544 l 649 400 m 371 982 l 393 982 l 296 846 l 246 846 l 365 1013 l 399 1013 l 519 846 l 469 846 l 371 982 z "},"ë":{"ha":764,"x_min":69,"x_max":694,"o":"m 69 368 q 105 563 69 475 q 211 701 140 650 q 382 753 282 753 q 553 701 482 753 q 659 563 624 650 q 694 368 694 475 l 694 358 l 114 358 q 188 115 115 204 q 382 25 261 25 q 531 72 465 25 q 628 201 597 119 l 674 199 q 563 42 642 100 q 382 -17 483 -17 q 211 35 282 -17 q 105 174 140 86 q 69 368 69 261 m 649 400 q 570 628 642 544 q 382 711 499 711 q 194 628 265 711 q 115 400 122 544 l 649 400 z "},"ė":{"ha":764,"x_min":69,"x_max":694,"o":"m 69 368 q 105 563 69 475 q 211 701 140 650 q 382 753 282 753 q 553 701 482 753 q 659 563 624 650 q 694 368 694 475 l 694 358 l 114 358 q 188 115 115 204 q 382 25 261 25 q 531 72 465 25 q 628 201 597 119 l 674 199 q 563 42 642 100 q 382 -17 483 -17 q 211 35 282 -17 q 105 174 140 86 q 69 368 69 261 m 649 400 q 570 628 642 544 q 382 711 499 711 q 194 628 265 711 q 115 400 122 544 l 649 400 m 406 953 l 406 856 l 358 856 l 358 953 l 406 953 z "},"è":{"ha":764,"x_min":69,"x_max":694,"o":"m 69 368 q 105 563 69 475 q 211 701 140 650 q 382 753 282 753 q 553 701 482 753 q 659 563 624 650 q 694 368 694 475 l 694 358 l 114 358 q 188 115 115 204 q 382 25 261 25 q 531 72 465 25 q 628 201 597 119 l 674 199 q 563 42 642 100 q 382 -17 483 -17 q 211 35 282 -17 q 105 174 140 86 q 69 368 69 261 m 649 400 q 570 628 642 544 q 382 711 499 711 q 194 628 265 711 q 115 400 122 544 l 649 400 m 300 1019 l 400 853 l 364 853 l 253 1019 l 300 1019 z "},"ē":{"ha":764,"x_min":69,"x_max":694,"o":"m 69 368 q 105 563 69 475 q 211 701 140 650 q 382 753 282 753 q 553 701 482 753 q 659 563 624 650 q 694 368 694 475 l 694 358 l 114 358 q 188 115 115 204 q 382 25 261 25 q 531 72 465 25 q 628 201 597 119 l 674 199 q 563 42 642 100 q 382 -17 483 -17 q 211 35 282 -17 q 105 174 140 86 q 69 368 69 261 m 649 400 q 570 628 642 544 q 382 711 499 711 q 194 628 265 711 q 115 400 122 544 l 649 400 m 546 932 l 546 890 l 218 890 l 218 932 l 546 932 z "},"ę":{"ha":764,"x_min":69,"x_max":694,"o":"m 69 368 q 105 563 69 475 q 211 701 140 650 q 382 753 282 753 q 553 701 482 753 q 659 563 624 650 q 694 368 694 475 l 694 358 l 114 358 q 188 115 115 204 q 382 25 261 25 q 531 72 465 25 q 628 201 597 119 l 674 199 q 563 42 642 100 q 382 -17 483 -17 q 211 35 282 -17 q 105 174 140 86 q 69 368 69 261 m 649 400 q 570 628 642 544 q 382 711 499 711 q 194 628 265 711 q 115 400 122 544 l 649 400 m 438 -47 q 405 -107 417 -78 q 393 -160 393 -136 q 410 -210 393 -193 q 464 -226 428 -226 q 491 -224 478 -226 q 514 -217 504 -221 q 524 -211 519 -214 l 524 -246 q 487 -263 506 -258 q 446 -268 468 -268 q 379 -244 406 -268 q 353 -181 353 -219 q 368 -109 353 -143 q 411 -39 383 -75 l 440 0 l 469 0 l 438 -47 z "},"ẽ":{"ha":764,"x_min":69,"x_max":694,"o":"m 69 368 q 105 563 69 475 q 211 701 140 650 q 382 753 282 753 q 553 701 482 753 q 659 563 624 650 q 694 368 694 475 l 694 358 l 114 358 q 188 115 115 204 q 382 25 261 25 q 531 72 465 25 q 628 201 597 119 l 674 199 q 563 42 642 100 q 382 -17 483 -17 q 211 35 282 -17 q 105 174 140 86 q 69 368 69 261 m 649 400 q 570 628 642 544 q 382 711 499 711 q 194 628 265 711 q 115 400 122 544 l 649 400 m 289 961 q 236 938 254 961 q 215 868 218 915 l 172 868 q 207 969 176 932 q 286 1006 238 1006 q 339 994 317 1006 q 389 956 361 983 l 403 942 q 434 918 418 926 q 472 910 450 910 q 526 933 507 910 q 549 1004 546 957 l 592 1004 q 558 901 588 938 q 478 865 529 865 q 424 876 443 865 q 381 908 404 886 l 372 915 l 363 924 q 327 951 343 942 q 289 961 311 961 z "},"ə":{"ha":764,"x_min":69,"x_max":694,"o":"m 694 368 q 659 174 694 261 q 553 35 624 86 q 382 -17 482 -17 q 211 35 282 -17 q 105 174 140 86 q 69 368 69 261 l 69 378 l 650 378 q 576 622 649 532 q 382 711 503 711 q 233 664 299 711 q 136 535 167 617 l 90 538 q 201 694 122 636 q 382 753 281 753 q 553 701 482 753 q 659 563 624 650 q 694 368 694 475 m 115 336 q 194 108 122 192 q 382 25 265 25 q 570 108 499 25 q 649 336 642 192 l 115 336 z "},"ʒ":{"ha":783,"x_min":83,"x_max":700,"o":"m 83 -47 q 227 -181 147 -133 q 392 -228 307 -228 q 526 -194 467 -228 q 619 -102 586 -160 q 653 26 653 -44 q 617 162 653 103 q 519 253 582 221 q 378 285 457 286 l 303 283 l 303 335 l 640 694 l 89 694 l 89 736 l 685 736 l 685 681 l 351 326 q 532 296 453 332 q 656 190 611 260 q 700 26 700 119 q 660 -124 700 -56 q 550 -233 621 -193 q 392 -272 479 -272 q 224 -232 304 -272 q 83 -118 144 -192 l 83 -47 z "},"ǯ":{"ha":783,"x_min":83,"x_max":700,"o":"m 83 -47 q 227 -181 147 -133 q 392 -228 307 -228 q 526 -194 467 -228 q 619 -102 586 -160 q 653 26 653 -44 q 617 162 653 103 q 519 253 582 221 q 378 285 457 286 l 303 283 l 303 335 l 640 694 l 89 694 l 89 736 l 685 736 l 685 681 l 351 326 q 532 296 453 332 q 656 190 611 260 q 700 26 700 119 q 660 -124 700 -56 q 550 -233 621 -193 q 392 -272 479 -272 q 224 -232 304 -272 q 83 -118 144 -192 l 83 -47 z "},"f":{"ha":506,"x_min":90,"x_max":443,"o":"m 203 831 q 244 944 203 903 q 358 986 286 986 l 443 986 l 443 949 l 353 949 q 274 919 303 949 q 244 838 244 889 l 244 0 l 203 0 l 203 831 m 90 736 l 443 736 l 443 694 l 90 694 l 90 736 z "},"g":{"ha":792,"x_min":69,"x_max":674,"o":"m 376 35 q 214 78 283 35 q 107 204 144 122 q 69 396 69 286 q 107 583 69 503 q 214 706 144 663 q 376 749 283 749 q 531 695 460 749 q 632 558 603 642 l 632 736 l 674 736 l 674 79 q 638 -83 674 -14 q 537 -189 603 -151 q 383 -226 471 -226 q 243 -197 307 -226 q 142 -118 179 -168 q 106 -8 106 -68 l 150 -6 q 221 -135 156 -85 q 383 -185 286 -185 q 565 -113 497 -185 q 632 79 632 -42 l 632 221 q 526 85 596 136 q 376 35 457 35 m 114 396 q 185 163 114 249 q 376 76 256 76 q 510 117 451 76 q 603 231 569 158 q 636 396 636 303 q 603 557 636 486 q 510 667 569 628 q 376 707 451 707 q 185 623 256 707 q 114 396 114 539 z "},"ğ":{"ha":792,"x_min":69,"x_max":674,"o":"m 376 35 q 214 78 283 35 q 107 204 144 122 q 69 396 69 286 q 107 583 69 503 q 214 706 144 663 q 376 749 283 749 q 531 695 460 749 q 632 558 603 642 l 632 736 l 674 736 l 674 79 q 638 -83 674 -14 q 537 -189 603 -151 q 383 -226 471 -226 q 243 -197 307 -226 q 142 -118 179 -168 q 106 -8 106 -68 l 150 -6 q 221 -135 156 -85 q 383 -185 286 -185 q 565 -113 497 -185 q 632 79 632 -42 l 632 221 q 526 85 596 136 q 376 35 457 35 m 114 396 q 185 163 114 249 q 376 76 256 76 q 510 117 451 76 q 603 231 569 158 q 636 396 636 303 q 603 557 636 486 q 510 667 569 628 q 376 707 451 707 q 185 623 256 707 q 114 396 114 539 m 250 1003 q 294 937 258 963 q 376 911 329 911 q 459 937 424 911 q 503 1003 494 963 l 549 1003 q 520 933 543 964 q 460 886 497 903 q 376 869 422 869 q 293 886 331 869 q 233 933 256 903 q 204 1003 210 964 l 250 1003 z "},"ǧ":{"ha":792,"x_min":69,"x_max":674,"o":"m 376 35 q 214 78 283 35 q 107 204 144 122 q 69 396 69 286 q 107 583 69 503 q 214 706 144 663 q 376 749 283 749 q 531 695 460 749 q 632 558 603 642 l 632 736 l 674 736 l 674 79 q 638 -83 674 -14 q 537 -189 603 -151 q 383 -226 471 -226 q 243 -197 307 -226 q 142 -118 179 -168 q 106 -8 106 -68 l 150 -6 q 221 -135 156 -85 q 383 -185 286 -185 q 565 -113 497 -185 q 632 79 632 -42 l 632 221 q 526 85 596 136 q 376 35 457 35 m 114 396 q 185 163 114 249 q 376 76 256 76 q 510 117 451 76 q 603 231 569 158 q 636 396 636 303 q 603 557 636 486 q 510 667 569 628 q 376 707 451 707 q 185 623 256 707 q 114 396 114 539 z "},"ĝ":{"ha":792,"x_min":69,"x_max":674,"o":"m 376 35 q 214 78 283 35 q 107 204 144 122 q 69 396 69 286 q 107 583 69 503 q 214 706 144 663 q 376 749 283 749 q 531 695 460 749 q 632 558 603 642 l 632 736 l 674 736 l 674 79 q 638 -83 674 -14 q 537 -189 603 -151 q 383 -226 471 -226 q 243 -197 307 -226 q 142 -118 179 -168 q 106 -8 106 -68 l 150 -6 q 221 -135 156 -85 q 383 -185 286 -185 q 565 -113 497 -185 q 632 79 632 -42 l 632 221 q 526 85 596 136 q 376 35 457 35 m 114 396 q 185 163 114 249 q 376 76 256 76 q 510 117 451 76 q 603 231 569 158 q 636 396 636 303 q 603 557 636 486 q 510 667 569 628 q 376 707 451 707 q 185 623 256 707 q 114 396 114 539 m 365 982 l 388 982 l 290 846 l 240 846 l 360 1013 l 393 1013 l 514 846 l 464 846 l 365 982 z "},"ģ":{"ha":792,"x_min":69,"x_max":674,"o":"m 376 35 q 214 78 283 35 q 107 204 144 122 q 69 396 69 286 q 107 583 69 503 q 214 706 144 663 q 376 749 283 749 q 531 695 460 749 q 632 558 603 642 l 632 736 l 674 736 l 674 79 q 638 -83 674 -14 q 537 -189 603 -151 q 383 -226 471 -226 q 243 -197 307 -226 q 142 -118 179 -168 q 106 -8 106 -68 l 150 -6 q 221 -135 156 -85 q 383 -185 286 -185 q 565 -113 497 -185 q 632 79 632 -42 l 632 221 q 526 85 596 136 q 376 35 457 35 m 114 396 q 185 163 114 249 q 376 76 256 76 q 510 117 451 76 q 603 231 569 158 q 636 396 636 303 q 603 557 636 486 q 510 667 569 628 q 376 707 451 707 q 185 623 256 707 q 114 396 114 539 z "},"ġ":{"ha":792,"x_min":69,"x_max":674,"o":"m 376 35 q 214 78 283 35 q 107 204 144 122 q 69 396 69 286 q 107 583 69 503 q 214 706 144 663 q 376 749 283 749 q 531 695 460 749 q 632 558 603 642 l 632 736 l 674 736 l 674 79 q 638 -83 674 -14 q 537 -189 603 -151 q 383 -226 471 -226 q 243 -197 307 -226 q 142 -118 179 -168 q 106 -8 106 -68 l 150 -6 q 221 -135 156 -85 q 383 -185 286 -185 q 565 -113 497 -185 q 632 79 632 -42 l 632 221 q 526 85 596 136 q 376 35 457 35 m 114 396 q 185 163 114 249 q 376 76 256 76 q 510 117 451 76 q 603 231 569 158 q 636 396 636 303 q 603 557 636 486 q 510 667 569 628 q 376 707 451 707 q 185 623 256 707 q 114 396 114 539 m 400 953 l 400 856 l 353 856 l 353 953 l 400 953 z "},"ḡ":{"ha":792,"x_min":69,"x_max":674,"o":"m 376 35 q 214 78 283 35 q 107 204 144 122 q 69 396 69 286 q 107 583 69 503 q 214 706 144 663 q 376 749 283 749 q 531 695 460 749 q 632 558 603 642 l 632 736 l 674 736 l 674 79 q 638 -83 674 -14 q 537 -189 603 -151 q 383 -226 471 -226 q 243 -197 307 -226 q 142 -118 179 -168 q 106 -8 106 -68 l 150 -6 q 221 -135 156 -85 q 383 -185 286 -185 q 565 -113 497 -185 q 632 79 632 -42 l 632 221 q 526 85 596 136 q 376 35 457 35 m 114 396 q 185 163 114 249 q 376 76 256 76 q 510 117 451 76 q 603 231 569 158 q 636 396 636 303 q 603 557 636 486 q 510 667 569 628 q 376 707 451 707 q 185 623 256 707 q 114 396 114 539 m 540 932 l 540 890 l 213 890 l 213 932 l 540 932 z "},"ǥ":{"ha":846,"x_min":69,"x_max":756,"o":"m 376 35 q 214 78 283 35 q 107 204 144 122 q 69 396 69 286 q 107 583 69 503 q 214 706 144 663 q 376 749 283 749 q 531 695 460 749 q 632 558 603 642 l 632 736 l 674 736 l 674 79 q 638 -83 674 -14 q 537 -189 603 -151 q 383 -226 471 -226 q 243 -197 307 -226 q 142 -118 179 -168 q 106 -8 106 -68 l 150 -6 q 221 -135 156 -85 q 383 -185 286 -185 q 565 -113 497 -185 q 632 79 632 -42 l 632 221 q 526 85 596 136 q 376 35 457 35 m 114 396 q 185 163 114 249 q 376 76 256 76 q 510 117 451 76 q 603 231 569 158 q 636 396 636 303 q 603 557 636 486 q 510 667 569 628 q 376 707 451 707 q 185 623 256 707 q 114 396 114 539 m 756 394 l 756 353 l 325 353 l 325 394 l 756 394 z "},"h":{"ha":772,"x_min":118,"x_max":654,"o":"m 160 986 l 160 535 l 154 535 q 233 698 161 643 q 413 753 306 753 q 591 674 528 753 q 654 474 654 596 l 654 0 l 613 0 l 613 440 q 561 639 613 567 q 401 711 510 711 q 224 636 288 711 q 160 440 160 561 l 160 0 l 118 0 l 118 986 l 160 986 z "},"ħ":{"ha":800,"x_min":90,"x_max":710,"o":"m 215 986 l 215 535 l 210 535 q 289 698 217 643 q 468 753 361 753 q 647 674 583 753 q 710 474 710 596 l 710 0 l 668 0 l 668 440 q 617 639 668 567 q 457 711 565 711 q 279 636 343 711 q 215 440 215 561 l 215 0 l 174 0 l 174 986 l 215 986 m 429 883 l 429 842 l 90 842 l 90 883 l 429 883 z "},"ĥ":{"ha":772,"x_min":3,"x_max":654,"o":"m 160 986 l 160 535 l 154 535 q 233 698 161 643 q 413 753 306 753 q 591 674 528 753 q 654 474 654 596 l 654 0 l 613 0 l 613 440 q 561 639 613 567 q 401 711 510 711 q 224 636 288 711 q 160 440 160 561 l 160 0 l 118 0 l 118 986 l 160 986 m 128 1232 l 150 1232 l 53 1096 l 3 1096 l 122 1263 l 156 1263 l 276 1096 l 226 1096 l 128 1232 z "},"i":{"ha":278,"x_min":115,"x_max":163,"o":"m 160 736 l 160 0 l 118 0 l 118 736 l 160 736 m 163 953 l 163 856 l 115 856 l 115 953 l 163 953 z "},"ı":{"ha":278,"x_min":118,"x_max":160,"o":"m 160 736 l 160 0 l 118 0 l 118 736 l 160 736 z "},"í":{"ha":278,"x_min":118,"x_max":267,"o":"m 160 736 l 160 0 l 118 0 l 118 736 l 160 736 m 156 853 l 119 853 l 219 1019 l 267 1019 l 156 853 z "},"î":{"ha":278,"x_min":3,"x_max":276,"o":"m 160 736 l 160 0 l 118 0 l 118 736 l 160 736 m 128 982 l 150 982 l 53 846 l 3 846 l 122 1013 l 156 1013 l 276 846 l 226 846 l 128 982 z "},"ï":{"ha":278,"x_min":26,"x_max":250,"o":"m 160 736 l 160 0 l 118 0 l 118 736 l 160 736 z "},"ì":{"ha":278,"x_min":10,"x_max":160,"o":"m 160 736 l 160 0 l 118 0 l 118 736 l 160 736 m 57 1019 l 157 853 l 121 853 l 10 1019 l 57 1019 z "},"ĳ":{"ha":583,"x_min":115,"x_max":468,"o":"m 160 736 l 160 0 l 118 0 l 118 736 l 160 736 m 163 953 l 163 856 l 115 856 l 115 953 l 163 953 z "},"ī":{"ha":278,"x_min":-25,"x_max":303,"o":"m 160 736 l 160 0 l 118 0 l 118 736 l 160 736 m 303 932 l 303 890 l -25 890 l -25 932 l 303 932 z "},"į":{"ha":278,"x_min":43,"x_max":214,"o":"m 160 736 l 160 0 l 118 0 l 118 736 l 160 736 m 163 953 l 163 856 l 115 856 l 115 953 l 163 953 m 128 -47 q 95 -107 107 -78 q 83 -160 83 -136 q 101 -210 83 -193 q 154 -226 118 -226 q 181 -224 168 -226 q 204 -217 194 -221 q 214 -211 210 -214 l 214 -246 q 177 -263 196 -258 q 136 -268 158 -268 q 69 -244 96 -268 q 43 -181 43 -219 q 58 -109 43 -143 q 101 -39 74 -75 l 131 0 l 160 0 l 128 -47 z "},"ĩ":{"ha":278,"x_min":-71,"x_max":349,"o":"m 160 736 l 160 0 l 118 0 l 118 736 l 160 736 m 46 961 q -7 938 11 961 q -28 868 -25 915 l -71 868 q -36 969 -67 932 q 43 1006 -6 1006 q 96 994 74 1006 q 146 956 118 983 l 160 942 q 191 918 175 926 q 229 910 207 910 q 283 933 264 910 q 306 1004 303 957 l 349 1004 q 315 901 344 938 q 235 865 286 865 q 181 876 200 865 q 138 908 161 886 l 129 915 l 119 924 q 84 951 100 942 q 46 961 68 961 z "},"j":{"ha":319,"x_min":-7,"x_max":204,"o":"m 201 -4 q 162 -162 201 -115 q 29 -208 122 -208 l -7 -208 l -7 -171 l 29 -171 q 111 -156 83 -171 q 149 -105 139 -140 q 160 -4 160 -69 l 160 736 l 201 736 l 201 -4 m 204 953 l 204 856 l 157 856 l 157 953 l 204 953 z "},"ȷ":{"ha":319,"x_min":-7,"x_max":201,"o":"m 201 -4 q 162 -162 201 -115 q 29 -208 122 -208 l -7 -208 l -7 -171 l 29 -171 q 111 -156 83 -171 q 149 -105 139 -140 q 160 -4 160 -69 l 160 736 l 201 736 l 201 -4 z "},"ĵ":{"ha":319,"x_min":-7,"x_max":318,"o":"m 201 -4 q 162 -162 201 -115 q 29 -208 122 -208 l -7 -208 l -7 -171 l 29 -171 q 111 -156 83 -171 q 149 -105 139 -140 q 160 -4 160 -69 l 160 736 l 201 736 l 201 -4 m 169 982 l 192 982 l 94 846 l 44 846 l 164 1013 l 197 1013 l 318 846 l 268 846 l 169 982 z "},"k":{"ha":792,"x_min":118,"x_max":724,"o":"m 160 986 l 160 271 l 638 736 l 696 736 l 368 418 l 724 0 l 672 0 l 340 393 l 160 217 l 160 0 l 118 0 l 118 986 l 160 986 z "},"ǩ":{"ha":792,"x_min":3,"x_max":724,"o":"m 160 986 l 160 271 l 638 736 l 696 736 l 368 418 l 724 0 l 672 0 l 340 393 l 160 217 l 160 0 l 118 0 l 118 986 l 160 986 z "},"ķ":{"ha":792,"x_min":118,"x_max":724,"o":"m 160 986 l 160 271 l 638 736 l 696 736 l 368 418 l 724 0 l 672 0 l 340 393 l 160 217 l 160 0 l 118 0 l 118 986 l 160 986 z "},"l":{"ha":338,"x_min":118,"x_max":282,"o":"m 160 986 l 160 111 q 180 56 160 75 q 238 38 200 38 l 282 38 l 282 0 l 249 0 q 151 28 183 0 q 118 111 118 56 l 118 986 l 160 986 z "},"ĺ":{"ha":338,"x_min":118,"x_max":282,"o":"m 160 986 l 160 111 q 180 56 160 75 q 238 38 200 38 l 282 38 l 282 0 l 249 0 q 151 28 183 0 q 118 111 118 56 l 118 986 l 160 986 m 156 1103 l 119 1103 l 219 1269 l 267 1269 l 156 1103 z "},"ľ":{"ha":381,"x_min":118,"x_max":325,"o":"m 160 986 l 160 111 q 180 56 160 75 q 238 38 200 38 l 282 38 l 282 0 l 249 0 q 151 28 183 0 q 118 111 118 56 l 118 986 l 160 986 z "},"ļ":{"ha":338,"x_min":94,"x_max":282,"o":"m 160 986 l 160 111 q 180 56 160 75 q 238 38 200 38 l 282 38 l 282 0 l 249 0 q 151 28 183 0 q 118 111 118 56 l 118 986 l 160 986 z "},"ł":{"ha":483,"x_min":118,"x_max":428,"o":"m 289 986 l 289 111 q 309 56 289 75 q 367 38 329 38 l 411 38 l 411 0 l 378 0 q 280 28 313 0 q 247 111 247 56 l 247 986 l 289 986 m 410 631 l 428 593 l 136 460 l 118 497 l 410 631 z "},"m":{"ha":1175,"x_min":118,"x_max":1057,"o":"m 157 736 l 160 576 q 245 703 179 653 q 397 753 311 753 q 523 699 469 753 q 594 554 576 646 q 683 699 617 646 q 838 753 750 753 q 951 717 901 753 q 1029 616 1001 681 q 1057 469 1057 551 l 1057 0 l 1015 0 l 1015 436 q 966 637 1015 563 q 832 711 917 711 q 717 674 769 711 q 635 571 665 636 q 604 428 604 506 l 604 0 l 563 0 l 563 440 q 517 639 563 567 q 389 711 471 711 q 273 675 325 711 q 190 577 221 639 q 160 440 160 515 l 160 0 l 118 0 l 118 736 l 157 736 z "},"n":{"ha":772,"x_min":118,"x_max":654,"o":"m 157 736 l 161 535 l 154 535 q 233 698 161 643 q 413 753 306 753 q 591 674 528 753 q 654 474 654 596 l 654 0 l 613 0 l 613 440 q 561 639 613 567 q 401 711 510 711 q 224 636 288 711 q 160 440 160 561 l 160 0 l 118 0 l 118 736 l 157 736 z "},"ń":{"ha":772,"x_min":118,"x_max":654,"o":"m 157 736 l 161 535 l 154 535 q 233 698 161 643 q 413 753 306 753 q 591 674 528 753 q 654 474 654 596 l 654 0 l 613 0 l 613 440 q 561 639 613 567 q 401 711 510 711 q 224 636 288 711 q 160 440 160 561 l 160 0 l 118 0 l 118 736 l 157 736 m 403 853 l 367 853 l 467 1019 l 514 1019 l 403 853 z "},"ň":{"ha":772,"x_min":118,"x_max":654,"o":"m 157 736 l 161 535 l 154 535 q 233 698 161 643 q 413 753 306 753 q 591 674 528 753 q 654 474 654 596 l 654 0 l 613 0 l 613 440 q 561 639 613 567 q 401 711 510 711 q 224 636 288 711 q 160 440 160 561 l 160 0 l 118 0 l 118 736 l 157 736 z "},"ņ":{"ha":772,"x_min":118,"x_max":654,"o":"m 157 736 l 161 535 l 154 535 q 233 698 161 643 q 413 753 306 753 q 591 674 528 753 q 654 474 654 596 l 654 0 l 613 0 l 613 440 q 561 639 613 567 q 401 711 510 711 q 224 636 288 711 q 160 440 160 561 l 160 0 l 118 0 l 118 736 l 157 736 z "},"ñ":{"ha":772,"x_min":118,"x_max":654,"o":"m 157 736 l 161 535 l 154 535 q 233 698 161 643 q 413 753 306 753 q 591 674 528 753 q 654 474 654 596 l 654 0 l 613 0 l 613 440 q 561 639 613 567 q 401 711 510 711 q 224 636 288 711 q 160 440 160 561 l 160 0 l 118 0 l 118 736 l 157 736 m 293 961 q 240 938 258 961 q 219 868 222 915 l 176 868 q 211 969 181 932 q 290 1006 242 1006 q 343 994 321 1006 q 393 956 365 983 l 407 942 q 438 918 422 926 q 476 910 454 910 q 531 933 511 910 q 553 1004 550 957 l 596 1004 q 563 901 592 938 q 482 865 533 865 q 428 876 447 865 q 385 908 408 886 l 376 915 l 367 924 q 331 951 347 942 q 293 961 315 961 z "},"ŋ":{"ha":772,"x_min":118,"x_max":654,"o":"m 157 736 l 161 535 l 154 535 q 233 698 161 643 q 413 753 306 753 q 591 674 528 753 q 654 474 654 596 l 654 0 l 613 0 l 613 440 q 561 639 613 567 q 401 711 510 711 q 224 636 288 711 q 160 440 160 561 l 160 0 l 118 0 l 118 736 l 157 736 m 654 46 l 654 -42 q 606 -162 654 -115 q 482 -208 558 -208 l 376 -208 l 376 -167 l 485 -167 q 577 -132 542 -167 q 613 -42 613 -97 l 613 46 l 654 46 z "},"o":{"ha":764,"x_min":69,"x_max":694,"o":"m 382 -17 q 217 31 288 -17 q 108 165 146 78 q 69 368 69 251 q 108 572 69 485 q 217 706 146 658 q 382 753 288 753 q 547 706 476 753 q 656 572 618 658 q 694 368 694 485 q 656 165 694 251 q 547 31 618 78 q 382 -17 476 -17 m 382 25 q 578 117 506 25 q 650 368 650 210 q 578 619 650 526 q 382 711 506 711 q 186 619 258 711 q 114 368 114 526 q 186 117 114 210 q 382 25 258 25 z "},"ó":{"ha":764,"x_min":69,"x_max":694,"o":"m 382 -17 q 217 31 288 -17 q 108 165 146 78 q 69 368 69 251 q 108 572 69 485 q 217 706 146 658 q 382 753 288 753 q 547 706 476 753 q 656 572 618 658 q 694 368 694 485 q 656 165 694 251 q 547 31 618 78 q 382 -17 476 -17 m 382 25 q 578 117 506 25 q 650 368 650 210 q 578 619 650 526 q 382 711 506 711 q 186 619 258 711 q 114 368 114 526 q 186 117 114 210 q 382 25 258 25 m 399 853 l 363 853 l 463 1019 l 510 1019 l 399 853 z "},"ô":{"ha":764,"x_min":69,"x_max":694,"o":"m 382 -17 q 217 31 288 -17 q 108 165 146 78 q 69 368 69 251 q 108 572 69 485 q 217 706 146 658 q 382 753 288 753 q 547 706 476 753 q 656 572 618 658 q 694 368 694 485 q 656 165 694 251 q 547 31 618 78 q 382 -17 476 -17 m 382 25 q 578 117 506 25 q 650 368 650 210 q 578 619 650 526 q 382 711 506 711 q 186 619 258 711 q 114 368 114 526 q 186 117 114 210 q 382 25 258 25 m 371 982 l 393 982 l 296 846 l 246 846 l 365 1013 l 399 1013 l 519 846 l 469 846 l 371 982 z "},"ö":{"ha":764,"x_min":69,"x_max":694,"o":"m 382 -17 q 217 31 288 -17 q 108 165 146 78 q 69 368 69 251 q 108 572 69 485 q 217 706 146 658 q 382 753 288 753 q 547 706 476 753 q 656 572 618 658 q 694 368 694 485 q 656 165 694 251 q 547 31 618 78 q 382 -17 476 -17 m 382 25 q 578 117 506 25 q 650 368 650 210 q 578 619 650 526 q 382 711 506 711 q 186 619 258 711 q 114 368 114 526 q 186 117 114 210 q 382 25 258 25 z "},"ò":{"ha":764,"x_min":69,"x_max":694,"o":"m 382 -17 q 217 31 288 -17 q 108 165 146 78 q 69 368 69 251 q 108 572 69 485 q 217 706 146 658 q 382 753 288 753 q 547 706 476 753 q 656 572 618 658 q 694 368 694 485 q 656 165 694 251 q 547 31 618 78 q 382 -17 476 -17 m 382 25 q 578 117 506 25 q 650 368 650 210 q 578 619 650 526 q 382 711 506 711 q 186 619 258 711 q 114 368 114 526 q 186 117 114 210 q 382 25 258 25 m 300 1019 l 400 853 l 364 853 l 253 1019 l 300 1019 z "},"ő":{"ha":764,"x_min":69,"x_max":694,"o":"m 382 -17 q 217 31 288 -17 q 108 165 146 78 q 69 368 69 251 q 108 572 69 485 q 217 706 146 658 q 382 753 288 753 q 547 706 476 753 q 656 572 618 658 q 694 368 694 485 q 656 165 694 251 q 547 31 618 78 q 382 -17 476 -17 m 382 25 q 578 117 506 25 q 650 368 650 210 q 578 619 650 526 q 382 711 506 711 q 186 619 258 711 q 114 368 114 526 q 186 117 114 210 q 382 25 258 25 z "},"ō":{"ha":764,"x_min":69,"x_max":694,"o":"m 382 -17 q 217 31 288 -17 q 108 165 146 78 q 69 368 69 251 q 108 572 69 485 q 217 706 146 658 q 382 753 288 753 q 547 706 476 753 q 656 572 618 658 q 694 368 694 485 q 656 165 694 251 q 547 31 618 78 q 382 -17 476 -17 m 382 25 q 578 117 506 25 q 650 368 650 210 q 578 619 650 526 q 382 711 506 711 q 186 619 258 711 q 114 368 114 526 q 186 117 114 210 q 382 25 258 25 m 546 932 l 546 890 l 218 890 l 218 932 l 546 932 z "},"ø":{"ha":717,"x_min":17,"x_max":717,"o":"m 381 -17 q 215 31 286 -17 q 106 165 144 78 q 68 368 68 251 q 106 572 68 485 q 215 706 144 658 q 381 753 286 753 q 546 706 475 753 q 655 572 617 658 q 693 368 693 485 q 655 165 693 251 q 546 31 617 78 q 381 -17 475 -17 m 381 25 q 576 117 504 25 q 649 368 649 210 q 576 619 649 526 q 381 711 504 711 q 185 619 257 711 q 113 368 113 526 q 185 117 113 210 q 381 25 257 25 m 717 753 l 71 -17 l 17 -17 l 663 753 l 717 753 z "},"õ":{"ha":764,"x_min":69,"x_max":694,"o":"m 382 -17 q 217 31 288 -17 q 108 165 146 78 q 69 368 69 251 q 108 572 69 485 q 217 706 146 658 q 382 753 288 753 q 547 706 476 753 q 656 572 618 658 q 694 368 694 485 q 656 165 694 251 q 547 31 618 78 q 382 -17 476 -17 m 382 25 q 578 117 506 25 q 650 368 650 210 q 578 619 650 526 q 382 711 506 711 q 186 619 258 711 q 114 368 114 526 q 186 117 114 210 q 382 25 258 25 m 289 961 q 236 938 254 961 q 215 868 218 915 l 172 868 q 207 969 176 932 q 286 1006 238 1006 q 339 994 317 1006 q 389 956 361 983 l 403 942 q 434 918 418 926 q 472 910 450 910 q 526 933 507 910 q 549 1004 546 957 l 592 1004 q 558 901 588 938 q 478 865 529 865 q 424 876 443 865 q 381 908 404 886 l 372 915 l 363 924 q 327 951 343 942 q 289 961 311 961 z "},"œ":{"ha":1358,"x_min":69,"x_max":1289,"o":"m 382 -17 q 217 31 288 -17 q 108 165 146 78 q 69 368 69 251 q 108 572 69 485 q 217 706 146 658 q 382 753 288 753 q 547 706 476 753 q 656 572 618 658 q 694 368 694 485 q 656 165 694 251 q 547 31 618 78 q 382 -17 476 -17 m 382 25 q 578 117 506 25 q 650 368 650 210 q 578 619 650 526 q 382 711 506 711 q 186 619 258 711 q 114 368 114 526 q 186 117 114 210 q 382 25 258 25 m 664 368 q 699 563 664 475 q 806 701 735 650 q 976 753 876 753 q 1147 701 1076 753 q 1253 563 1218 650 q 1289 368 1289 475 l 1289 358 l 708 358 q 783 115 710 204 q 976 25 856 25 q 1126 72 1060 25 q 1222 201 1192 119 l 1268 199 q 1157 42 1236 100 q 976 -17 1078 -17 q 806 35 876 -17 q 699 174 735 86 q 664 368 664 261 m 1243 400 q 1165 628 1236 544 q 976 711 1093 711 q 788 628 860 711 q 710 400 717 544 l 1243 400 z "},"p":{"ha":792,"x_min":118,"x_max":722,"o":"m 118 736 l 149 736 l 154 493 l 138 510 q 244 686 168 619 q 415 753 321 753 q 578 706 508 753 q 685 572 647 658 q 722 368 722 485 q 685 167 722 253 q 578 34 647 81 q 415 -12 508 -12 q 297 18 354 -12 q 199 101 239 49 q 149 219 160 154 l 160 240 l 160 -208 l 118 -208 l 118 736 m 156 368 q 190 197 156 275 q 284 74 225 119 q 415 29 343 29 q 607 121 536 29 q 678 368 678 213 q 607 619 678 526 q 415 713 536 713 q 284 667 343 713 q 190 542 225 621 q 156 368 156 463 z "},"þ":{"ha":794,"x_min":118,"x_max":725,"o":"m 163 986 l 163 565 q 264 697 193 646 q 417 749 335 749 q 580 702 510 749 q 688 569 650 656 q 725 368 725 483 q 688 165 725 251 q 580 31 650 78 q 417 -17 510 -17 q 270 30 338 -17 q 163 158 203 76 l 163 -208 l 118 -208 l 118 986 l 163 986 m 163 368 q 197 194 163 274 q 291 69 232 115 q 422 24 350 24 q 614 117 543 24 q 685 368 685 210 q 614 615 685 524 q 422 707 543 707 q 291 662 350 707 q 197 539 232 617 q 163 368 163 461 z "},"q":{"ha":792,"x_min":69,"x_max":674,"o":"m 674 736 l 643 736 l 638 493 l 654 510 q 547 686 624 619 q 376 753 471 753 q 214 706 283 753 q 107 572 144 658 q 69 368 69 485 q 107 167 69 253 q 214 34 144 81 q 376 -12 283 -12 q 495 18 438 -12 q 592 101 553 49 q 643 219 632 154 l 632 240 l 632 -208 l 674 -208 l 674 736 m 636 368 q 601 197 636 275 q 508 74 567 119 q 376 29 449 29 q 185 121 256 29 q 114 368 114 213 q 185 619 114 526 q 376 713 256 713 q 508 667 449 713 q 601 542 567 621 q 636 368 636 463 z "},"r":{"ha":476,"x_min":118,"x_max":407,"o":"m 149 736 l 156 500 l 139 514 q 220 679 165 622 q 360 736 275 736 l 407 736 l 407 699 l 360 699 q 256 665 301 699 q 185 571 210 631 q 160 439 160 511 l 160 0 l 118 0 l 118 736 l 149 736 z "},"ŕ":{"ha":476,"x_min":118,"x_max":407,"o":"m 149 736 l 156 500 l 139 514 q 220 679 165 622 q 360 736 275 736 l 407 736 l 407 699 l 360 699 q 256 665 301 699 q 185 571 210 631 q 160 439 160 511 l 160 0 l 118 0 l 118 736 l 149 736 m 265 853 l 229 853 l 329 1019 l 376 1019 l 265 853 z "},"ř":{"ha":476,"x_min":113,"x_max":407,"o":"m 149 736 l 156 500 l 139 514 q 220 679 165 622 q 360 736 275 736 l 407 736 l 407 699 l 360 699 q 256 665 301 699 q 185 571 210 631 q 160 439 160 511 l 160 0 l 118 0 l 118 736 l 149 736 z "},"ŗ":{"ha":476,"x_min":33,"x_max":407,"o":"m 149 736 l 156 500 l 139 514 q 220 679 165 622 q 360 736 275 736 l 407 736 l 407 699 l 360 699 q 256 665 301 699 q 185 571 210 631 q 160 439 160 511 l 160 0 l 118 0 l 118 736 l 149 736 z "},"s":{"ha":706,"x_min":69,"x_max":636,"o":"m 572 526 q 495 661 558 611 q 338 711 432 711 q 190 665 246 711 q 139 544 135 618 q 193 449 142 488 q 365 378 244 411 q 519 328 461 354 q 607 266 578 301 q 636 181 636 231 q 603 75 636 119 q 508 7 569 31 q 363 -17 446 -17 q 215 14 282 -17 q 109 98 149 44 q 69 215 69 151 l 113 221 q 146 122 113 167 q 236 51 179 76 q 363 25 293 25 q 531 65 471 25 q 592 181 592 104 q 563 252 592 224 q 492 297 533 281 q 388 329 451 313 q 344 342 367 336 q 203 396 257 368 q 123 460 150 424 q 94 544 96 496 q 124 652 92 604 q 215 726 156 700 q 350 753 274 753 q 526 692 451 753 q 615 535 600 631 l 572 526 z "},"ś":{"ha":706,"x_min":69,"x_max":636,"o":"m 572 526 q 495 661 558 611 q 338 711 432 711 q 190 665 246 711 q 139 544 135 618 q 193 449 142 488 q 365 378 244 411 q 519 328 461 354 q 607 266 578 301 q 636 181 636 231 q 603 75 636 119 q 508 7 569 31 q 363 -17 446 -17 q 215 14 282 -17 q 109 98 149 44 q 69 215 69 151 l 113 221 q 146 122 113 167 q 236 51 179 76 q 363 25 293 25 q 531 65 471 25 q 592 181 592 104 q 563 252 592 224 q 492 297 533 281 q 388 329 451 313 q 344 342 367 336 q 203 396 257 368 q 123 460 150 424 q 94 544 96 496 q 124 652 92 604 q 215 726 156 700 q 350 753 274 753 q 526 692 451 753 q 615 535 600 631 l 572 526 m 367 853 l 331 853 l 431 1019 l 478 1019 l 367 853 z "},"ꞌ":{"ha":194,"x_min":69,"x_max":125,"o":"m 125 986 l 125 806 l 117 551 l 78 551 l 69 806 l 69 986 l 125 986 z "},"š":{"ha":706,"x_min":69,"x_max":636,"o":"m 572 526 q 495 661 558 611 q 338 711 432 711 q 190 665 246 711 q 139 544 135 618 q 193 449 142 488 q 365 378 244 411 q 519 328 461 354 q 607 266 578 301 q 636 181 636 231 q 603 75 636 119 q 508 7 569 31 q 363 -17 446 -17 q 215 14 282 -17 q 109 98 149 44 q 69 215 69 151 l 113 221 q 146 122 113 167 q 236 51 179 76 q 363 25 293 25 q 531 65 471 25 q 592 181 592 104 q 563 252 592 224 q 492 297 533 281 q 388 329 451 313 q 344 342 367 336 q 203 396 257 368 q 123 460 150 424 q 94 544 96 496 q 124 652 92 604 q 215 726 156 700 q 350 753 274 753 q 526 692 451 753 q 615 535 600 631 l 572 526 z "},"ş":{"ha":706,"x_min":69,"x_max":636,"o":"m 572 526 q 495 661 558 611 q 338 711 432 711 q 190 665 246 711 q 139 544 135 618 q 193 449 142 488 q 365 378 244 411 q 519 328 461 354 q 607 266 578 301 q 636 181 636 231 q 603 75 636 119 q 508 7 569 31 q 363 -17 446 -17 q 215 14 282 -17 q 109 98 149 44 q 69 215 69 151 l 113 221 q 146 122 113 167 q 236 51 179 76 q 363 25 293 25 q 531 65 471 25 q 592 181 592 104 q 563 252 592 224 q 492 297 533 281 q 388 329 451 313 q 344 342 367 336 q 203 396 257 368 q 123 460 150 424 q 94 544 96 496 q 124 652 92 604 q 215 726 156 700 q 350 753 274 753 q 526 692 451 753 q 615 535 600 631 l 572 526 m 351 11 l 394 11 l 325 -65 q 421 -90 382 -58 q 460 -176 460 -122 q 444 -233 460 -208 q 403 -273 429 -258 q 342 -287 376 -287 q 270 -271 300 -287 q 203 -214 240 -254 l 233 -185 l 240 -192 q 285 -233 261 -217 q 336 -249 308 -249 q 395 -227 372 -249 q 418 -171 418 -206 q 385 -110 418 -131 q 301 -99 351 -90 l 279 -68 l 351 11 z "},"ŝ":{"ha":706,"x_min":69,"x_max":636,"o":"m 572 526 q 495 661 558 611 q 338 711 432 711 q 190 665 246 711 q 139 544 135 618 q 193 449 142 488 q 365 378 244 411 q 519 328 461 354 q 607 266 578 301 q 636 181 636 231 q 603 75 636 119 q 508 7 569 31 q 363 -17 446 -17 q 215 14 282 -17 q 109 98 149 44 q 69 215 69 151 l 113 221 q 146 122 113 167 q 236 51 179 76 q 363 25 293 25 q 531 65 471 25 q 592 181 592 104 q 563 252 592 224 q 492 297 533 281 q 388 329 451 313 q 344 342 367 336 q 203 396 257 368 q 123 460 150 424 q 94 544 96 496 q 124 652 92 604 q 215 726 156 700 q 350 753 274 753 q 526 692 451 753 q 615 535 600 631 l 572 526 m 339 982 l 361 982 l 264 846 l 214 846 l 333 1013 l 367 1013 l 488 846 l 438 846 l 339 982 z "},"ș":{"ha":706,"x_min":69,"x_max":636,"o":"m 572 526 q 495 661 558 611 q 338 711 432 711 q 190 665 246 711 q 139 544 135 618 q 193 449 142 488 q 365 378 244 411 q 519 328 461 354 q 607 266 578 301 q 636 181 636 231 q 603 75 636 119 q 508 7 569 31 q 363 -17 446 -17 q 215 14 282 -17 q 109 98 149 44 q 69 215 69 151 l 113 221 q 146 122 113 167 q 236 51 179 76 q 363 25 293 25 q 531 65 471 25 q 592 181 592 104 q 563 252 592 224 q 492 297 533 281 q 388 329 451 313 q 344 342 367 336 q 203 396 257 368 q 123 460 150 424 q 94 544 96 496 q 124 652 92 604 q 215 726 156 700 q 350 753 274 753 q 526 692 451 753 q 615 535 600 631 l 572 526 z "},"ß":{"ha":782,"x_min":118,"x_max":719,"o":"m 294 42 l 294 0 l 383 0 q 553 35 476 0 q 675 132 631 71 q 719 269 719 193 q 656 430 719 361 q 488 522 592 499 q 614 608 567 546 q 661 751 661 669 q 626 881 661 824 q 529 971 592 939 q 388 1003 467 1003 q 248 964 310 1003 q 152 856 186 925 q 118 697 118 786 l 118 0 l 163 0 l 163 697 q 191 832 163 772 q 271 925 219 892 q 388 958 322 958 q 551 900 488 958 q 614 751 614 842 q 583 640 614 689 q 496 564 551 590 q 369 539 440 538 l 308 540 l 308 497 l 369 499 q 526 472 457 500 q 633 391 594 444 q 672 269 672 338 q 634 152 672 204 q 529 71 596 100 q 383 42 463 42 l 294 42 z "},"t":{"ha":489,"x_min":83,"x_max":433,"o":"m 254 903 l 254 149 q 281 67 254 96 q 356 38 307 38 l 433 38 l 433 0 l 356 0 q 251 40 290 0 q 213 149 213 81 l 213 903 l 254 903 m 433 736 l 433 694 l 83 694 l 83 736 l 433 736 z "},"ŧ":{"ha":489,"x_min":83,"x_max":433,"o":"m 254 903 l 254 149 q 281 67 254 96 q 356 38 307 38 l 433 38 l 433 0 l 356 0 q 251 40 290 0 q 213 149 213 81 l 213 903 l 254 903 m 433 736 l 433 694 l 83 694 l 83 736 l 433 736 m 433 413 l 433 371 l 83 371 l 83 413 l 433 413 z "},"ť":{"ha":489,"x_min":83,"x_max":433,"o":"m 254 903 l 254 149 q 281 67 254 96 q 356 38 307 38 l 433 38 l 433 0 l 356 0 q 251 40 290 0 q 213 149 213 81 l 213 903 l 254 903 m 433 736 l 433 694 l 83 694 l 83 736 l 433 736 m 339 788 l 304 788 l 346 944 l 394 944 l 339 788 m 394 1035 l 394 944 l 313 944 l 313 1035 l 394 1035 z "},"ţ":{"ha":489,"x_min":83,"x_max":433,"o":"m 254 903 l 254 149 q 281 67 254 96 q 356 38 307 38 l 433 38 l 433 0 l 356 0 q 251 40 290 0 q 213 149 213 81 l 213 903 l 254 903 m 433 736 l 433 694 l 83 694 l 83 736 l 433 736 m 303 11 l 346 11 l 276 -65 q 372 -90 333 -58 q 411 -176 411 -122 q 396 -233 411 -208 q 354 -273 381 -258 q 293 -287 328 -287 q 222 -271 251 -287 q 154 -214 192 -254 l 185 -185 l 192 -192 q 236 -233 213 -217 q 288 -249 260 -249 q 347 -227 324 -249 q 369 -171 369 -206 q 336 -110 369 -131 q 253 -99 303 -90 l 231 -68 l 303 11 z "},"ț":{"ha":489,"x_min":83,"x_max":433,"o":"m 254 903 l 254 149 q 281 67 254 96 q 356 38 307 38 l 433 38 l 433 0 l 356 0 q 251 40 290 0 q 213 149 213 81 l 213 903 l 254 903 m 433 736 l 433 694 l 83 694 l 83 736 l 433 736 z "},"u":{"ha":772,"x_min":118,"x_max":654,"o":"m 615 0 l 611 201 l 618 201 q 539 38 611 93 q 360 -17 467 -17 q 181 62 244 -17 q 118 263 118 140 l 118 736 l 160 736 l 160 296 q 211 97 160 169 q 371 25 263 25 q 549 100 485 25 q 613 296 613 175 l 613 736 l 654 736 l 654 0 l 615 0 z "},"ú":{"ha":772,"x_min":118,"x_max":654,"o":"m 615 0 l 611 201 l 618 201 q 539 38 611 93 q 360 -17 467 -17 q 181 62 244 -17 q 118 263 118 140 l 118 736 l 160 736 l 160 296 q 211 97 160 169 q 371 25 263 25 q 549 100 485 25 q 613 296 613 175 l 613 736 l 654 736 l 654 0 l 615 0 m 403 853 l 367 853 l 467 1019 l 514 1019 l 403 853 z "},"ŭ":{"ha":772,"x_min":118,"x_max":654,"o":"m 615 0 l 611 201 l 618 201 q 539 38 611 93 q 360 -17 467 -17 q 181 62 244 -17 q 118 263 118 140 l 118 736 l 160 736 l 160 296 q 211 97 160 169 q 371 25 263 25 q 549 100 485 25 q 613 296 613 175 l 613 736 l 654 736 l 654 0 l 615 0 m 260 1003 q 303 937 268 963 q 386 911 339 911 q 469 937 433 911 q 513 1003 504 963 l 558 1003 q 530 933 553 964 q 469 886 507 903 q 386 869 432 869 q 303 886 340 869 q 242 933 265 903 q 214 1003 219 964 l 260 1003 z "},"û":{"ha":772,"x_min":118,"x_max":654,"o":"m 615 0 l 611 201 l 618 201 q 539 38 611 93 q 360 -17 467 -17 q 181 62 244 -17 q 118 263 118 140 l 118 736 l 160 736 l 160 296 q 211 97 160 169 q 371 25 263 25 q 549 100 485 25 q 613 296 613 175 l 613 736 l 654 736 l 654 0 l 615 0 m 375 982 l 397 982 l 300 846 l 250 846 l 369 1013 l 403 1013 l 524 846 l 474 846 l 375 982 z "},"ü":{"ha":772,"x_min":118,"x_max":654,"o":"m 615 0 l 611 201 l 618 201 q 539 38 611 93 q 360 -17 467 -17 q 181 62 244 -17 q 118 263 118 140 l 118 736 l 160 736 l 160 296 q 211 97 160 169 q 371 25 263 25 q 549 100 485 25 q 613 296 613 175 l 613 736 l 654 736 l 654 0 l 615 0 z "},"ù":{"ha":772,"x_min":118,"x_max":654,"o":"m 615 0 l 611 201 l 618 201 q 539 38 611 93 q 360 -17 467 -17 q 181 62 244 -17 q 118 263 118 140 l 118 736 l 160 736 l 160 296 q 211 97 160 169 q 371 25 263 25 q 549 100 485 25 q 613 296 613 175 l 613 736 l 654 736 l 654 0 l 615 0 m 304 1019 l 404 853 l 368 853 l 257 1019 l 304 1019 z "},"ű":{"ha":772,"x_min":118,"x_max":654,"o":"m 615 0 l 611 201 l 618 201 q 539 38 611 93 q 360 -17 467 -17 q 181 62 244 -17 q 118 263 118 140 l 118 736 l 160 736 l 160 296 q 211 97 160 169 q 371 25 263 25 q 549 100 485 25 q 613 296 613 175 l 613 736 l 654 736 l 654 0 l 615 0 z "},"ū":{"ha":772,"x_min":118,"x_max":654,"o":"m 615 0 l 611 201 l 618 201 q 539 38 611 93 q 360 -17 467 -17 q 181 62 244 -17 q 118 263 118 140 l 118 736 l 160 736 l 160 296 q 211 97 160 169 q 371 25 263 25 q 549 100 485 25 q 613 296 613 175 l 613 736 l 654 736 l 654 0 l 615 0 m 550 932 l 550 890 l 222 890 l 222 932 l 550 932 z "},"ų":{"ha":772,"x_min":118,"x_max":708,"o":"m 615 0 l 611 201 l 618 201 q 539 38 611 93 q 360 -17 467 -17 q 181 62 244 -17 q 118 263 118 140 l 118 736 l 160 736 l 160 296 q 211 97 160 169 q 371 25 263 25 q 549 100 485 25 q 613 296 613 175 l 613 736 l 654 736 l 654 0 l 615 0 m 622 -47 q 590 -107 601 -78 q 578 -160 578 -136 q 595 -210 578 -193 q 649 -226 613 -226 q 676 -224 663 -226 q 699 -217 689 -221 q 708 -211 704 -214 l 708 -246 q 672 -263 690 -258 q 631 -268 653 -268 q 564 -244 590 -268 q 538 -181 538 -219 q 553 -109 538 -143 q 596 -39 568 -75 l 625 0 l 654 0 l 622 -47 z "},"ů":{"ha":772,"x_min":118,"x_max":654,"o":"m 615 0 l 611 201 l 618 201 q 539 38 611 93 q 360 -17 467 -17 q 181 62 244 -17 q 118 263 118 140 l 118 736 l 160 736 l 160 296 q 211 97 160 169 q 371 25 263 25 q 549 100 485 25 q 613 296 613 175 l 613 736 l 654 736 l 654 0 l 615 0 m 386 844 q 319 872 346 844 q 292 938 292 899 q 319 1003 292 976 q 386 1031 347 1031 q 452 1003 425 1031 q 479 938 479 976 q 452 872 479 899 q 386 844 425 844 m 386 882 q 424 899 407 882 q 440 938 440 915 q 424 975 440 958 q 386 992 407 992 q 347 975 364 992 q 331 938 331 958 q 347 899 331 915 q 386 882 364 882 z "},"ũ":{"ha":772,"x_min":118,"x_max":654,"o":"m 615 0 l 611 201 l 618 201 q 539 38 611 93 q 360 -17 467 -17 q 181 62 244 -17 q 118 263 118 140 l 118 736 l 160 736 l 160 296 q 211 97 160 169 q 371 25 263 25 q 549 100 485 25 q 613 296 613 175 l 613 736 l 654 736 l 654 0 l 615 0 m 293 961 q 240 938 258 961 q 219 868 222 915 l 176 868 q 211 969 181 932 q 290 1006 242 1006 q 343 994 321 1006 q 393 956 365 983 l 407 942 q 438 918 422 926 q 476 910 454 910 q 531 933 511 910 q 553 1004 550 957 l 596 1004 q 563 901 592 938 q 482 865 533 865 q 428 876 447 865 q 385 908 408 886 l 376 915 l 367 924 q 331 951 347 942 q 293 961 315 961 z "},"v":{"ha":669,"x_min":33,"x_max":636,"o":"m 361 0 l 308 0 l 33 736 l 78 736 l 335 43 l 592 736 l 636 736 l 361 0 z "},"w":{"ha":1079,"x_min":33,"x_max":1046,"o":"m 772 46 l 1001 736 l 1046 736 l 797 0 l 747 0 l 540 667 l 332 0 l 282 0 l 33 736 l 78 736 l 307 46 l 518 736 l 561 736 l 772 46 z "},"ẃ":{"ha":1079,"x_min":33,"x_max":1046,"o":"m 772 46 l 1001 736 l 1046 736 l 797 0 l 747 0 l 540 667 l 332 0 l 282 0 l 33 736 l 78 736 l 307 46 l 518 736 l 561 736 l 772 46 m 557 853 l 521 853 l 621 1019 l 668 1019 l 557 853 z "},"ŵ":{"ha":1079,"x_min":33,"x_max":1046,"o":"m 772 46 l 1001 736 l 1046 736 l 797 0 l 747 0 l 540 667 l 332 0 l 282 0 l 33 736 l 78 736 l 307 46 l 518 736 l 561 736 l 772 46 m 529 982 l 551 982 l 454 846 l 404 846 l 524 1013 l 557 1013 l 678 846 l 628 846 l 529 982 z "},"ẅ":{"ha":1079,"x_min":33,"x_max":1046,"o":"m 772 46 l 1001 736 l 1046 736 l 797 0 l 747 0 l 540 667 l 332 0 l 282 0 l 33 736 l 78 736 l 307 46 l 518 736 l 561 736 l 772 46 z "},"ẁ":{"ha":1079,"x_min":33,"x_max":1046,"o":"m 772 46 l 1001 736 l 1046 736 l 797 0 l 747 0 l 540 667 l 332 0 l 282 0 l 33 736 l 78 736 l 307 46 l 518 736 l 561 736 l 772 46 m 458 1019 l 558 853 l 522 853 l 411 1019 l 458 1019 z "},"x":{"ha":744,"x_min":68,"x_max":676,"o":"m 667 736 l 403 369 l 676 0 l 625 0 l 372 344 l 119 0 l 68 0 l 342 369 l 78 736 l 129 736 l 372 396 l 615 736 l 667 736 z "},"y":{"ha":690,"x_min":33,"x_max":657,"o":"m 78 736 l 356 43 l 613 736 l 657 736 l 346 -93 q 284 -181 322 -154 q 182 -208 246 -208 l 128 -208 l 128 -171 l 183 -171 q 265 -147 238 -171 q 319 -54 292 -124 l 346 14 l 324 14 l 33 736 l 78 736 z "},"ý":{"ha":690,"x_min":33,"x_max":657,"o":"m 78 736 l 356 43 l 613 736 l 657 736 l 346 -93 q 284 -181 322 -154 q 182 -208 246 -208 l 128 -208 l 128 -171 l 183 -171 q 265 -147 238 -171 q 319 -54 292 -124 l 346 14 l 324 14 l 33 736 l 78 736 m 372 853 l 336 853 l 436 1019 l 483 1019 l 372 853 z "},"ŷ":{"ha":690,"x_min":33,"x_max":657,"o":"m 78 736 l 356 43 l 613 736 l 657 736 l 346 -93 q 284 -181 322 -154 q 182 -208 246 -208 l 128 -208 l 128 -171 l 183 -171 q 265 -147 238 -171 q 319 -54 292 -124 l 346 14 l 324 14 l 33 736 l 78 736 m 344 982 l 367 982 l 269 846 l 219 846 l 339 1013 l 372 1013 l 493 846 l 443 846 l 344 982 z "},"ÿ":{"ha":690,"x_min":33,"x_max":657,"o":"m 78 736 l 356 43 l 613 736 l 657 736 l 346 -93 q 284 -181 322 -154 q 182 -208 246 -208 l 128 -208 l 128 -171 l 183 -171 q 265 -147 238 -171 q 319 -54 292 -124 l 346 14 l 324 14 l 33 736 l 78 736 z "},"ỳ":{"ha":690,"x_min":33,"x_max":657,"o":"m 78 736 l 356 43 l 613 736 l 657 736 l 346 -93 q 284 -181 322 -154 q 182 -208 246 -208 l 128 -208 l 128 -171 l 183 -171 q 265 -147 238 -171 q 319 -54 292 -124 l 346 14 l 324 14 l 33 736 l 78 736 m 274 1019 l 374 853 l 338 853 l 226 1019 l 274 1019 z "},"ỹ":{"ha":690,"x_min":33,"x_max":657,"o":"m 78 736 l 356 43 l 613 736 l 657 736 l 346 -93 q 284 -181 322 -154 q 182 -208 246 -208 l 128 -208 l 128 -171 l 183 -171 q 265 -147 238 -171 q 319 -54 292 -124 l 346 14 l 324 14 l 33 736 l 78 736 m 263 961 q 210 938 228 961 q 189 868 192 915 l 146 868 q 181 969 150 932 q 260 1006 211 1006 q 313 994 290 1006 q 363 956 335 983 l 376 942 q 408 918 392 926 q 446 910 424 910 q 500 933 481 910 q 522 1004 519 957 l 565 1004 q 532 901 561 938 q 451 865 503 865 q 397 876 417 865 q 354 908 378 886 l 346 915 l 336 924 q 301 951 317 942 q 263 961 285 961 z "},"z":{"ha":744,"x_min":82,"x_max":663,"o":"m 132 42 l 663 42 l 663 0 l 82 0 l 82 42 l 601 694 l 96 694 l 96 736 l 651 736 l 651 694 l 132 42 z "},"ź":{"ha":744,"x_min":82,"x_max":663,"o":"m 132 42 l 663 42 l 663 0 l 82 0 l 82 42 l 601 694 l 96 694 l 96 736 l 651 736 l 651 694 l 132 42 m 390 853 l 354 853 l 454 1019 l 501 1019 l 390 853 z "},"ž":{"ha":744,"x_min":82,"x_max":663,"o":"m 132 42 l 663 42 l 663 0 l 82 0 l 82 42 l 601 694 l 96 694 l 96 736 l 651 736 l 651 694 l 132 42 z "},"ż":{"ha":744,"x_min":82,"x_max":663,"o":"m 132 42 l 663 42 l 663 0 l 82 0 l 82 42 l 601 694 l 96 694 l 96 736 l 651 736 l 651 694 l 132 42 m 397 953 l 397 856 l 350 856 l 350 953 l 397 953 z "},"ª":{"ha":765,"x_min":69,"x_max":717,"o":"m 82 518 q 172 692 100 631 q 358 753 244 753 q 563 676 494 753 q 631 444 631 599 l 631 125 q 645 61 631 81 q 692 42 660 42 l 717 42 l 717 0 l 692 0 l 676 0 q 607 41 631 4 q 589 160 583 78 q 478 31 551 76 q 310 -17 404 -14 q 135 40 200 -15 q 69 182 69 94 q 104 286 69 244 q 194 351 139 328 q 322 389 250 375 l 586 438 q 532 646 586 581 q 358 711 478 711 q 203 660 263 711 q 128 514 143 608 l 82 518 m 114 182 q 172 63 114 107 q 325 25 229 19 q 464 65 403 28 q 558 165 525 103 q 590 304 592 228 l 589 399 l 367 357 q 339 351 353 354 q 224 319 272 338 q 144 268 175 301 q 114 182 114 235 z "},"º":{"ha":764,"x_min":69,"x_max":694,"o":"m 382 -17 q 217 31 288 -17 q 108 165 146 78 q 69 368 69 251 q 108 572 69 485 q 217 706 146 658 q 382 753 288 753 q 547 706 476 753 q 656 572 618 658 q 694 368 694 485 q 656 165 694 251 q 547 31 618 78 q 382 -17 476 -17 m 382 25 q 578 117 506 25 q 650 368 650 210 q 578 619 650 526 q 382 711 506 711 q 186 619 258 711 q 114 368 114 526 q 186 117 114 210 q 382 25 258 25 z "},"А":{"ha":850,"x_min":33,"x_max":817,"o":"m 399 986 l 451 986 l 817 0 l 771 0 l 651 326 l 199 326 l 79 0 l 33 0 l 399 986 m 636 368 l 425 942 l 214 368 l 636 368 z "},"Б":{"ha":872,"x_min":133,"x_max":796,"o":"m 133 986 l 178 986 l 178 563 l 463 563 q 706 488 615 563 q 796 285 796 413 q 755 134 796 199 q 639 35 714 69 q 463 0 564 0 l 133 0 l 133 986 m 178 42 l 463 42 q 674 105 600 42 q 749 285 749 168 q 674 460 749 399 q 463 521 600 521 l 178 521 l 178 42 m 771 986 l 771 944 l 142 944 l 142 986 l 771 986 z "},"В":{"ha":886,"x_min":133,"x_max":810,"o":"m 133 986 l 435 986 q 685 920 601 986 q 768 722 768 854 q 737 603 768 656 q 651 521 706 550 q 525 492 596 492 l 525 500 q 733 436 656 500 q 810 263 810 372 q 730 65 810 131 q 490 0 650 0 l 133 0 l 133 986 m 490 42 q 694 97 626 42 q 763 263 763 151 q 689 415 763 358 q 490 471 615 471 l 178 471 l 178 42 l 490 42 m 435 513 q 647 567 572 513 q 721 722 721 621 q 649 889 721 833 q 435 944 578 944 l 178 944 l 178 513 l 435 513 z "},"Г":{"ha":810,"x_min":133,"x_max":771,"o":"m 771 986 l 771 944 l 178 944 l 178 0 l 133 0 l 133 986 l 771 986 z "},"Ѓ":{"ha":810,"x_min":133,"x_max":771,"o":"m 771 986 l 771 944 l 178 944 l 178 0 l 133 0 l 133 986 l 771 986 m 468 1103 l 432 1103 l 532 1269 l 579 1269 l 468 1103 z "},"Ґ":{"ha":675,"x_min":133,"x_max":636,"o":"m 636 986 l 636 944 l 178 944 l 178 0 l 133 0 l 133 986 l 636 986 m 636 1201 l 636 950 l 592 950 l 592 1201 l 636 1201 z "},"Ғ":{"ha":875,"x_min":106,"x_max":836,"o":"m 836 986 l 836 944 l 243 944 l 243 0 l 199 0 l 199 986 l 836 986 m 628 476 l 628 435 l 106 435 l 106 476 l 628 476 z "},"Д":{"ha":1090,"x_min":83,"x_max":1007,"o":"m 885 42 l 1007 42 l 1007 -208 l 963 -208 l 963 0 l 128 0 l 128 -208 l 83 -208 l 83 42 l 113 42 q 213 100 174 42 q 263 265 253 158 l 335 986 l 885 986 l 885 42 m 840 42 l 840 944 l 374 944 l 304 251 q 272 125 297 182 q 213 42 247 68 l 840 42 z "},"Е":{"ha":796,"x_min":133,"x_max":726,"o":"m 715 986 l 715 944 l 178 944 l 178 513 l 699 513 l 699 471 l 178 471 l 178 42 l 726 42 l 726 0 l 133 0 l 133 986 l 715 986 z "},"Ѐ":{"ha":796,"x_min":133,"x_max":726,"o":"m 715 986 l 715 944 l 178 944 l 178 513 l 699 513 l 699 471 l 178 471 l 178 42 l 726 42 l 726 0 l 133 0 l 133 986 l 715 986 m 343 1269 l 443 1103 l 407 1103 l 296 1269 l 343 1269 z "},"Ё":{"ha":796,"x_min":133,"x_max":726,"o":"m 715 986 l 715 944 l 178 944 l 178 513 l 699 513 l 699 471 l 178 471 l 178 42 l 726 42 l 726 0 l 133 0 l 133 986 l 715 986 z "},"Ж":{"ha":1213,"x_min":42,"x_max":1171,"o":"m 628 986 l 628 0 l 583 0 l 583 986 l 628 986 m 1157 986 l 676 493 l 618 493 l 1096 986 l 1157 986 m 618 493 l 676 493 l 1171 0 l 1110 0 l 618 493 m 593 493 l 536 493 l 56 986 l 115 986 l 593 493 m 42 0 l 536 493 l 593 493 l 101 0 l 42 0 z "},"З":{"ha":888,"x_min":83,"x_max":804,"o":"m 454 551 q 594 577 532 551 q 690 648 656 603 q 724 751 724 693 q 648 905 724 846 q 444 964 572 964 q 262 915 335 964 q 172 779 189 865 l 125 783 q 181 903 138 853 q 292 981 225 954 q 444 1008 360 1008 q 617 976 543 1008 q 731 885 690 943 q 771 751 771 826 q 701 597 771 663 q 515 517 631 531 l 515 549 q 667 498 601 538 q 768 399 732 458 q 804 271 804 340 q 759 119 804 185 q 631 15 714 53 q 440 -22 549 -22 q 260 10 339 -22 q 136 101 182 42 q 83 242 90 161 l 126 246 q 222 83 138 143 q 440 22 306 22 q 607 53 535 22 q 718 142 679 85 q 757 276 757 200 q 718 398 757 344 q 610 481 679 451 q 454 511 542 511 l 363 510 l 363 553 l 454 551 z "},"И":{"ha":988,"x_min":133,"x_max":854,"o":"m 789 986 l 178 44 l 178 986 l 133 986 l 133 0 l 199 0 l 810 942 l 810 0 l 854 0 l 854 986 l 789 986 z "},"Й":{"ha":988,"x_min":133,"x_max":854,"o":"m 789 986 l 178 44 l 178 986 l 133 986 l 133 0 l 199 0 l 810 942 l 810 0 l 854 0 l 854 986 l 789 986 m 367 1253 q 410 1187 375 1213 q 493 1161 446 1161 q 576 1187 540 1161 q 619 1253 611 1213 l 665 1253 q 637 1183 660 1214 q 576 1136 614 1153 q 493 1119 539 1119 q 410 1136 447 1119 q 349 1183 372 1153 q 321 1253 326 1214 l 367 1253 z "},"К":{"ha":771,"x_min":133,"x_max":729,"o":"m 178 986 l 178 0 l 133 0 l 133 986 l 178 986 m 714 986 l 224 493 l 168 493 l 660 986 l 714 986 m 168 493 l 224 493 l 729 0 l 674 0 l 168 493 z "},"Ќ":{"ha":771,"x_min":133,"x_max":729,"o":"m 178 986 l 178 0 l 133 0 l 133 986 l 178 986 m 714 986 l 224 493 l 168 493 l 660 986 l 714 986 m 168 493 l 224 493 l 729 0 l 674 0 l 168 493 m 435 1103 l 399 1103 l 499 1269 l 546 1269 l 435 1103 z "},"Л":{"ha":1019,"x_min":99,"x_max":886,"o":"m 886 0 l 842 0 l 842 944 l 367 944 l 304 204 q 253 51 294 101 q 140 0 213 0 l 99 0 l 99 42 l 139 42 q 222 83 192 42 q 260 207 253 124 l 325 986 l 886 986 l 886 0 z "},"М":{"ha":1181,"x_min":133,"x_max":1047,"o":"m 208 986 l 590 47 l 972 986 l 1047 986 l 1047 0 l 1003 0 l 1003 942 l 615 0 l 565 0 l 178 942 l 178 0 l 133 0 l 133 986 l 208 986 z "},"Н":{"ha":939,"x_min":133,"x_max":806,"o":"m 133 986 l 178 986 l 178 514 l 165 526 l 772 526 l 761 514 l 761 986 l 806 986 l 806 0 l 761 0 l 761 499 l 772 485 l 165 485 l 178 499 l 178 0 l 133 0 l 133 986 z "},"О":{"ha":992,"x_min":69,"x_max":922,"o":"m 496 -22 q 269 40 365 -22 q 121 219 172 103 q 69 492 69 335 q 121 767 69 650 q 269 946 172 883 q 496 1008 365 1008 q 723 946 626 1008 q 871 767 819 883 q 922 492 922 650 q 871 219 922 335 q 723 40 819 103 q 496 -22 626 -22 m 496 22 q 698 79 613 22 q 829 242 783 136 q 875 492 875 349 q 829 742 875 636 q 698 906 783 849 q 496 964 613 964 q 294 906 379 964 q 163 742 208 849 q 117 492 117 636 q 163 242 117 349 q 294 79 208 136 q 496 22 379 22 z "},"П":{"ha":939,"x_min":133,"x_max":806,"o":"m 806 0 l 761 0 l 761 944 l 178 944 l 178 0 l 133 0 l 133 986 l 806 986 l 806 0 z "},"Р":{"ha":858,"x_min":133,"x_max":796,"o":"m 463 986 q 639 951 564 986 q 755 852 714 917 q 796 701 796 788 q 755 554 796 617 q 639 458 714 492 q 463 424 564 424 l 178 424 l 178 0 l 133 0 l 133 986 l 463 986 m 463 465 q 674 526 600 465 q 749 701 749 588 q 674 881 749 818 q 463 944 600 944 l 178 944 l 178 465 l 463 465 z "},"С":{"ha":925,"x_min":69,"x_max":863,"o":"m 863 340 q 737 73 836 168 q 492 -22 638 -22 q 267 40 363 -22 q 121 219 172 103 q 69 492 69 335 q 121 767 69 650 q 267 946 172 883 q 492 1008 363 1008 q 726 919 629 1008 q 854 668 824 829 l 807 663 q 699 883 783 801 q 492 964 614 964 q 293 906 378 964 q 163 742 208 849 q 117 492 117 636 q 163 242 117 349 q 293 79 208 136 q 492 22 378 22 q 706 106 619 22 q 815 346 792 190 l 863 340 z "},"Т":{"ha":794,"x_min":39,"x_max":756,"o":"m 756 944 l 419 944 l 419 0 l 375 0 l 375 944 l 39 944 l 39 986 l 756 986 l 756 944 z "},"У":{"ha":696,"x_min":33,"x_max":663,"o":"m 81 986 l 358 293 l 615 986 l 663 986 l 340 126 q 275 31 317 61 q 171 0 233 0 l 117 0 l 117 42 l 171 42 q 253 67 222 42 q 307 154 285 93 l 347 264 l 324 264 l 33 986 l 81 986 z "},"Ў":{"ha":696,"x_min":33,"x_max":663,"o":"m 81 986 l 358 293 l 615 986 l 663 986 l 340 126 q 275 31 317 61 q 171 0 233 0 l 117 0 l 117 42 l 171 42 q 253 67 222 42 q 307 154 285 93 l 347 264 l 324 264 l 33 986 l 81 986 z "},"Ф":{"ha":1114,"x_min":69,"x_max":1044,"o":"m 69 493 q 128 701 69 613 q 297 837 188 789 q 556 885 407 885 q 815 837 704 885 q 985 701 925 789 q 1044 493 1044 613 q 985 285 1044 374 q 815 149 925 197 q 556 101 704 101 q 297 149 407 101 q 128 285 188 197 q 69 493 69 374 m 117 493 q 170 307 117 386 q 323 185 224 228 q 556 143 422 143 q 790 185 690 143 q 943 307 889 228 q 997 493 997 386 q 943 679 997 600 q 790 801 889 758 q 556 843 690 843 q 323 801 422 843 q 170 679 224 758 q 117 493 117 600 m 579 986 l 579 0 l 535 0 l 535 986 l 579 986 z "},"Х":{"ha":858,"x_min":42,"x_max":817,"o":"m 807 986 l 460 496 l 817 0 l 763 0 l 429 461 l 96 0 l 42 0 l 399 496 l 51 986 l 106 986 l 429 531 l 753 986 l 807 986 z "},"Ч":{"ha":828,"x_min":69,"x_max":694,"o":"m 650 0 l 650 549 l 656 549 q 610 439 651 489 q 500 360 568 389 q 353 331 432 331 q 143 407 217 331 q 69 624 69 483 l 69 986 l 114 986 l 114 624 q 176 438 114 503 q 353 374 238 374 q 507 408 439 374 q 613 503 575 442 q 650 643 650 565 l 650 986 l 694 986 l 694 0 l 650 0 z "},"Ц":{"ha":983,"x_min":133,"x_max":878,"o":"m 133 0 l 133 986 l 178 986 l 178 42 l 761 42 l 761 986 l 806 986 l 806 0 l 133 0 m 878 42 l 878 -208 l 833 -208 l 833 42 l 878 42 m 844 42 l 844 0 l 631 0 l 631 42 l 844 42 z "},"Ш":{"ha":1232,"x_min":133,"x_max":1099,"o":"m 133 986 l 178 986 l 178 0 l 133 0 l 133 986 m 1054 986 l 1099 986 l 1099 0 l 1054 0 l 1054 986 m 594 986 l 639 986 l 639 0 l 594 0 l 594 986 m 133 42 l 1099 42 l 1099 0 l 133 0 l 133 42 z "},"Щ":{"ha":1282,"x_min":133,"x_max":1176,"o":"m 133 986 l 178 986 l 178 0 l 133 0 l 133 986 m 1054 986 l 1099 986 l 1099 0 l 1054 0 l 1054 986 m 594 986 l 639 986 l 639 0 l 594 0 l 594 986 m 133 42 l 1099 42 l 1099 0 l 133 0 l 133 42 m 1176 42 l 1176 -208 l 1135 -208 l 1135 42 l 1176 42 m 1176 42 l 1176 0 l 1033 0 l 1033 42 l 1176 42 z "},"Џ":{"ha":939,"x_min":133,"x_max":806,"o":"m 133 0 l 133 986 l 178 986 l 178 42 l 761 42 l 761 986 l 806 986 l 806 0 l 133 0 m 492 21 l 492 -208 l 447 -208 l 447 21 l 492 21 z "},"Ь":{"ha":858,"x_min":133,"x_max":796,"o":"m 463 0 q 639 35 564 0 q 755 134 714 69 q 796 285 796 199 q 755 432 796 369 q 639 528 714 494 q 463 563 564 563 l 178 563 l 178 986 l 133 986 l 133 0 l 463 0 m 463 521 q 674 460 600 521 q 749 285 749 399 q 674 105 749 168 q 463 42 600 42 l 178 42 l 178 521 l 463 521 z "},"Ы":{"ha":1075,"x_min":133,"x_max":942,"o":"m 133 0 l 133 986 l 178 986 l 178 563 l 463 563 q 639 528 564 563 q 755 432 714 494 q 796 285 796 369 q 755 134 796 199 q 639 35 714 69 q 463 0 564 0 l 133 0 m 178 521 l 178 42 l 463 42 q 674 105 600 42 q 749 285 749 168 q 674 460 749 399 q 463 521 600 521 l 178 521 m 942 986 l 942 0 l 900 0 l 900 986 l 942 986 z "},"Ъ":{"ha":988,"x_min":106,"x_max":925,"o":"m 263 0 l 263 986 l 307 986 l 307 563 l 592 563 q 768 528 693 563 q 884 432 843 494 q 925 285 925 369 q 884 134 925 199 q 768 35 843 69 q 592 0 693 0 l 263 0 m 307 521 l 307 42 l 592 42 q 803 105 729 42 q 878 285 878 168 q 803 460 878 399 q 592 521 729 521 l 307 521 m 285 986 l 285 944 l 106 944 l 106 986 l 285 986 z "},"Љ":{"ha":1581,"x_min":99,"x_max":1504,"o":"m 886 0 l 842 0 l 842 944 l 367 944 l 304 204 q 253 51 294 101 q 140 0 213 0 l 99 0 l 99 42 l 139 42 q 222 83 192 42 q 260 207 253 124 l 325 986 l 886 986 l 886 0 m 1171 0 q 1347 35 1272 0 q 1463 134 1422 69 q 1504 285 1504 199 q 1463 432 1504 369 q 1347 528 1422 494 q 1171 563 1272 563 l 886 563 l 886 986 l 842 986 l 842 0 l 1171 0 m 1171 521 q 1383 460 1308 521 q 1457 285 1457 399 q 1383 105 1457 168 q 1171 42 1308 42 l 886 42 l 886 521 l 1171 521 z "},"Њ":{"ha":1500,"x_min":133,"x_max":1424,"o":"m 761 0 l 761 986 l 806 986 l 806 563 l 1090 563 q 1267 528 1192 563 q 1383 432 1342 494 q 1424 285 1424 369 q 1383 134 1424 199 q 1267 35 1342 69 q 1090 0 1192 0 l 761 0 m 806 521 l 806 42 l 1090 42 q 1302 105 1228 42 q 1376 285 1376 168 q 1302 460 1376 399 q 1090 521 1228 521 l 806 521 m 776 563 l 776 521 l 167 521 l 167 563 l 776 563 m 178 986 l 178 0 l 133 0 l 133 986 l 178 986 z "},"Ѕ":{"ha":865,"x_min":83,"x_max":782,"o":"m 129 308 q 172 167 129 231 q 288 65 214 103 q 449 28 361 28 q 593 56 528 28 q 697 134 658 85 q 735 242 735 183 q 658 385 735 326 q 414 489 582 444 q 176 595 250 533 q 101 750 101 657 q 142 888 101 829 q 256 977 182 946 q 431 1008 331 1008 q 594 968 519 1008 q 712 858 668 928 q 756 706 756 789 l 708 701 q 671 838 708 778 q 567 931 633 897 q 417 964 501 964 q 221 906 293 964 q 149 750 149 849 q 174 662 149 699 q 259 594 200 625 q 421 531 318 563 q 453 521 438 526 q 703 406 625 472 q 782 242 782 339 q 738 111 782 171 q 615 17 693 51 q 442 -17 538 -17 q 261 26 343 -17 q 131 143 179 69 q 83 304 83 217 l 129 308 z "},"Є":{"ha":979,"x_min":69,"x_max":910,"o":"m 861 315 q 732 102 828 182 q 496 22 636 22 q 294 79 379 22 q 163 242 208 136 q 117 492 117 349 q 163 742 117 636 q 294 906 208 849 q 496 964 379 964 q 733 883 636 964 q 861 667 829 801 l 910 667 q 767 915 875 822 q 496 1008 658 1008 q 269 946 365 1008 q 121 767 172 883 q 69 492 69 650 q 121 219 69 335 q 269 40 172 103 q 496 -22 365 -22 q 765 69 657 -22 q 908 315 874 161 l 861 315 m 86 513 l 86 471 l 554 471 l 554 513 l 86 513 z "},"Э":{"ha":979,"x_min":69,"x_max":910,"o":"m 118 315 q 247 102 151 182 q 483 22 343 22 q 685 79 600 22 q 817 242 771 136 q 863 492 863 349 q 817 742 863 636 q 685 906 771 849 q 483 964 600 964 q 247 883 343 964 q 118 667 150 801 l 69 667 q 213 915 104 822 q 483 1008 321 1008 q 710 946 614 1008 q 858 767 807 883 q 910 492 910 650 q 858 219 910 335 q 710 40 807 103 q 483 -22 614 -22 q 214 69 322 -22 q 71 315 106 161 l 118 315 m 893 513 l 893 471 l 425 471 l 425 513 l 893 513 z "},"І":{"ha":311,"x_min":133,"x_max":178,"o":"m 178 986 l 178 0 l 133 0 l 133 986 l 178 986 z "},"Ї":{"ha":311,"x_min":43,"x_max":267,"o":"m 178 986 l 178 0 l 133 0 l 133 986 l 178 986 z "},"Ј":{"ha":792,"x_min":99,"x_max":679,"o":"m 146 328 q 213 105 147 188 q 388 22 279 22 q 568 108 501 22 q 635 344 635 193 l 635 986 l 679 986 l 679 344 q 644 150 679 233 q 542 22 608 67 q 388 -22 476 -22 q 239 22 304 -22 q 136 144 174 65 q 99 322 99 222 l 146 328 z "},"Ћ":{"ha":981,"x_min":39,"x_max":911,"o":"m 331 986 l 331 438 l 325 438 q 371 547 329 497 q 481 626 413 597 q 628 656 549 656 q 838 579 764 656 q 911 363 911 503 l 911 0 l 867 0 l 867 363 q 805 548 867 483 q 628 613 743 613 q 474 578 542 613 q 368 483 406 544 q 331 343 331 421 l 331 0 l 286 0 l 286 986 l 331 986 m 669 986 l 669 944 l 39 944 l 39 986 l 669 986 z "},"Ю":{"ha":1265,"x_min":133,"x_max":1196,"o":"m 769 -22 q 542 40 639 -22 q 394 219 446 103 q 343 492 343 335 q 394 767 343 650 q 542 946 446 883 q 769 1008 639 1008 q 997 946 900 1008 q 1144 767 1093 883 q 1196 492 1196 650 q 1144 219 1196 335 q 997 40 1093 103 q 769 -22 900 -22 m 769 22 q 972 79 886 22 q 1103 242 1057 136 q 1149 492 1149 349 q 1103 742 1149 636 q 972 906 1057 849 q 769 964 886 964 q 567 906 653 964 q 436 742 482 849 q 390 492 390 636 q 436 242 390 349 q 567 79 482 136 q 769 22 653 22 m 375 514 l 375 472 l 167 472 l 167 514 l 375 514 m 178 986 l 178 0 l 133 0 l 133 986 l 178 986 z "},"Я":{"ha":872,"x_min":76,"x_max":739,"o":"m 410 986 q 167 909 257 986 q 76 701 76 832 q 143 526 76 596 q 328 438 210 457 l 76 0 l 124 0 l 372 433 q 410 432 383 432 l 694 432 l 694 0 l 739 0 l 739 986 l 410 986 m 410 474 q 198 533 272 474 q 124 701 124 592 q 198 881 124 818 q 410 944 272 944 l 694 944 l 694 474 l 410 474 z "},"Ђ":{"ha":969,"x_min":39,"x_max":914,"o":"m 331 986 l 331 438 l 325 438 q 370 547 329 497 q 476 626 411 597 q 614 656 542 656 q 773 615 706 656 q 877 499 840 574 q 914 322 914 424 q 872 151 914 224 q 749 39 829 78 q 558 0 668 0 l 558 42 q 785 117 703 42 q 867 322 867 192 q 799 534 867 457 q 614 611 731 611 q 469 577 533 611 q 367 482 404 543 q 331 343 331 421 l 331 0 l 286 0 l 286 986 l 331 986 m 669 986 l 669 944 l 39 944 l 39 986 l 669 986 z "},"Ѣ":{"ha":992,"x_min":92,"x_max":915,"o":"m 253 0 l 253 986 l 297 986 l 297 563 l 582 563 q 758 528 683 563 q 874 432 833 494 q 915 285 915 369 q 874 134 915 199 q 758 35 833 69 q 582 0 683 0 l 253 0 m 297 521 l 297 42 l 582 42 q 794 105 719 42 q 868 285 868 168 q 794 460 868 399 q 582 521 719 521 l 297 521 m 460 806 l 460 764 l 92 764 l 92 806 l 460 806 z "},"Ѫ":{"ha":935,"x_min":42,"x_max":893,"o":"m 557 514 q 655 485 614 514 q 721 400 696 457 l 893 0 l 844 0 l 696 354 q 638 445 669 418 q 557 472 606 472 l 378 472 q 297 445 329 472 q 239 354 265 418 l 90 0 l 42 0 l 214 400 q 280 485 239 457 q 378 514 321 514 l 557 514 m 490 500 l 490 0 l 446 0 l 446 500 l 490 500 m 799 986 l 799 944 l 138 944 l 138 986 l 799 986 m 188 944 l 485 489 l 435 489 l 138 944 l 188 944 m 501 489 l 451 489 l 749 944 l 799 944 l 501 489 z "},"Ѳ":{"ha":992,"x_min":69,"x_max":922,"o":"m 496 -22 q 269 40 365 -22 q 121 219 172 103 q 69 492 69 335 q 121 767 69 650 q 269 946 172 883 q 496 1008 365 1008 q 723 946 626 1008 q 871 767 819 883 q 922 492 922 650 q 871 219 922 335 q 723 40 819 103 q 496 -22 626 -22 m 496 22 q 698 79 613 22 q 829 242 783 136 q 875 492 875 349 q 829 742 875 636 q 698 906 783 849 q 496 964 613 964 q 294 906 379 964 q 163 742 208 849 q 117 492 117 636 q 163 242 117 349 q 294 79 208 136 q 496 22 379 22 m 97 524 q 253 569 161 564 q 351 563 296 572 q 451 533 407 553 q 578 481 539 496 q 642 463 618 467 q 701 461 667 458 q 797 484 753 464 q 893 549 840 504 l 893 489 q 704 417 801 422 q 615 426 661 414 q 454 486 568 439 q 351 517 404 507 q 257 525 297 528 q 169 508 208 522 q 97 467 131 493 l 97 524 z "},"Ѵ":{"ha":992,"x_min":33,"x_max":958,"o":"m 82 986 l 446 47 l 769 882 q 828 960 790 935 q 922 986 867 986 l 958 986 l 958 944 l 926 944 q 856 925 885 944 q 811 867 826 906 l 471 0 l 421 0 l 33 986 l 82 986 z "},"Җ":{"ha":1207,"x_min":42,"x_max":1172,"o":"m 628 986 l 628 0 l 583 0 l 583 986 l 628 986 m 1157 986 l 676 493 l 618 493 l 1096 986 l 1157 986 m 618 493 l 676 493 l 1171 0 l 1110 0 l 618 493 m 593 493 l 536 493 l 56 986 l 115 986 l 593 493 m 42 0 l 536 493 l 593 493 l 101 0 l 42 0 m 1172 97 l 1172 -208 l 1128 -208 l 1128 97 l 1172 97 z "},"Қ":{"ha":775,"x_min":133,"x_max":733,"o":"m 178 986 l 178 0 l 133 0 l 133 986 l 178 986 m 714 986 l 224 493 l 168 493 l 660 986 l 714 986 m 168 493 l 224 493 l 729 0 l 674 0 l 168 493 m 733 97 l 733 -208 l 689 -208 l 689 97 l 733 97 z "},"Ң":{"ha":954,"x_min":133,"x_max":849,"o":"m 133 986 l 178 986 l 178 514 l 165 526 l 772 526 l 761 514 l 761 986 l 806 986 l 806 0 l 761 0 l 761 499 l 772 485 l 165 485 l 178 499 l 178 0 l 133 0 l 133 986 m 849 97 l 849 -208 l 804 -208 l 804 97 l 849 97 z "},"Ү":{"ha":824,"x_min":33,"x_max":790,"o":"m 86 986 l 413 446 l 739 986 l 790 986 l 435 403 l 435 0 l 390 0 l 390 403 l 33 986 l 86 986 z "},"Ұ":{"ha":824,"x_min":33,"x_max":790,"o":"m 86 986 l 413 446 l 739 986 l 790 986 l 435 403 l 435 0 l 390 0 l 390 403 l 33 986 l 86 986 m 679 435 l 679 393 l 146 393 l 146 435 l 679 435 z "},"Ҳ":{"ha":865,"x_min":42,"x_max":824,"o":"m 807 986 l 460 496 l 817 0 l 763 0 l 429 461 l 96 0 l 42 0 l 399 496 l 51 986 l 106 986 l 429 531 l 753 986 l 807 986 m 824 97 l 824 -208 l 779 -208 l 779 97 l 824 97 z "},"Ҷ":{"ha":843,"x_min":69,"x_max":738,"o":"m 650 0 l 650 549 l 656 549 q 610 439 651 489 q 500 360 568 389 q 353 331 432 331 q 143 407 217 331 q 69 624 69 483 l 69 986 l 114 986 l 114 624 q 176 438 114 503 q 353 374 238 374 q 507 408 439 374 q 613 503 575 442 q 650 643 650 565 l 650 986 l 694 986 l 694 0 l 650 0 m 738 97 l 738 -208 l 693 -208 l 693 97 l 738 97 z "},"Һ":{"ha":828,"x_min":133,"x_max":758,"o":"m 178 986 l 178 438 l 172 438 q 218 547 176 497 q 328 626 260 597 q 475 656 396 656 q 685 579 611 656 q 758 363 758 503 l 758 0 l 714 0 l 714 363 q 652 548 714 483 q 475 613 590 613 q 321 578 389 613 q 215 483 253 544 q 178 343 178 421 l 178 0 l 133 0 l 133 986 l 178 986 z "},"Ӏ":{"ha":311,"x_min":133,"x_max":178,"o":"m 178 986 l 178 0 l 133 0 l 133 986 l 178 986 z "},"Ә":{"ha":974,"x_min":69,"x_max":904,"o":"m 858 507 q 809 744 857 640 q 678 906 761 847 q 488 964 594 964 q 281 895 376 964 q 144 717 185 826 l 97 721 q 183 869 124 804 q 322 972 242 935 q 488 1008 401 1008 q 703 943 608 1008 q 851 760 799 878 q 904 494 904 643 q 851 227 904 344 q 703 44 799 110 q 488 -21 608 -21 q 272 44 367 -21 q 123 227 176 110 q 69 494 69 344 l 69 507 l 858 507 m 488 24 q 674 79 592 24 q 804 235 756 135 q 858 465 853 336 l 117 465 q 171 235 122 336 q 301 79 219 135 q 488 24 383 24 z "},"Ӣ":{"ha":988,"x_min":133,"x_max":854,"o":"m 789 986 l 178 44 l 178 986 l 133 986 l 133 0 l 199 0 l 810 942 l 810 0 l 854 0 l 854 986 l 789 986 m 657 1182 l 657 1140 l 329 1140 l 329 1182 l 657 1182 z "},"Ө":{"ha":992,"x_min":69,"x_max":922,"o":"m 496 -22 q 269 40 365 -22 q 121 219 172 103 q 69 492 69 335 q 121 767 69 650 q 269 946 172 883 q 496 1008 365 1008 q 723 946 626 1008 q 871 767 819 883 q 922 492 922 650 q 871 219 922 335 q 723 40 819 103 q 496 -22 626 -22 m 496 22 q 698 79 613 22 q 829 242 783 136 q 875 492 875 349 q 829 742 875 636 q 698 906 783 849 q 496 964 613 964 q 294 906 379 964 q 163 742 208 849 q 117 492 117 636 q 163 242 117 349 q 294 79 208 136 q 496 22 379 22 m 889 514 l 889 472 l 103 472 l 103 514 l 889 514 z "},"Ӯ":{"ha":696,"x_min":33,"x_max":663,"o":"m 81 986 l 358 293 l 615 986 l 663 986 l 340 126 q 275 31 317 61 q 171 0 233 0 l 117 0 l 117 42 l 171 42 q 253 67 222 42 q 307 154 285 93 l 347 264 l 324 264 l 33 986 l 81 986 m 522 1182 l 522 1140 l 194 1140 l 194 1182 l 522 1182 z "},"а":{"ha":765,"x_min":69,"x_max":717,"o":"m 82 518 q 172 692 100 631 q 358 753 244 753 q 563 676 494 753 q 631 444 631 599 l 631 125 q 645 61 631 81 q 692 42 660 42 l 717 42 l 717 0 l 692 0 l 676 0 q 607 41 631 4 q 589 160 583 78 q 478 31 551 76 q 310 -17 404 -14 q 135 40 200 -15 q 69 182 69 94 q 104 286 69 244 q 194 351 139 328 q 322 389 250 375 l 586 438 q 532 646 586 581 q 358 711 478 711 q 203 660 263 711 q 128 514 143 608 l 82 518 m 114 182 q 172 63 114 107 q 325 25 229 19 q 464 65 403 28 q 558 165 525 103 q 590 304 592 228 l 589 399 l 367 357 q 339 351 353 354 q 224 319 272 338 q 144 268 175 301 q 114 182 114 235 z "},"б":{"ha":785,"x_min":67,"x_max":715,"o":"m 125 328 q 162 484 125 415 q 263 592 199 553 q 407 631 326 631 q 544 592 483 631 q 638 484 604 553 q 671 328 671 415 q 636 169 671 239 q 540 59 601 99 q 400 19 478 19 q 255 59 318 19 q 158 169 192 99 q 125 328 124 239 m 335 846 q 456 941 422 889 q 489 1057 489 993 l 446 1056 q 419 960 446 1003 q 313 878 392 918 q 175 776 231 836 q 93 632 119 717 q 71 435 67 547 q 95 245 75 328 q 149 114 115 163 q 258 13 194 49 q 394 -22 322 -22 q 560 22 488 -22 q 674 147 633 67 q 715 328 715 226 q 677 506 715 428 q 571 628 639 585 q 415 672 503 672 q 275 641 340 672 q 166 554 210 610 q 108 428 122 499 q 122 594 101 518 q 189 730 143 671 q 303 829 235 789 q 335 846 319 838 z "},"в":{"ha":782,"x_min":118,"x_max":678,"o":"m 118 736 l 396 736 q 579 685 511 736 q 647 546 647 633 q 592 422 647 468 q 444 376 538 376 l 444 382 q 615 335 551 382 q 678 208 678 289 q 613 56 678 113 q 436 0 547 0 l 118 0 l 118 736 m 436 42 q 580 87 526 42 q 633 208 633 132 q 580 317 633 276 q 436 357 526 357 l 160 357 l 160 42 l 436 42 m 397 399 q 547 438 492 399 q 603 546 603 478 q 547 654 603 614 q 397 694 492 694 l 160 694 l 160 399 l 397 399 z "},"г":{"ha":635,"x_min":118,"x_max":579,"o":"m 579 736 l 579 694 l 150 694 l 160 722 l 160 0 l 118 0 l 118 736 l 579 736 z "},"ѓ":{"ha":635,"x_min":118,"x_max":579,"o":"m 579 736 l 579 694 l 150 694 l 160 722 l 160 0 l 118 0 l 118 736 l 579 736 m 365 853 l 329 853 l 429 1019 l 476 1019 l 365 853 z "},"ґ":{"ha":568,"x_min":118,"x_max":535,"o":"m 535 736 l 535 694 l 160 694 l 160 0 l 118 0 l 118 736 l 535 736 m 535 951 l 535 700 l 493 700 l 493 951 l 535 951 z "},"ғ":{"ha":710,"x_min":90,"x_max":640,"o":"m 640 736 l 640 694 l 211 694 l 221 722 l 221 0 l 179 0 l 179 736 l 640 736 m 488 408 l 488 367 l 90 367 l 90 408 l 488 408 z "},"д":{"ha":904,"x_min":56,"x_max":849,"o":"m 728 0 l 686 0 l 686 694 l 329 694 l 264 225 q 197 60 250 121 q 69 0 144 0 l 56 0 l 56 42 l 69 42 q 169 94 128 42 q 224 236 211 147 l 290 736 l 728 736 l 728 0 m 829 42 l 829 0 l 56 0 l 56 42 l 829 42 m 849 42 l 847 -208 l 806 -208 l 807 42 l 849 42 m 97 42 l 97 -208 l 56 -208 l 56 42 l 97 42 z "},"е":{"ha":764,"x_min":69,"x_max":694,"o":"m 69 368 q 105 563 69 475 q 211 701 140 650 q 382 753 282 753 q 553 701 482 753 q 659 563 624 650 q 694 368 694 475 l 694 358 l 114 358 q 188 115 115 204 q 382 25 261 25 q 531 72 465 25 q 628 201 597 119 l 674 199 q 563 42 642 100 q 382 -17 483 -17 q 211 35 282 -17 q 105 174 140 86 q 69 368 69 261 m 649 400 q 570 628 642 544 q 382 711 499 711 q 194 628 265 711 q 115 400 122 544 l 649 400 z "},"ѐ":{"ha":764,"x_min":69,"x_max":694,"o":"m 69 368 q 105 563 69 475 q 211 701 140 650 q 382 753 282 753 q 553 701 482 753 q 659 563 624 650 q 694 368 694 475 l 694 358 l 114 358 q 188 115 115 204 q 382 25 261 25 q 531 72 465 25 q 628 201 597 119 l 674 199 q 563 42 642 100 q 382 -17 483 -17 q 211 35 282 -17 q 105 174 140 86 q 69 368 69 261 m 649 400 q 570 628 642 544 q 382 711 499 711 q 194 628 265 711 q 115 400 122 544 l 649 400 m 300 1019 l 400 853 l 364 853 l 253 1019 l 300 1019 z "},"ё":{"ha":764,"x_min":69,"x_max":694,"o":"m 69 368 q 105 563 69 475 q 211 701 140 650 q 382 753 282 753 q 553 701 482 753 q 659 563 624 650 q 694 368 694 475 l 694 358 l 114 358 q 188 115 115 204 q 382 25 261 25 q 531 72 465 25 q 628 201 597 119 l 674 199 q 563 42 642 100 q 382 -17 483 -17 q 211 35 282 -17 q 105 174 140 86 q 69 368 69 261 m 649 400 q 570 628 642 544 q 382 711 499 711 q 194 628 265 711 q 115 400 122 544 l 649 400 z "},"ж":{"ha":1039,"x_min":68,"x_max":971,"o":"m 540 736 l 540 0 l 499 0 l 499 736 l 540 736 m 957 736 l 590 368 l 533 368 l 900 736 l 957 736 m 533 368 l 590 368 l 971 0 l 914 0 l 533 368 m 506 368 l 449 368 l 82 736 l 139 736 l 506 368 m 68 0 l 449 368 l 506 368 l 125 0 l 68 0 z "},"з":{"ha":663,"x_min":69,"x_max":593,"o":"m 332 415 q 472 449 421 413 q 524 550 524 485 q 470 667 524 622 q 329 711 417 711 q 199 669 249 711 q 140 554 149 626 l 96 558 q 169 701 107 649 q 329 753 231 753 q 503 697 438 753 q 568 550 568 642 q 519 442 568 485 q 379 386 469 400 l 381 404 q 538 336 482 390 q 593 200 593 282 q 520 42 593 100 q 325 -17 447 -17 q 146 46 217 -17 q 69 208 75 108 l 114 211 q 177 75 121 125 q 325 25 233 25 q 488 73 426 25 q 549 201 549 121 q 490 332 549 285 q 332 376 432 379 l 256 374 l 256 418 l 332 415 z "},"и":{"ha":756,"x_min":118,"x_max":638,"o":"m 638 0 l 596 0 l 596 690 l 175 0 l 118 0 l 118 736 l 160 736 l 160 51 l 576 736 l 638 736 l 638 0 z "},"й":{"ha":756,"x_min":118,"x_max":638,"o":"m 638 0 l 596 0 l 596 690 l 175 0 l 118 0 l 118 736 l 160 736 l 160 51 l 576 736 l 638 736 l 638 0 m 251 1003 q 295 937 260 963 q 378 911 331 911 q 460 937 425 911 q 504 1003 496 963 l 550 1003 q 522 933 544 964 q 461 886 499 903 q 378 869 424 869 q 294 886 332 869 q 234 933 257 903 q 206 1003 211 964 l 251 1003 z "},"ѝ":{"ha":756,"x_min":118,"x_max":638,"o":"m 638 0 l 596 0 l 596 690 l 175 0 l 118 0 l 118 736 l 160 736 l 160 51 l 576 736 l 638 736 l 638 0 m 296 1019 l 396 853 l 360 853 l 249 1019 l 296 1019 z "},"к":{"ha":744,"x_min":118,"x_max":676,"o":"m 160 736 l 160 0 l 118 0 l 118 736 l 160 736 m 661 736 l 218 368 l 156 368 l 594 736 l 661 736 m 156 368 l 218 368 l 676 0 l 608 0 l 156 368 z "},"ќ":{"ha":744,"x_min":118,"x_max":676,"o":"m 160 736 l 160 0 l 118 0 l 118 736 l 160 736 m 661 736 l 218 368 l 156 368 l 594 736 l 661 736 m 156 368 l 218 368 l 676 0 l 608 0 l 156 368 m 385 853 l 349 853 l 449 1019 l 496 1019 l 385 853 z "},"л":{"ha":846,"x_min":90,"x_max":728,"o":"m 728 0 l 686 0 l 686 694 l 332 694 l 286 197 q 239 53 278 107 q 140 0 200 0 l 90 0 l 90 42 l 140 42 q 208 81 179 42 q 243 182 238 121 l 294 736 l 728 736 l 728 0 z "},"м":{"ha":957,"x_min":118,"x_max":839,"o":"m 169 736 l 479 43 l 788 736 l 839 736 l 839 0 l 797 0 l 797 656 l 501 0 l 456 0 l 160 656 l 160 0 l 118 0 l 118 736 l 169 736 z "},"н":{"ha":763,"x_min":118,"x_max":644,"o":"m 160 736 l 160 0 l 118 0 l 118 736 l 160 736 m 644 736 l 644 0 l 603 0 l 603 736 l 644 736 m 629 346 l 133 346 l 133 388 l 629 388 l 629 346 z "},"о":{"ha":764,"x_min":69,"x_max":694,"o":"m 382 -17 q 217 31 288 -17 q 108 165 146 78 q 69 368 69 251 q 108 572 69 485 q 217 706 146 658 q 382 753 288 753 q 547 706 476 753 q 656 572 618 658 q 694 368 694 485 q 656 165 694 251 q 547 31 618 78 q 382 -17 476 -17 m 382 25 q 578 117 506 25 q 650 368 650 210 q 578 619 650 526 q 382 711 506 711 q 186 619 258 711 q 114 368 114 526 q 186 117 114 210 q 382 25 258 25 z "},"п":{"ha":764,"x_min":118,"x_max":646,"o":"m 646 0 l 604 0 l 604 694 l 160 694 l 160 0 l 118 0 l 118 736 l 646 736 l 646 0 z "},"р":{"ha":792,"x_min":118,"x_max":722,"o":"m 118 736 l 149 736 l 154 493 l 138 510 q 244 686 168 619 q 415 753 321 753 q 578 706 508 753 q 685 572 647 658 q 722 368 722 485 q 685 167 722 253 q 578 34 647 81 q 415 -12 508 -12 q 297 18 354 -12 q 199 101 239 49 q 149 219 160 154 l 160 240 l 160 -208 l 118 -208 l 118 736 m 156 368 q 190 197 156 275 q 284 74 225 119 q 415 29 343 29 q 607 121 536 29 q 678 368 678 213 q 607 619 678 526 q 415 713 536 713 q 284 667 343 713 q 190 542 225 621 q 156 368 156 463 z "},"с":{"ha":738,"x_min":69,"x_max":682,"o":"m 632 504 q 539 656 604 601 q 382 711 474 711 q 186 619 258 711 q 114 368 114 526 q 186 117 114 210 q 382 25 258 25 q 544 85 476 25 q 636 247 611 144 l 682 243 q 626 107 665 165 q 525 16 586 49 q 382 -17 464 -17 q 211 35 282 -17 q 105 174 140 86 q 69 368 69 261 q 105 563 69 475 q 211 701 140 650 q 382 753 282 753 q 521 722 461 753 q 620 637 581 692 q 678 507 660 582 l 632 504 z "},"т":{"ha":733,"x_min":69,"x_max":664,"o":"m 664 694 l 388 694 l 388 0 l 346 0 l 346 694 l 69 694 l 69 736 l 664 736 l 664 694 z "},"у":{"ha":690,"x_min":33,"x_max":657,"o":"m 78 736 l 356 43 l 613 736 l 657 736 l 346 -93 q 284 -181 322 -154 q 182 -208 246 -208 l 128 -208 l 128 -171 l 183 -171 q 265 -147 238 -171 q 319 -54 292 -124 l 346 14 l 324 14 l 33 736 l 78 736 z "},"ў":{"ha":690,"x_min":33,"x_max":657,"o":"m 78 736 l 356 43 l 613 736 l 657 736 l 346 -93 q 284 -181 322 -154 q 182 -208 246 -208 l 128 -208 l 128 -171 l 183 -171 q 265 -147 238 -171 q 319 -54 292 -124 l 346 14 l 324 14 l 33 736 l 78 736 z "},"ф":{"ha":853,"x_min":69,"x_max":783,"o":"m 69 372 q 113 551 69 475 q 238 669 157 628 q 426 710 318 710 q 615 669 535 710 q 740 551 696 628 q 783 372 783 475 q 740 193 783 269 q 615 76 696 117 q 426 35 535 35 q 238 76 318 35 q 113 193 157 117 q 69 372 69 269 m 114 372 q 198 156 114 236 q 426 76 282 76 q 655 156 571 76 q 739 372 739 236 q 655 588 739 508 q 426 668 571 668 q 198 588 282 668 q 114 372 114 508 m 450 986 l 450 -208 l 406 -208 l 406 986 l 450 986 z "},"х":{"ha":744,"x_min":68,"x_max":676,"o":"m 667 736 l 403 369 l 676 0 l 625 0 l 372 344 l 119 0 l 68 0 l 342 369 l 78 736 l 129 736 l 372 396 l 615 736 l 667 736 z "},"ч":{"ha":792,"x_min":118,"x_max":674,"o":"m 632 0 l 632 438 l 635 438 q 590 328 631 378 q 488 249 550 278 q 360 219 426 219 q 183 299 249 219 q 118 513 118 378 l 118 736 l 160 736 l 160 513 q 215 329 160 397 q 360 261 269 261 q 496 296 433 261 q 595 392 558 331 q 632 532 632 454 l 632 736 l 674 736 l 674 0 l 632 0 z "},"ц":{"ha":831,"x_min":118,"x_max":726,"o":"m 118 0 l 118 736 l 160 736 l 160 42 l 604 42 l 604 736 l 646 736 l 646 0 l 118 0 m 726 42 l 726 -208 l 685 -208 l 685 42 l 726 42 m 726 42 l 726 0 l 563 0 l 563 42 l 726 42 z "},"ш":{"ha":1063,"x_min":118,"x_max":944,"o":"m 118 736 l 160 736 l 160 0 l 118 0 l 118 736 m 903 736 l 944 736 l 944 0 l 903 0 l 903 736 m 511 736 l 553 736 l 553 0 l 511 0 l 511 736 m 118 42 l 944 42 l 944 0 l 118 0 l 118 42 z "},"щ":{"ha":1122,"x_min":118,"x_max":1032,"o":"m 118 736 l 160 736 l 160 0 l 118 0 l 118 736 m 903 736 l 944 736 l 944 0 l 903 0 l 903 736 m 511 736 l 553 736 l 553 0 l 511 0 l 511 736 m 118 42 l 944 42 l 944 0 l 118 0 l 118 42 m 1032 42 l 1032 -208 l 990 -208 l 990 42 l 1032 42 m 1032 42 l 1032 0 l 868 0 l 868 42 l 1032 42 z "},"џ":{"ha":764,"x_min":118,"x_max":646,"o":"m 118 0 l 118 736 l 160 736 l 160 42 l 604 42 l 604 736 l 646 736 l 646 0 l 118 0 m 403 26 l 403 -208 l 361 -208 l 361 26 l 403 26 z "},"ь":{"ha":767,"x_min":118,"x_max":697,"o":"m 118 736 l 160 736 l 160 451 l 375 451 q 614 393 531 451 q 697 226 697 335 q 614 58 697 117 q 375 0 531 0 l 118 0 l 118 736 m 160 44 l 375 44 q 581 92 508 44 q 653 226 653 139 q 581 363 653 315 q 375 410 508 410 l 160 410 l 160 44 z "},"ы":{"ha":994,"x_min":118,"x_max":876,"o":"m 118 736 l 160 736 l 160 451 l 375 451 q 614 393 531 451 q 697 226 697 335 q 614 58 697 117 q 375 0 531 0 l 118 0 l 118 736 m 160 44 l 375 44 q 581 92 508 44 q 653 226 653 139 q 581 363 653 315 q 375 410 508 410 l 160 410 l 160 44 m 876 736 l 876 0 l 835 0 l 835 736 l 876 736 z "},"ъ":{"ha":836,"x_min":90,"x_max":767,"o":"m 188 736 l 229 736 l 229 451 l 444 451 q 683 393 600 451 q 767 226 767 335 q 683 58 767 117 q 444 0 600 0 l 188 0 l 188 736 m 229 44 l 444 44 q 650 92 578 44 q 722 226 722 139 q 650 363 722 315 q 444 410 578 410 l 229 410 l 229 44 m 214 736 l 214 694 l 90 694 l 90 736 l 214 736 z "},"љ":{"ha":1349,"x_min":90,"x_max":1279,"o":"m 700 736 l 742 736 l 742 451 l 957 451 q 1196 393 1113 451 q 1279 226 1279 335 q 1196 58 1279 117 q 957 0 1113 0 l 700 0 l 700 736 m 742 44 l 957 44 q 1163 92 1090 44 q 1235 226 1235 139 q 1163 363 1235 315 q 957 410 1090 410 l 742 410 l 742 44 m 728 0 l 686 0 l 686 694 l 332 694 l 286 197 q 239 53 278 107 q 140 0 200 0 l 90 0 l 90 42 l 140 42 q 208 81 179 42 q 243 182 238 121 l 294 736 l 728 736 l 728 0 z "},"њ":{"ha":1251,"x_min":118,"x_max":1182,"o":"m 603 736 l 644 736 l 644 451 l 860 451 q 1099 393 1015 451 q 1182 226 1182 335 q 1099 58 1182 117 q 860 0 1015 0 l 603 0 l 603 736 m 644 44 l 860 44 q 1065 92 993 44 q 1138 226 1138 139 q 1065 363 1138 315 q 860 410 993 410 l 644 410 l 644 44 m 160 736 l 160 0 l 118 0 l 118 736 l 160 736 m 629 410 l 133 410 l 133 451 l 629 451 l 629 410 z "},"ѕ":{"ha":706,"x_min":69,"x_max":636,"o":"m 572 526 q 495 661 558 611 q 338 711 432 711 q 190 665 246 711 q 139 544 135 618 q 193 449 142 488 q 365 378 244 411 q 519 328 461 354 q 607 266 578 301 q 636 181 636 231 q 603 75 636 119 q 508 7 569 31 q 363 -17 446 -17 q 215 14 282 -17 q 109 98 149 44 q 69 215 69 151 l 113 221 q 146 122 113 167 q 236 51 179 76 q 363 25 293 25 q 531 65 471 25 q 592 181 592 104 q 563 252 592 224 q 492 297 533 281 q 388 329 451 313 q 344 342 367 336 q 203 396 257 368 q 123 460 150 424 q 94 544 96 496 q 124 652 92 604 q 215 726 156 700 q 350 753 274 753 q 526 692 451 753 q 615 535 600 631 l 572 526 z "},"є":{"ha":751,"x_min":69,"x_max":682,"o":"m 635 238 q 542 81 608 136 q 382 25 476 25 q 186 117 258 25 q 114 368 114 210 q 186 619 114 526 q 382 711 258 711 q 544 654 478 711 q 636 496 611 597 l 682 496 q 576 685 654 617 q 382 753 497 753 q 217 706 288 753 q 108 572 146 658 q 69 368 69 485 q 108 165 69 251 q 217 31 146 78 q 382 -17 288 -17 q 575 51 497 -17 q 681 238 653 118 l 635 238 m 81 389 l 81 347 l 388 347 l 388 389 l 81 389 z "},"э":{"ha":751,"x_min":69,"x_max":682,"o":"m 117 238 q 209 81 143 136 q 369 25 275 25 q 565 117 493 25 q 638 368 638 210 q 565 619 638 526 q 369 711 493 711 q 207 654 274 711 q 115 496 140 597 l 69 496 q 176 685 97 617 q 369 753 254 753 q 535 706 464 753 q 644 572 606 658 q 682 368 682 485 q 644 165 682 251 q 535 31 606 78 q 369 -17 464 -17 q 176 51 254 -17 q 71 238 99 118 l 117 238 m 671 389 l 671 347 l 364 347 l 364 389 l 671 389 z "},"і":{"ha":278,"x_min":115,"x_max":163,"o":"m 160 736 l 160 0 l 118 0 l 118 736 l 160 736 m 163 953 l 163 856 l 115 856 l 115 953 l 163 953 z "},"ї":{"ha":278,"x_min":26,"x_max":250,"o":"m 160 736 l 160 0 l 118 0 l 118 736 l 160 736 z "},"ј":{"ha":319,"x_min":-7,"x_max":204,"o":"m 201 -4 q 162 -162 201 -115 q 29 -208 122 -208 l -7 -208 l -7 -171 l 29 -171 q 111 -156 83 -171 q 149 -105 139 -140 q 160 -4 160 -69 l 160 736 l 201 736 l 201 -4 m 204 953 l 204 856 l 157 856 l 157 953 l 204 953 z "},"ћ":{"ha":800,"x_min":90,"x_max":710,"o":"m 215 986 l 215 535 l 210 535 q 289 698 217 643 q 468 753 361 753 q 647 674 583 753 q 710 474 710 596 l 710 0 l 668 0 l 668 440 q 617 639 668 567 q 457 711 565 711 q 279 636 343 711 q 215 440 215 561 l 215 0 l 174 0 l 174 986 l 215 986 m 429 883 l 429 842 l 90 842 l 90 883 l 429 883 z "},"ю":{"ha":993,"x_min":118,"x_max":924,"o":"m 611 -17 q 446 31 517 -17 q 337 165 375 78 q 299 368 299 251 q 337 572 299 485 q 446 706 375 658 q 611 753 517 753 q 776 706 706 753 q 885 572 847 658 q 924 368 924 485 q 885 165 924 251 q 776 31 847 78 q 611 -17 706 -17 m 611 25 q 807 117 735 25 q 879 368 879 210 q 807 619 879 526 q 611 711 735 711 q 415 619 488 711 q 343 368 343 526 q 415 117 343 210 q 611 25 488 25 m 160 736 l 160 0 l 118 0 l 118 736 l 160 736 m 319 347 l 128 347 l 128 389 l 319 389 l 319 347 z "},"я":{"ha":778,"x_min":118,"x_max":660,"o":"m 660 0 l 618 0 l 618 285 l 335 285 l 167 0 l 118 0 l 293 297 q 172 379 214 324 q 129 514 129 435 q 199 678 129 621 q 396 736 268 736 l 660 736 l 660 0 m 171 511 q 229 374 171 422 q 396 326 288 326 l 618 326 l 618 694 l 396 694 q 229 647 288 694 q 171 511 171 600 z "},"ђ":{"ha":828,"x_min":90,"x_max":710,"o":"m 215 986 l 215 535 l 210 535 q 289 698 217 643 q 468 753 361 753 q 647 674 583 753 q 710 474 710 596 l 710 0 l 668 0 l 668 440 q 617 639 668 567 q 457 711 565 711 q 279 636 343 711 q 215 440 215 561 l 215 0 l 174 0 l 174 986 l 215 986 m 429 883 l 429 842 l 90 842 l 90 883 l 429 883 m 710 -4 q 670 -162 710 -115 q 538 -208 631 -208 l 501 -208 l 501 -171 l 538 -171 q 619 -156 592 -171 q 658 -105 647 -140 q 668 -4 668 -69 l 668 361 l 710 361 l 710 -4 z "},"ѣ":{"ha":901,"x_min":90,"x_max":832,"o":"m 253 986 l 294 986 l 294 493 l 510 493 q 749 429 665 493 q 832 246 832 365 q 749 64 832 128 q 510 0 665 0 l 253 0 l 253 986 m 294 44 l 510 44 q 715 97 643 44 q 788 246 788 149 q 715 398 788 344 q 510 451 643 451 l 294 451 l 294 44 m 458 778 l 458 736 l 90 736 l 90 778 l 458 778 z "},"ѫ":{"ha":932,"x_min":68,"x_max":864,"o":"m 556 376 q 663 351 617 376 q 732 278 710 325 l 864 0 l 818 0 l 704 246 q 647 314 682 293 q 557 335 613 335 l 376 335 q 284 314 319 335 q 226 246 249 293 l 114 0 l 68 0 l 200 278 q 269 351 222 325 q 376 376 315 376 l 556 376 m 488 376 l 488 0 l 446 0 l 446 376 l 488 376 m 797 736 l 797 694 l 136 694 l 136 736 l 797 736 m 189 694 l 508 335 l 456 335 l 136 694 l 189 694 m 478 335 l 425 335 l 744 694 l 797 694 l 478 335 z "},"ѳ":{"ha":764,"x_min":69,"x_max":694,"o":"m 382 -17 q 217 31 288 -17 q 108 165 146 78 q 69 368 69 251 q 108 572 69 485 q 217 706 146 658 q 382 753 288 753 q 547 706 476 753 q 656 572 618 658 q 694 368 694 485 q 656 165 694 251 q 547 31 618 78 q 382 -17 476 -17 m 382 25 q 578 117 506 25 q 650 368 650 210 q 578 619 650 526 q 382 711 506 711 q 186 619 258 711 q 114 368 114 526 q 186 117 114 210 q 382 25 258 25 m 89 411 q 133 421 107 417 q 231 422 175 426 q 335 401 288 417 q 467 361 426 372 q 531 348 507 350 q 589 351 556 346 q 631 360 611 354 q 668 375 650 365 l 672 332 q 596 310 636 317 q 506 313 553 304 q 342 357 458 321 q 236 380 290 374 q 142 379 182 386 q 117 375 129 378 q 93 368 104 372 l 89 411 z "},"ѵ":{"ha":764,"x_min":33,"x_max":731,"o":"m 731 694 l 713 694 q 633 669 664 694 q 579 582 601 643 l 361 0 l 308 0 l 33 736 l 78 736 l 335 43 l 544 608 q 609 704 567 672 q 713 736 651 736 l 731 736 l 731 694 z "},"җ":{"ha":1047,"x_min":68,"x_max":979,"o":"m 540 736 l 540 0 l 499 0 l 499 736 l 540 736 m 957 736 l 590 368 l 533 368 l 900 736 l 957 736 m 533 368 l 590 368 l 971 0 l 914 0 l 533 368 m 506 368 l 449 368 l 82 736 l 139 736 l 506 368 m 68 0 l 449 368 l 506 368 l 125 0 l 68 0 m 979 103 l 979 -208 l 938 -208 l 938 103 l 979 103 z "},"қ":{"ha":750,"x_min":118,"x_max":682,"o":"m 160 736 l 160 0 l 118 0 l 118 736 l 160 736 m 661 736 l 218 368 l 156 368 l 594 736 l 661 736 m 156 368 l 218 368 l 676 0 l 608 0 l 156 368 m 682 103 l 682 -208 l 640 -208 l 640 103 l 682 103 z "},"ң":{"ha":804,"x_min":118,"x_max":686,"o":"m 160 736 l 160 0 l 118 0 l 118 736 l 160 736 m 644 736 l 644 0 l 603 0 l 603 736 l 644 736 m 629 346 l 133 346 l 133 388 l 629 388 l 629 346 m 686 103 l 686 -208 l 644 -208 l 644 103 l 686 103 z "},"ү":{"ha":669,"x_min":33,"x_max":636,"o":"m 356 0 l 314 0 l 33 736 l 78 736 l 335 56 l 592 736 l 636 736 l 356 0 m 356 29 l 356 -208 l 314 -208 l 314 29 l 356 29 z "},"ұ":{"ha":669,"x_min":33,"x_max":636,"o":"m 356 0 l 314 0 l 33 736 l 78 736 l 335 56 l 592 736 l 636 736 l 356 0 m 356 29 l 356 -208 l 314 -208 l 314 29 l 356 29 m 543 21 l 543 -21 l 128 -21 l 128 21 l 543 21 z "},"ҳ":{"ha":754,"x_min":68,"x_max":686,"o":"m 667 736 l 403 369 l 676 0 l 625 0 l 372 344 l 119 0 l 68 0 l 342 369 l 78 736 l 129 736 l 372 396 l 615 736 l 667 736 m 686 103 l 686 -208 l 644 -208 l 644 103 l 686 103 z "},"ҷ":{"ha":811,"x_min":118,"x_max":714,"o":"m 632 0 l 632 438 l 635 438 q 590 328 631 378 q 488 249 550 278 q 360 219 426 219 q 183 299 249 219 q 118 513 118 378 l 118 736 l 160 736 l 160 513 q 215 329 160 397 q 360 261 269 261 q 496 296 433 261 q 595 392 558 331 q 632 532 632 454 l 632 736 l 674 736 l 674 0 l 632 0 m 714 103 l 714 -208 l 672 -208 l 672 103 l 714 103 z "},"һ":{"ha":772,"x_min":118,"x_max":654,"o":"m 160 986 l 160 535 l 154 535 q 233 698 161 643 q 413 753 306 753 q 591 674 528 753 q 654 474 654 596 l 654 0 l 613 0 l 613 440 q 561 639 613 567 q 401 711 510 711 q 224 636 288 711 q 160 440 160 561 l 160 0 l 118 0 l 118 986 l 160 986 z "},"ӏ":{"ha":308,"x_min":133,"x_max":175,"o":"m 175 986 l 175 0 l 133 0 l 133 986 l 175 986 z "},"ә":{"ha":764,"x_min":69,"x_max":694,"o":"m 694 368 q 659 174 694 261 q 553 35 624 86 q 382 -17 482 -17 q 211 35 282 -17 q 105 174 140 86 q 69 368 69 261 l 69 378 l 650 378 q 576 622 649 532 q 382 711 503 711 q 233 664 299 711 q 136 535 167 617 l 90 538 q 201 694 122 636 q 382 753 281 753 q 553 701 482 753 q 659 563 624 650 q 694 368 694 475 m 115 336 q 194 108 122 192 q 382 25 265 25 q 570 108 499 25 q 649 336 642 192 l 115 336 z "},"ӣ":{"ha":756,"x_min":118,"x_max":638,"o":"m 638 0 l 596 0 l 596 690 l 175 0 l 118 0 l 118 736 l 160 736 l 160 51 l 576 736 l 638 736 l 638 0 m 542 932 l 542 890 l 214 890 l 214 932 l 542 932 z "},"ө":{"ha":764,"x_min":69,"x_max":694,"o":"m 382 -17 q 217 31 288 -17 q 108 165 146 78 q 69 368 69 251 q 108 572 69 485 q 217 706 146 658 q 382 753 288 753 q 547 706 476 753 q 656 572 618 658 q 694 368 694 485 q 656 165 694 251 q 547 31 618 78 q 382 -17 476 -17 m 382 25 q 578 117 506 25 q 650 368 650 210 q 578 619 650 526 q 382 711 506 711 q 186 619 258 711 q 114 368 114 526 q 186 117 114 210 q 382 25 258 25 m 671 389 l 671 347 l 92 347 l 92 389 l 671 389 z "},"ӯ":{"ha":690,"x_min":33,"x_max":657,"o":"m 78 736 l 356 43 l 613 736 l 657 736 l 346 -93 q 284 -181 322 -154 q 182 -208 246 -208 l 128 -208 l 128 -171 l 183 -171 q 265 -147 238 -171 q 319 -54 292 -124 l 346 14 l 324 14 l 33 736 l 78 736 m 519 932 l 519 890 l 192 890 l 192 932 l 519 932 z "},"Λ":{"ha":850,"x_min":33,"x_max":817,"o":"m 79 0 l 33 0 l 399 986 l 451 986 l 817 0 l 771 0 l 425 942 l 79 0 z "},"Ω":{"ha":975,"x_min":69,"x_max":906,"o":"m 488 964 q 291 908 375 964 q 162 749 207 853 q 117 506 117 646 q 157 288 117 389 q 266 121 197 186 q 418 46 335 56 l 418 0 l 72 0 l 72 42 l 324 42 q 196 135 254 65 q 103 303 138 204 q 69 506 69 401 q 120 772 69 658 q 265 947 171 886 q 488 1008 360 1008 q 710 947 615 1008 q 855 772 804 886 q 906 506 906 658 q 872 303 906 401 q 779 135 838 204 q 651 42 721 65 l 903 42 l 903 0 l 557 0 l 557 46 q 709 121 640 56 q 818 288 778 186 q 858 506 858 389 q 813 749 858 646 q 684 908 768 853 q 488 964 600 964 z "},"λ":{"ha":749,"x_min":33,"x_max":715,"o":"m 696 0 q 626 12 650 0 q 590 47 603 24 q 560 121 578 69 q 536 186 549 154 l 293 800 q 233 914 260 883 q 157 944 207 944 l 110 944 l 110 986 l 157 986 q 232 968 203 986 q 285 911 261 950 q 336 800 308 872 l 581 181 l 593 144 q 624 69 608 96 q 665 42 639 42 l 715 42 l 715 0 l 696 0 m 349 697 l 78 0 l 33 0 l 321 736 l 349 697 z "},"π":{"ha":851,"x_min":83,"x_max":796,"o":"m 651 717 l 651 149 q 681 67 651 97 q 760 38 710 38 l 796 38 l 796 0 l 765 0 q 651 42 693 0 q 610 156 610 83 l 610 717 l 651 717 m 796 736 l 796 694 l 83 694 l 83 736 l 796 736 m 276 717 l 276 0 l 235 0 l 235 717 l 276 717 z "},"ℇ":{"ha":794,"x_min":69,"x_max":725,"o":"m 725 142 q 575 20 658 63 q 406 -22 492 -22 q 234 15 311 -22 q 113 119 157 53 q 69 271 69 186 q 104 399 69 340 q 202 498 139 458 q 344 549 265 538 l 344 517 q 171 597 239 531 q 103 751 103 664 q 140 885 103 826 q 244 976 178 943 q 394 1008 310 1008 q 560 967 481 1008 q 692 856 640 926 l 660 819 q 540 925 613 886 q 394 964 468 964 q 268 937 324 964 q 181 861 213 910 q 150 751 150 813 q 183 648 150 693 q 275 577 217 603 q 406 551 333 551 l 483 553 l 483 510 l 406 511 q 259 481 325 511 q 155 398 193 451 q 117 276 117 344 q 154 143 117 201 q 258 53 192 85 q 406 22 324 22 q 558 63 483 22 q 693 176 632 103 l 725 142 z "},"⓿":{"ha":1164,"x_min":69,"x_max":1094,"o":"m 582 206 q 474 241 519 206 q 403 341 428 276 q 378 493 378 406 q 403 647 378 581 q 474 748 428 713 q 582 783 519 783 q 690 748 644 783 q 761 647 736 713 q 786 493 786 581 q 761 341 786 406 q 690 241 736 276 q 582 206 644 206 m 419 493 q 454 326 419 393 l 686 694 q 582 743 646 743 q 463 676 507 743 q 419 493 419 608 m 478 293 q 582 246 518 246 q 701 313 657 246 q 744 493 744 379 q 710 661 744 596 l 478 293 m 582 -17 q 839 52 721 -17 q 1026 239 957 121 q 1094 497 1094 357 q 1026 753 1094 636 q 839 940 957 871 q 582 1008 721 1008 q 325 940 443 1008 q 138 753 207 871 q 69 497 69 636 q 138 239 69 357 q 325 52 207 121 q 582 -17 443 -17 z "},"❶":{"ha":1164,"x_min":69,"x_max":1094,"o":"m 582 -17 q 839 52 721 -17 q 1026 239 957 121 q 1094 497 1094 357 q 1026 753 1094 636 q 839 940 957 871 q 582 1008 721 1008 q 325 940 443 1008 q 138 753 207 871 q 69 497 69 636 q 138 239 69 357 q 325 52 207 121 q 582 -17 443 -17 m 463 649 q 558 677 526 649 q 589 763 589 706 l 619 763 l 619 224 l 578 224 l 578 618 l 444 618 l 444 649 l 463 649 z "},"❷":{"ha":1164,"x_min":69,"x_max":1094,"o":"m 582 -17 q 839 52 721 -17 q 1026 239 957 121 q 1094 497 1094 357 q 1026 753 1094 636 q 839 940 957 871 q 582 1008 721 1008 q 325 940 443 1008 q 138 753 207 871 q 69 497 69 636 q 138 239 69 357 q 325 52 207 121 q 582 -17 443 -17 m 408 604 q 469 732 418 685 q 596 779 519 779 q 715 735 669 779 q 761 624 761 692 q 730 542 761 578 q 631 461 699 506 l 592 436 q 488 352 532 399 q 446 261 444 306 l 765 261 l 765 222 l 399 222 q 432 345 399 292 q 563 463 465 399 l 607 492 l 608 493 q 690 556 661 528 q 719 624 719 585 q 686 709 719 678 q 596 740 653 740 q 501 704 539 740 q 450 600 463 668 l 408 604 z "},"❸":{"ha":1164,"x_min":69,"x_max":1094,"o":"m 582 -17 q 839 52 721 -17 q 1026 239 957 121 q 1094 497 1094 357 q 1026 753 1094 636 q 839 940 957 871 q 582 1008 721 1008 q 325 940 443 1008 q 138 753 207 871 q 69 497 69 636 q 138 239 69 357 q 325 52 207 121 q 582 -17 443 -17 m 579 533 q 674 565 635 533 q 713 640 713 596 q 674 715 713 683 q 585 746 636 746 q 497 717 535 746 q 454 646 460 688 l 410 651 q 469 747 418 708 q 585 785 519 785 q 705 742 656 785 q 754 640 754 700 q 724 563 754 599 q 650 514 694 528 q 739 459 703 499 q 775 369 775 419 q 751 285 775 322 q 683 226 726 247 q 586 206 640 206 q 488 225 532 206 q 419 280 444 244 q 390 361 393 315 l 433 365 q 482 278 439 313 q 586 244 525 244 q 692 280 650 244 q 733 369 733 315 q 688 458 733 421 q 579 494 643 494 l 551 494 l 551 533 l 579 533 z "},"❹":{"ha":1164,"x_min":69,"x_max":1094,"o":"m 582 -17 q 839 52 721 -17 q 1026 239 957 121 q 1094 497 1094 357 q 1026 753 1094 636 q 839 940 957 871 q 582 1008 721 1008 q 325 940 443 1008 q 138 753 207 871 q 69 497 69 636 q 138 239 69 357 q 325 52 207 121 q 582 -17 443 -17 m 669 394 l 744 394 l 744 356 l 669 356 l 669 224 l 628 224 l 628 356 l 338 356 l 338 381 l 626 763 l 669 763 l 669 394 m 628 394 l 628 701 l 399 394 l 628 394 z "},"❺":{"ha":1164,"x_min":69,"x_max":1094,"o":"m 582 -17 q 839 52 721 -17 q 1026 239 957 121 q 1094 497 1094 357 q 1026 753 1094 636 q 839 940 957 871 q 582 1008 721 1008 q 325 940 443 1008 q 138 753 207 871 q 69 497 69 636 q 138 239 69 357 q 325 52 207 121 q 582 -17 443 -17 m 733 725 l 490 725 l 461 500 q 513 559 475 535 q 592 583 550 583 q 678 559 640 583 q 736 492 715 535 q 757 393 757 449 q 734 297 757 340 q 671 227 711 253 q 582 201 631 201 q 465 246 515 201 q 408 356 415 290 l 453 360 q 493 274 457 307 q 589 240 529 240 q 678 285 642 240 q 715 393 715 329 q 680 502 715 460 q 589 544 644 544 q 513 521 546 544 q 457 450 479 497 l 414 450 l 457 764 l 733 764 l 733 725 z "},"❻":{"ha":1164,"x_min":69,"x_max":1094,"o":"m 582 -17 q 839 52 721 -17 q 1026 239 957 121 q 1094 497 1094 357 q 1026 753 1094 636 q 839 940 957 871 q 582 1008 721 1008 q 325 940 443 1008 q 138 753 207 871 q 69 497 69 636 q 138 239 69 357 q 325 52 207 121 q 582 -17 443 -17 m 724 646 q 675 717 706 692 q 599 743 644 743 q 520 710 556 743 q 462 619 485 676 q 436 490 439 561 q 502 565 458 535 q 592 594 546 594 q 681 569 640 594 q 746 499 722 543 q 769 401 769 454 q 717 260 769 315 q 583 206 665 206 q 485 238 528 206 q 419 329 443 271 q 394 461 394 388 q 422 622 394 549 q 496 739 449 696 q 599 782 543 782 q 705 745 660 782 q 767 651 750 708 l 724 646 m 444 401 q 485 290 443 336 q 588 244 526 244 q 688 290 647 244 q 728 401 728 336 q 688 511 728 467 q 592 556 649 556 q 488 511 531 556 q 444 401 446 467 z "},"❼":{"ha":1164,"x_min":69,"x_max":1094,"o":"m 582 -17 q 839 52 721 -17 q 1026 239 957 121 q 1094 497 1094 357 q 1026 753 1094 636 q 839 940 957 871 q 582 1008 721 1008 q 325 940 443 1008 q 138 753 207 871 q 69 497 69 636 q 138 239 69 357 q 325 52 207 121 q 582 -17 443 -17 m 767 763 l 767 724 q 631 485 681 619 q 582 224 582 350 l 538 224 q 590 482 538 347 q 729 724 642 617 l 397 724 l 397 763 l 767 763 z "},"❽":{"ha":1164,"x_min":69,"x_max":1094,"o":"m 582 -17 q 839 52 721 -17 q 1026 239 957 121 q 1094 497 1094 357 q 1026 753 1094 636 q 839 940 957 871 q 582 1008 721 1008 q 325 940 443 1008 q 138 753 207 871 q 69 497 69 636 q 138 239 69 357 q 325 52 207 121 q 582 -17 443 -17 m 582 206 q 441 251 496 206 q 386 369 386 297 q 419 458 386 417 q 506 518 453 500 q 439 565 465 531 q 413 640 413 599 q 460 742 413 703 q 582 782 507 782 q 704 742 657 782 q 751 640 751 703 q 725 565 751 599 q 658 518 699 531 q 744 458 711 499 q 778 369 778 417 q 723 251 778 297 q 582 206 668 206 m 428 369 q 471 279 428 314 q 582 244 514 244 q 693 279 650 244 q 736 369 736 314 q 693 463 736 426 q 582 499 650 499 q 471 463 514 499 q 428 369 428 426 m 454 640 q 490 567 454 596 q 582 538 526 538 q 674 567 638 538 q 710 640 710 596 q 674 714 710 685 q 582 743 638 743 q 490 714 526 743 q 454 640 454 685 z "},"❾":{"ha":1164,"x_min":69,"x_max":1094,"o":"m 582 -17 q 839 52 721 -17 q 1026 239 957 121 q 1094 497 1094 357 q 1026 753 1094 636 q 839 940 957 871 q 582 1008 721 1008 q 325 940 443 1008 q 138 753 207 871 q 69 497 69 636 q 138 239 69 357 q 325 52 207 121 q 582 -17 443 -17 m 440 342 q 494 272 457 299 q 572 244 531 244 q 682 313 640 244 q 728 497 724 381 q 663 423 706 453 q 572 393 619 393 q 483 419 524 393 q 418 489 442 444 q 394 586 394 533 q 447 727 394 672 q 581 782 499 782 q 678 749 636 782 q 745 658 721 717 q 769 526 769 600 q 745 356 769 429 q 676 244 721 283 q 572 206 632 206 q 463 242 513 206 q 397 336 414 279 l 440 342 m 719 586 q 679 697 721 651 q 576 743 638 743 q 476 697 517 743 q 436 586 436 651 q 476 476 436 521 q 572 432 515 432 q 676 476 633 432 q 719 586 718 521 z "},"⓪":{"ha":1164,"x_min":69,"x_max":1094,"o":"m 582 -17 q 325 52 443 -17 q 138 239 207 121 q 69 497 69 357 q 138 753 69 636 q 325 940 207 871 q 582 1008 443 1008 q 839 940 721 1008 q 1026 753 957 871 q 1094 497 1094 636 q 1026 239 1094 357 q 839 52 957 121 q 582 -17 721 -17 m 582 25 q 817 89 708 25 q 989 261 925 153 q 1053 497 1053 369 q 989 731 1053 624 q 817 903 925 839 q 582 967 708 967 q 347 903 456 967 q 175 731 239 839 q 111 497 111 624 q 175 261 111 369 q 347 89 239 153 q 582 25 456 25 m 582 206 q 474 241 519 206 q 403 341 428 276 q 378 493 378 406 q 403 647 378 581 q 474 748 428 713 q 582 783 519 783 q 690 748 644 783 q 761 647 736 713 q 786 493 786 581 q 761 341 786 406 q 690 241 736 276 q 582 206 644 206 m 419 493 q 454 326 419 393 l 686 694 q 582 743 646 743 q 463 676 507 743 q 419 493 419 608 m 478 293 q 582 246 518 246 q 701 313 657 246 q 744 493 744 379 q 710 661 744 596 l 478 293 z "},"①":{"ha":1164,"x_min":69,"x_max":1094,"o":"m 582 -17 q 325 52 443 -17 q 138 239 207 121 q 69 497 69 357 q 138 753 69 636 q 325 940 207 871 q 582 1008 443 1008 q 839 940 721 1008 q 1026 753 957 871 q 1094 497 1094 636 q 1026 239 1094 357 q 839 52 957 121 q 582 -17 721 -17 m 582 25 q 817 89 708 25 q 989 261 925 153 q 1053 497 1053 369 q 989 731 1053 624 q 817 903 925 839 q 582 967 708 967 q 347 903 456 967 q 175 731 239 839 q 111 497 111 624 q 175 261 111 369 q 347 89 239 153 q 582 25 456 25 m 461 649 q 556 677 525 649 q 588 763 588 706 l 618 763 l 618 224 l 576 224 l 576 618 l 443 618 l 443 649 l 461 649 z "},"②":{"ha":1164,"x_min":69,"x_max":1094,"o":"m 582 -17 q 325 52 443 -17 q 138 239 207 121 q 69 497 69 357 q 138 753 69 636 q 325 940 207 871 q 582 1008 443 1008 q 839 940 721 1008 q 1026 753 957 871 q 1094 497 1094 636 q 1026 239 1094 357 q 839 52 957 121 q 582 -17 721 -17 m 582 25 q 817 89 708 25 q 989 261 925 153 q 1053 497 1053 369 q 989 731 1053 624 q 817 903 925 839 q 582 967 708 967 q 347 903 456 967 q 175 731 239 839 q 111 497 111 624 q 175 261 111 369 q 347 89 239 153 q 582 25 456 25 m 408 604 q 469 732 418 685 q 596 779 519 779 q 715 735 669 779 q 761 624 761 692 q 730 542 761 578 q 631 461 699 506 l 592 436 q 488 352 532 399 q 446 261 444 306 l 765 261 l 765 222 l 399 222 q 432 345 399 292 q 563 463 465 399 l 607 492 l 608 493 q 690 556 661 528 q 719 624 719 585 q 686 709 719 678 q 596 740 653 740 q 501 704 539 740 q 450 600 463 668 l 408 604 z "},"③":{"ha":1164,"x_min":69,"x_max":1094,"o":"m 582 -17 q 325 52 443 -17 q 138 239 207 121 q 69 497 69 357 q 138 753 69 636 q 325 940 207 871 q 582 1008 443 1008 q 839 940 721 1008 q 1026 753 957 871 q 1094 497 1094 636 q 1026 239 1094 357 q 839 52 957 121 q 582 -17 721 -17 m 582 25 q 817 89 708 25 q 989 261 925 153 q 1053 497 1053 369 q 989 731 1053 624 q 817 903 925 839 q 582 967 708 967 q 347 903 456 967 q 175 731 239 839 q 111 497 111 624 q 175 261 111 369 q 347 89 239 153 q 582 25 456 25 m 579 533 q 674 565 635 533 q 713 640 713 596 q 674 715 713 683 q 585 746 636 746 q 497 717 535 746 q 454 646 460 688 l 410 651 q 469 747 418 708 q 585 785 519 785 q 705 742 656 785 q 754 640 754 700 q 724 563 754 599 q 650 514 694 528 q 739 459 703 499 q 775 369 775 419 q 751 285 775 322 q 683 226 726 247 q 586 206 640 206 q 488 225 532 206 q 419 280 444 244 q 390 361 393 315 l 433 365 q 482 278 439 313 q 586 244 525 244 q 692 280 650 244 q 733 369 733 315 q 688 458 733 421 q 579 494 643 494 l 551 494 l 551 533 l 579 533 z "},"④":{"ha":1164,"x_min":69,"x_max":1094,"o":"m 582 -17 q 325 52 443 -17 q 138 239 207 121 q 69 497 69 357 q 138 753 69 636 q 325 940 207 871 q 582 1008 443 1008 q 839 940 721 1008 q 1026 753 957 871 q 1094 497 1094 636 q 1026 239 1094 357 q 839 52 957 121 q 582 -17 721 -17 m 582 25 q 817 89 708 25 q 989 261 925 153 q 1053 497 1053 369 q 989 731 1053 624 q 817 903 925 839 q 582 967 708 967 q 347 903 456 967 q 175 731 239 839 q 111 497 111 624 q 175 261 111 369 q 347 89 239 153 q 582 25 456 25 m 669 394 l 744 394 l 744 356 l 669 356 l 669 224 l 628 224 l 628 356 l 338 356 l 338 381 l 626 763 l 669 763 l 669 394 m 628 394 l 628 701 l 399 394 l 628 394 z "},"⑤":{"ha":1164,"x_min":69,"x_max":1094,"o":"m 582 -17 q 325 52 443 -17 q 138 239 207 121 q 69 497 69 357 q 138 753 69 636 q 325 940 207 871 q 582 1008 443 1008 q 839 940 721 1008 q 1026 753 957 871 q 1094 497 1094 636 q 1026 239 1094 357 q 839 52 957 121 q 582 -17 721 -17 m 582 25 q 817 89 708 25 q 989 261 925 153 q 1053 497 1053 369 q 989 731 1053 624 q 817 903 925 839 q 582 967 708 967 q 347 903 456 967 q 175 731 239 839 q 111 497 111 624 q 175 261 111 369 q 347 89 239 153 q 582 25 456 25 m 733 725 l 490 725 l 461 500 q 513 559 475 535 q 592 583 550 583 q 678 559 640 583 q 736 492 715 535 q 757 393 757 449 q 734 297 757 340 q 671 227 711 253 q 582 201 631 201 q 465 246 515 201 q 408 356 415 290 l 453 360 q 493 274 457 307 q 589 240 529 240 q 678 285 642 240 q 715 393 715 329 q 680 502 715 460 q 589 544 644 544 q 513 521 546 544 q 457 450 479 497 l 414 450 l 457 764 l 733 764 l 733 725 z "},"⑥":{"ha":1164,"x_min":69,"x_max":1094,"o":"m 582 -17 q 325 52 443 -17 q 138 239 207 121 q 69 497 69 357 q 138 753 69 636 q 325 940 207 871 q 582 1008 443 1008 q 839 940 721 1008 q 1026 753 957 871 q 1094 497 1094 636 q 1026 239 1094 357 q 839 52 957 121 q 582 -17 721 -17 m 582 25 q 817 89 708 25 q 989 261 925 153 q 1053 497 1053 369 q 989 731 1053 624 q 817 903 925 839 q 582 967 708 967 q 347 903 456 967 q 175 731 239 839 q 111 497 111 624 q 175 261 111 369 q 347 89 239 153 q 582 25 456 25 m 724 646 q 675 717 706 692 q 599 743 644 743 q 520 710 556 743 q 462 619 485 676 q 436 490 439 561 q 502 565 458 535 q 592 594 546 594 q 681 569 640 594 q 746 499 722 543 q 769 401 769 454 q 717 260 769 315 q 583 206 665 206 q 485 238 528 206 q 419 329 443 271 q 394 461 394 388 q 422 622 394 549 q 496 739 449 696 q 599 782 543 782 q 705 745 660 782 q 767 651 750 708 l 724 646 m 444 401 q 485 290 443 336 q 588 244 526 244 q 688 290 647 244 q 728 401 728 336 q 688 511 728 467 q 592 556 649 556 q 488 511 531 556 q 444 401 446 467 z "},"⑦":{"ha":1164,"x_min":69,"x_max":1094,"o":"m 582 -17 q 325 52 443 -17 q 138 239 207 121 q 69 497 69 357 q 138 753 69 636 q 325 940 207 871 q 582 1008 443 1008 q 839 940 721 1008 q 1026 753 957 871 q 1094 497 1094 636 q 1026 239 1094 357 q 839 52 957 121 q 582 -17 721 -17 m 582 25 q 817 89 708 25 q 989 261 925 153 q 1053 497 1053 369 q 989 731 1053 624 q 817 903 925 839 q 582 967 708 967 q 347 903 456 967 q 175 731 239 839 q 111 497 111 624 q 175 261 111 369 q 347 89 239 153 q 582 25 456 25 m 767 763 l 767 724 q 631 485 681 619 q 582 224 582 350 l 538 224 q 590 482 538 347 q 729 724 642 617 l 397 724 l 397 763 l 767 763 z "},"⑧":{"ha":1164,"x_min":69,"x_max":1094,"o":"m 582 -17 q 325 52 443 -17 q 138 239 207 121 q 69 497 69 357 q 138 753 69 636 q 325 940 207 871 q 582 1008 443 1008 q 839 940 721 1008 q 1026 753 957 871 q 1094 497 1094 636 q 1026 239 1094 357 q 839 52 957 121 q 582 -17 721 -17 m 582 25 q 817 89 708 25 q 989 261 925 153 q 1053 497 1053 369 q 989 731 1053 624 q 817 903 925 839 q 582 967 708 967 q 347 903 456 967 q 175 731 239 839 q 111 497 111 624 q 175 261 111 369 q 347 89 239 153 q 582 25 456 25 m 582 206 q 441 251 496 206 q 386 369 386 297 q 419 458 386 417 q 506 518 453 500 q 439 565 465 531 q 413 640 413 599 q 460 742 413 703 q 582 782 507 782 q 704 742 657 782 q 751 640 751 703 q 725 565 751 599 q 658 518 699 531 q 744 458 711 499 q 778 369 778 417 q 723 251 778 297 q 582 206 668 206 m 428 369 q 471 279 428 314 q 582 244 514 244 q 693 279 650 244 q 736 369 736 314 q 693 463 736 426 q 582 499 650 499 q 471 463 514 499 q 428 369 428 426 m 454 640 q 490 567 454 596 q 582 538 526 538 q 674 567 638 538 q 710 640 710 596 q 674 714 710 685 q 582 743 638 743 q 490 714 526 743 q 454 640 454 685 z "},"⑨":{"ha":1164,"x_min":69,"x_max":1094,"o":"m 582 -17 q 325 52 443 -17 q 138 239 207 121 q 69 497 69 357 q 138 753 69 636 q 325 940 207 871 q 582 1008 443 1008 q 839 940 721 1008 q 1026 753 957 871 q 1094 497 1094 636 q 1026 239 1094 357 q 839 52 957 121 q 582 -17 721 -17 m 582 25 q 817 89 708 25 q 989 261 925 153 q 1053 497 1053 369 q 989 731 1053 624 q 817 903 925 839 q 582 967 708 967 q 347 903 456 967 q 175 731 239 839 q 111 497 111 624 q 175 261 111 369 q 347 89 239 153 q 582 25 456 25 m 440 342 q 494 272 457 299 q 572 244 531 244 q 682 313 640 244 q 728 497 724 381 q 663 423 706 453 q 572 393 619 393 q 483 419 524 393 q 418 489 442 444 q 394 586 394 533 q 447 727 394 672 q 581 782 499 782 q 678 749 636 782 q 745 658 721 717 q 769 526 769 600 q 745 356 769 429 q 676 244 721 283 q 572 206 632 206 q 463 242 513 206 q 397 336 414 279 l 440 342 m 719 586 q 679 697 721 651 q 576 743 638 743 q 476 697 517 743 q 436 586 436 651 q 476 476 436 521 q 572 432 515 432 q 676 476 633 432 q 719 586 718 521 z "},"⁄":{"ha":833,"x_min":36,"x_max":794,"o":"m 88 0 l 36 0 l 743 986 l 794 986 l 88 0 z "},"½":{"ha":1282,"x_min":69,"x_max":1213,"o":"m 294 0 l 243 0 l 950 986 l 1001 986 l 294 0 m 88 874 q 183 902 151 874 q 214 988 214 931 l 244 988 l 244 449 l 203 449 l 203 843 l 69 843 l 69 874 l 88 874 z "},"⅓":{"ha":1307,"x_min":69,"x_max":1238,"o":"m 297 0 l 246 0 l 953 986 l 1004 986 l 297 0 m 88 874 q 183 902 151 874 q 214 988 214 931 l 244 988 l 244 449 l 203 449 l 203 843 l 69 843 l 69 874 l 88 874 z "},"⅔":{"ha":1328,"x_min":69,"x_max":1258,"o":"m 318 0 l 267 0 l 974 986 l 1025 986 l 318 0 m 79 833 q 140 961 89 914 q 267 1008 190 1008 q 386 965 340 1008 q 432 853 432 921 q 401 771 432 807 q 301 690 369 735 l 263 665 q 159 581 203 628 q 117 490 115 535 l 436 490 l 436 451 l 69 451 q 103 574 69 521 q 233 692 136 628 l 278 721 l 279 722 q 361 785 332 757 q 390 853 390 814 q 357 938 390 907 q 267 969 324 969 q 172 933 210 969 q 121 829 133 897 l 79 833 z "},"¼":{"ha":1300,"x_min":69,"x_max":1231,"o":"m 297 0 l 246 0 l 953 986 l 1004 986 l 297 0 m 88 874 q 183 902 151 874 q 214 988 214 931 l 244 988 l 244 449 l 203 449 l 203 843 l 69 843 l 69 874 l 88 874 z "},"¾":{"ha":1354,"x_min":69,"x_max":1285,"o":"m 351 0 l 300 0 l 1007 986 l 1058 986 l 351 0 m 258 757 q 353 788 314 757 q 392 864 392 819 q 353 938 392 907 q 264 969 315 969 q 176 940 214 969 q 133 869 139 911 l 89 875 q 148 970 97 932 q 264 1008 199 1008 q 384 966 335 1008 q 433 864 433 924 q 403 787 433 822 q 329 738 374 751 q 418 683 382 722 q 454 593 454 643 q 430 508 454 546 q 363 450 406 471 q 265 429 319 429 q 167 449 211 429 q 98 503 124 468 q 69 585 72 539 l 113 589 q 161 502 118 536 q 265 468 204 468 q 371 503 329 468 q 413 593 413 539 q 367 681 413 644 q 258 718 322 718 l 231 718 l 231 757 l 258 757 z "},"⅕":{"ha":1278,"x_min":69,"x_max":1208,"o":"m 297 0 l 246 0 l 953 986 l 1004 986 l 297 0 m 88 874 q 183 902 151 874 q 214 988 214 931 l 244 988 l 244 449 l 203 449 l 203 843 l 69 843 l 69 874 l 88 874 z "},"⅛":{"ha":1304,"x_min":69,"x_max":1235,"o":"m 297 0 l 246 0 l 953 986 l 1004 986 l 297 0 m 88 874 q 183 902 151 874 q 214 988 214 931 l 244 988 l 244 449 l 203 449 l 203 843 l 69 843 l 69 874 l 88 874 z "},"⅜":{"ha":1358,"x_min":69,"x_max":1289,"o":"m 351 0 l 300 0 l 1007 986 l 1058 986 l 351 0 m 258 757 q 353 788 314 757 q 392 864 392 819 q 353 938 392 907 q 264 969 315 969 q 176 940 214 969 q 133 869 139 911 l 89 875 q 148 970 97 932 q 264 1008 199 1008 q 384 966 335 1008 q 433 864 433 924 q 403 787 433 822 q 329 738 374 751 q 418 683 382 722 q 454 593 454 643 q 430 508 454 546 q 363 450 406 471 q 265 429 319 429 q 167 449 211 429 q 98 503 124 468 q 69 585 72 539 l 113 589 q 161 502 118 536 q 265 468 204 468 q 371 503 329 468 q 413 593 413 539 q 367 681 413 644 q 258 718 322 718 l 231 718 l 231 757 l 258 757 z "},"⅝":{"ha":1338,"x_min":69,"x_max":1268,"o":"m 331 0 l 279 0 l 986 986 l 1038 986 l 331 0 m 394 949 l 151 949 l 122 724 q 174 783 136 758 q 253 807 211 807 q 339 783 301 807 q 397 715 376 758 q 418 617 418 672 q 395 520 418 564 q 332 451 372 476 q 243 425 292 425 q 126 469 176 425 q 69 579 76 514 l 114 583 q 154 497 118 531 q 250 464 190 464 q 340 508 303 464 q 376 617 376 553 q 341 726 376 683 q 250 768 306 768 q 174 744 207 768 q 118 674 140 721 l 75 674 l 118 988 l 394 988 l 394 949 z "},"⅞":{"ha":1667,"x_min":231,"x_max":1442,"o":"m 504 0 l 453 0 l 1160 986 l 1211 986 l 504 0 m 600 986 l 600 947 q 465 708 514 843 q 415 447 415 574 l 371 447 q 423 706 371 571 q 563 947 475 840 l 231 947 l 231 986 l 600 986 z "},"₀":{"ha":833,"x_min":213,"x_max":621,"o":"m 417 -21 q 308 15 354 -21 q 238 115 263 50 q 213 267 213 179 q 238 420 213 354 q 308 522 263 486 q 417 557 354 557 q 525 522 479 557 q 596 420 571 486 q 621 267 621 354 q 596 115 621 179 q 525 15 571 50 q 417 -21 479 -21 m 254 267 q 289 100 254 167 l 521 468 q 417 517 481 517 q 298 449 342 517 q 254 267 254 382 m 313 67 q 417 19 353 19 q 535 86 492 19 q 579 267 579 153 q 544 435 579 369 l 313 67 z "},"₁":{"ha":833,"x_min":279,"x_max":454,"o":"m 297 425 q 392 453 361 425 q 424 539 424 482 l 454 539 l 454 0 l 413 0 l 413 394 l 279 394 l 279 425 l 297 425 z "},"₂":{"ha":833,"x_min":222,"x_max":589,"o":"m 232 382 q 292 510 242 463 q 419 557 343 557 q 539 513 493 557 q 585 401 585 469 q 553 319 585 356 q 454 239 522 283 l 415 214 q 312 130 356 176 q 269 39 268 83 l 589 39 l 589 0 l 222 0 q 256 123 222 69 q 386 240 289 176 l 431 269 l 432 271 q 514 334 485 306 q 543 401 543 363 q 510 487 543 456 q 419 518 476 518 q 324 482 363 518 q 274 378 286 446 l 232 382 z "},"₃":{"ha":833,"x_min":222,"x_max":607,"o":"m 411 306 q 506 337 467 306 q 544 413 544 368 q 506 487 544 456 q 417 518 468 518 q 329 489 367 518 q 286 418 292 460 l 242 424 q 301 519 250 481 q 417 557 351 557 q 537 515 488 557 q 586 413 586 472 q 556 335 586 371 q 482 286 526 300 q 571 231 535 271 q 607 142 607 192 q 583 57 607 94 q 515 -1 558 19 q 418 -22 472 -22 q 320 -3 364 -22 q 251 52 276 17 q 222 133 225 88 l 265 138 q 314 51 271 85 q 418 17 357 17 q 524 52 482 17 q 565 142 565 88 q 520 230 565 193 q 411 267 475 267 l 383 267 l 383 306 l 411 306 z "},"₄":{"ha":833,"x_min":183,"x_max":590,"o":"m 515 171 l 590 171 l 590 132 l 515 132 l 515 0 l 474 0 l 474 132 l 183 132 l 183 157 l 472 539 l 515 539 l 515 171 m 474 171 l 474 478 l 244 171 l 474 171 z "},"₅":{"ha":833,"x_min":243,"x_max":592,"o":"m 568 501 l 325 501 l 296 276 q 347 335 310 311 q 426 360 385 360 q 513 335 475 360 q 571 268 550 311 q 592 169 592 225 q 569 73 592 117 q 506 3 546 29 q 417 -22 465 -22 q 300 22 350 -22 q 243 132 250 67 l 288 136 q 328 50 292 83 q 424 17 364 17 q 513 61 476 17 q 550 169 550 106 q 515 278 550 236 q 424 321 479 321 q 347 297 381 321 q 292 226 314 274 l 249 226 l 292 540 l 568 540 l 568 501 z "},"₆":{"ha":833,"x_min":229,"x_max":604,"o":"m 558 418 q 510 490 540 464 q 433 515 479 515 q 355 482 390 515 q 297 391 319 449 q 271 263 274 333 q 337 337 293 307 q 426 367 381 367 q 516 341 475 367 q 581 271 557 315 q 604 174 604 226 q 552 33 604 88 q 418 -22 500 -22 q 320 10 363 -22 q 253 101 278 43 q 229 233 229 160 q 256 394 229 321 q 331 511 283 468 q 433 554 378 554 q 540 517 494 554 q 601 424 585 481 l 558 418 m 279 174 q 319 63 278 108 q 422 17 361 17 q 522 63 482 17 q 563 174 563 108 q 523 283 563 239 q 426 328 483 328 q 323 283 365 328 q 279 174 281 239 z "},"₇":{"ha":833,"x_min":231,"x_max":600,"o":"m 600 538 l 600 499 q 465 260 514 394 q 415 -1 415 125 l 371 -1 q 423 257 371 122 q 563 499 475 392 l 231 499 l 231 538 l 600 538 z "},"₈":{"ha":833,"x_min":221,"x_max":613,"o":"m 417 -22 q 276 24 331 -22 q 221 142 221 69 q 254 231 221 189 q 340 290 288 272 q 274 337 300 303 q 247 413 247 371 q 294 515 247 475 q 417 554 342 554 q 539 515 492 554 q 586 413 586 475 q 560 337 586 371 q 493 290 533 303 q 579 230 546 271 q 613 142 613 189 q 558 24 613 69 q 417 -22 503 -22 m 263 142 q 306 51 263 86 q 417 17 349 17 q 528 51 485 17 q 571 142 571 86 q 528 235 571 199 q 417 271 485 271 q 306 235 349 271 q 263 142 263 199 m 289 413 q 325 339 289 368 q 417 310 361 310 q 508 339 472 310 q 544 413 544 368 q 508 486 544 457 q 417 515 472 515 q 325 486 361 515 q 289 413 289 457 z "},"₉":{"ha":833,"x_min":229,"x_max":604,"o":"m 275 114 q 328 44 292 71 q 407 17 365 17 q 517 85 475 17 q 563 269 558 153 q 497 195 540 225 q 407 165 454 165 q 317 191 358 165 q 253 261 276 217 q 229 358 229 306 q 281 499 229 444 q 415 554 333 554 q 513 522 471 554 q 580 431 556 489 q 604 299 604 372 q 580 128 604 201 q 511 17 556 56 q 407 -22 467 -22 q 298 15 347 -22 q 232 108 249 51 l 275 114 m 554 358 q 514 469 556 424 q 411 515 472 515 q 311 469 351 515 q 271 358 271 424 q 310 249 271 293 q 407 204 350 204 q 510 249 468 204 q 554 358 553 293 z "},"⁰":{"ha":833,"x_min":213,"x_max":621,"o":"m 417 431 q 308 466 354 431 q 238 566 263 501 q 213 718 213 631 q 238 872 213 806 q 308 973 263 938 q 417 1008 354 1008 q 525 973 479 1008 q 596 872 571 938 q 621 718 621 806 q 596 566 621 631 q 525 466 571 501 q 417 431 479 431 m 254 718 q 289 551 254 618 l 521 919 q 417 968 481 968 q 298 901 342 968 q 254 718 254 833 m 313 518 q 417 471 353 471 q 535 538 492 471 q 579 718 579 604 q 544 886 579 821 l 313 518 z "},"¹":{"ha":833,"x_min":279,"x_max":454,"o":"m 297 874 q 392 902 361 874 q 424 988 424 931 l 454 988 l 454 449 l 413 449 l 413 843 l 279 843 l 279 874 l 297 874 z "},"²":{"ha":833,"x_min":222,"x_max":589,"o":"m 232 833 q 292 961 242 914 q 419 1008 343 1008 q 539 965 493 1008 q 585 853 585 921 q 553 771 585 807 q 454 690 522 735 l 415 665 q 312 581 356 628 q 269 490 268 535 l 589 490 l 589 451 l 222 451 q 256 574 222 521 q 386 692 289 628 l 431 721 l 432 722 q 514 785 485 757 q 543 853 543 814 q 510 938 543 907 q 419 969 476 969 q 324 933 363 969 q 274 829 286 897 l 232 833 z "},"³":{"ha":833,"x_min":222,"x_max":607,"o":"m 411 757 q 506 788 467 757 q 544 864 544 819 q 506 938 544 907 q 417 969 468 969 q 329 940 367 969 q 286 869 292 911 l 242 875 q 301 970 250 932 q 417 1008 351 1008 q 537 966 488 1008 q 586 864 586 924 q 556 787 586 822 q 482 738 526 751 q 571 683 535 722 q 607 593 607 643 q 583 508 607 546 q 515 450 558 471 q 418 429 472 429 q 320 449 364 429 q 251 503 276 468 q 222 585 225 539 l 265 589 q 314 502 271 536 q 418 468 357 468 q 524 503 482 468 q 565 593 565 539 q 520 681 565 644 q 411 718 475 718 l 383 718 l 383 757 l 411 757 z "},"⁴":{"ha":833,"x_min":183,"x_max":590,"o":"m 515 619 l 590 619 l 590 581 l 515 581 l 515 449 l 474 449 l 474 581 l 183 581 l 183 606 l 472 988 l 515 988 l 515 619 m 474 619 l 474 926 l 244 619 l 474 619 z "},"⁵":{"ha":833,"x_min":243,"x_max":592,"o":"m 568 949 l 325 949 l 296 724 q 347 783 310 758 q 426 807 385 807 q 513 783 475 807 q 571 715 550 758 q 592 617 592 672 q 569 520 592 564 q 506 451 546 476 q 417 425 465 425 q 300 469 350 425 q 243 579 250 514 l 288 583 q 328 497 292 531 q 424 464 364 464 q 513 508 476 464 q 550 617 550 553 q 515 726 550 683 q 424 768 479 768 q 347 744 381 768 q 292 674 314 721 l 249 674 l 292 988 l 568 988 l 568 949 z "},"⁶":{"ha":833,"x_min":229,"x_max":604,"o":"m 558 872 q 510 944 540 918 q 433 969 479 969 q 355 936 390 969 q 297 845 319 903 q 271 717 274 788 q 337 791 293 761 q 426 821 381 821 q 516 795 475 821 q 581 725 557 769 q 604 628 604 681 q 552 487 604 542 q 418 432 500 432 q 320 465 363 432 q 253 556 278 497 q 229 688 229 614 q 256 849 229 775 q 331 965 283 922 q 433 1008 378 1008 q 540 972 494 1008 q 601 878 585 935 l 558 872 m 279 628 q 319 517 278 563 q 422 471 361 471 q 522 517 482 471 q 563 628 563 563 q 523 738 563 693 q 426 782 483 782 q 323 738 365 782 q 279 628 281 693 z "},"⁷":{"ha":833,"x_min":231,"x_max":600,"o":"m 600 986 l 600 947 q 465 708 514 843 q 415 447 415 574 l 371 447 q 423 706 371 571 q 563 947 475 840 l 231 947 l 231 986 l 600 986 z "},"⁸":{"ha":833,"x_min":221,"x_max":613,"o":"m 417 432 q 276 478 331 432 q 221 596 221 524 q 254 685 221 643 q 340 744 288 726 q 274 791 300 757 q 247 867 247 825 q 294 969 247 929 q 417 1008 342 1008 q 539 969 492 1008 q 586 867 586 929 q 560 791 586 825 q 493 744 533 757 q 579 684 546 725 q 613 596 613 643 q 558 478 613 524 q 417 432 503 432 m 263 596 q 306 506 263 540 q 417 471 349 471 q 528 506 485 471 q 571 596 571 540 q 528 689 571 653 q 417 725 485 725 q 306 689 349 725 q 263 596 263 653 m 289 867 q 325 793 289 822 q 417 764 361 764 q 508 793 472 764 q 544 867 544 822 q 508 940 544 911 q 417 969 472 969 q 325 940 361 969 q 289 867 289 911 z "},"⁹":{"ha":833,"x_min":229,"x_max":604,"o":"m 275 568 q 328 498 292 525 q 407 471 365 471 q 517 539 475 471 q 563 724 558 607 q 497 649 540 679 q 407 619 454 619 q 317 645 358 619 q 253 715 276 671 q 229 813 229 760 q 281 953 229 899 q 415 1008 333 1008 q 513 976 471 1008 q 580 885 556 943 q 604 753 604 826 q 580 583 604 656 q 511 471 556 510 q 407 432 467 432 q 298 469 347 432 q 232 563 249 506 l 275 568 m 554 813 q 514 924 556 878 q 411 969 472 969 q 311 924 351 969 q 271 813 271 878 q 310 703 271 747 q 407 658 350 658 q 510 703 468 658 q 554 813 553 747 z "}," ":{"ha":347,"x_min":0,"x_max":0,"o":""},"。":{"ha":428,"x_min":69,"x_max":358,"o":"m 215 -118 q 142 -99 175 -118 q 89 -47 108 -79 q 69 25 69 -14 q 89 99 69 65 q 142 151 108 132 q 215 171 175 171 q 287 151 254 171 q 339 99 319 132 q 358 25 358 65 q 339 -47 358 -14 q 287 -99 319 -79 q 215 -118 254 -118 m 215 -78 q 288 -49 258 -78 q 317 25 317 -19 q 288 99 317 68 q 215 131 258 131 q 142 99 174 131 q 111 25 111 67 q 142 -48 111 -18 q 215 -78 174 -78 z "},".":{"ha":221,"x_min":69,"x_max":151,"o":"m 151 90 l 151 0 l 69 0 l 69 90 l 151 90 z "},",":{"ha":229,"x_min":69,"x_max":160,"o":"m 104 -174 l 69 -174 l 111 0 l 160 0 l 104 -174 m 160 90 l 160 0 l 78 0 l 78 90 l 160 90 z "},":":{"ha":349,"x_min":133,"x_max":215,"o":"m 215 90 l 215 0 l 133 0 l 133 90 l 215 90 m 215 594 l 215 504 l 133 504 l 133 594 l 215 594 z "},";":{"ha":357,"x_min":133,"x_max":224,"o":"m 224 594 l 224 504 l 142 504 l 142 594 l 224 594 m 168 -174 l 133 -174 l 175 0 l 224 0 l 168 -174 m 224 90 l 224 0 l 142 0 l 142 90 l 224 90 z "},"…":{"ha":735,"x_min":69,"x_max":665,"o":"m 151 90 l 151 0 l 69 0 l 69 90 l 151 90 m 407 90 l 407 0 l 325 0 l 325 90 l 407 90 m 665 90 l 665 0 l 583 0 l 583 90 l 665 90 z "},"!":{"ha":235,"x_min":76,"x_max":158,"o":"m 140 986 l 140 639 q 136 396 140 515 q 133 285 135 340 l 103 285 q 100 396 101 340 q 97 515 97 454 q 96 639 96 575 l 96 986 l 140 986 m 158 90 l 158 0 l 76 0 l 76 90 l 158 90 z "},"¡":{"ha":235,"x_min":76,"x_max":158,"o":"m 140 -225 l 140 122 q 136 365 140 246 q 133 476 135 421 l 103 476 q 100 365 101 421 q 97 247 97 307 q 96 122 96 186 l 96 -225 l 140 -225 m 158 671 l 158 761 l 76 761 l 76 671 l 158 671 z "},"?":{"ha":717,"x_min":69,"x_max":647,"o":"m 332 311 q 363 435 332 376 q 449 540 393 494 l 460 549 q 542 619 515 593 q 584 675 568 644 q 600 746 600 706 q 533 903 600 842 q 363 964 467 964 q 187 892 250 964 q 117 689 124 819 l 69 693 q 113 861 75 790 q 214 970 150 932 q 363 1008 278 1008 q 510 975 444 1008 q 611 882 575 942 q 647 746 647 822 q 626 660 647 699 q 574 589 606 621 q 483 511 542 557 l 482 510 q 403 417 431 468 q 376 311 376 365 l 332 311 m 396 90 l 396 0 l 314 0 l 314 90 l 396 90 z "},"¿":{"ha":717,"x_min":69,"x_max":647,"o":"m 385 472 q 354 348 385 407 q 268 243 324 289 l 257 235 q 175 165 201 190 q 133 108 149 139 q 117 38 117 78 q 183 -119 117 -58 q 354 -181 250 -181 q 530 -108 467 -181 q 600 94 593 -36 l 647 90 q 604 -78 642 -7 q 503 -187 567 -149 q 354 -225 439 -225 q 207 -192 272 -225 q 106 -99 142 -158 q 69 38 69 -39 q 90 124 69 85 q 143 194 111 163 q 233 272 175 226 l 235 274 q 313 367 286 315 q 340 472 340 418 l 385 472 m 321 693 l 321 783 l 403 783 l 403 693 l 321 693 z "},"·":{"ha":221,"x_min":69,"x_max":151,"o":"m 151 460 l 151 369 l 69 369 l 69 460 l 151 460 z "},"•":{"ha":290,"x_min":69,"x_max":221,"o":"m 145 309 q 92 330 114 309 q 70 382 70 350 q 92 437 70 416 q 145 457 114 457 q 200 437 179 457 q 221 382 221 416 q 199 330 221 350 q 145 309 177 309 z "},"*":{"ha":614,"x_min":69,"x_max":544,"o":"m 544 739 l 342 739 l 443 564 l 408 543 l 307 719 l 206 543 l 171 564 l 272 739 l 69 739 l 69 781 l 272 781 l 171 956 l 206 976 l 307 800 l 408 976 l 443 956 l 342 781 l 544 781 l 544 739 z "},"〃":{"ha":378,"x_min":69,"x_max":308,"o":"m 94 390 l 69 390 l 147 668 l 189 668 l 94 390 m 214 390 l 189 390 l 267 668 l 308 668 l 214 390 z "},"#":{"ha":664,"x_min":-14,"x_max":671,"o":"m 258 985 l 304 986 l 122 0 l 78 0 l 258 985 m 546 985 l 592 986 l 410 0 l 365 0 l 546 985 m 671 682 l 656 640 l 42 640 l 57 682 l 671 682 m 615 342 l 600 300 l -14 300 l 1 342 l 615 342 z "},"/":{"ha":600,"x_min":56,"x_max":510,"o":"m 465 1042 l 510 1042 l 99 -153 l 56 -153 l 465 1042 z "},"\\":{"ha":621,"x_min":97,"x_max":551,"o":"m 142 1042 l 97 1042 l 508 -153 l 551 -153 l 142 1042 z "},"＆":{"ha":811,"x_min":76,"x_max":776,"o":"m 349 1013 q 246 988 290 1013 q 176 919 201 964 q 151 813 151 874 q 183 697 151 751 q 276 567 215 642 l 290 549 q 268 533 279 542 l 258 528 q 121 398 165 467 q 76 247 76 329 q 116 110 76 169 q 224 17 156 50 q 372 -17 292 -17 q 522 13 453 -17 q 644 97 592 43 l 721 0 l 776 0 l 674 131 q 728 226 707 174 q 758 336 750 279 l 711 343 q 687 250 704 294 q 643 169 669 206 l 351 542 q 497 665 444 601 q 550 799 550 729 q 524 908 550 860 q 451 985 497 957 q 349 1013 404 1013 m 615 133 q 507 56 569 83 q 372 28 444 28 q 247 55 304 28 q 157 132 190 82 q 124 247 124 182 q 167 385 124 324 q 314 514 211 447 l 615 133 m 326 574 q 230 710 261 657 q 199 811 199 763 q 240 926 199 885 q 349 968 282 968 q 458 919 414 968 q 503 797 503 871 q 461 690 503 740 q 326 574 419 639 z "},"＊":{"ha":614,"x_min":69,"x_max":544,"o":"m 544 739 l 342 739 l 443 564 l 408 543 l 307 719 l 206 543 l 171 564 l 272 739 l 69 739 l 69 781 l 272 781 l 171 956 l 206 976 l 307 800 l 408 976 l 443 956 l 342 781 l 544 781 l 544 739 z "},"＠":{"ha":1286,"x_min":61,"x_max":1219,"o":"m 914 681 l 889 361 q 900 243 882 290 q 988 180 919 190 q 1113 235 1057 169 q 1169 451 1169 300 q 1107 700 1169 588 q 933 877 1044 813 q 683 942 822 942 q 405 872 533 942 q 199 681 276 801 q 117 417 122 561 q 206 105 110 225 q 476 -41 303 -15 q 861 13 649 -67 l 875 -29 q 466 -85 654 -114 q 169 76 278 -56 q 69 417 61 207 q 159 704 75 574 q 382 910 243 835 q 686 986 521 986 q 957 917 836 986 q 1147 728 1078 847 q 1217 464 1215 608 q 1130 190 1219 272 q 944 147 1040 107 q 849 303 849 186 l 860 329 q 757 171 835 229 q 572 113 679 113 q 438 151 496 113 q 352 256 381 190 q 333 403 324 322 q 385 549 342 482 q 492 654 428 615 q 629 693 557 693 q 776 642 711 693 q 865 511 842 592 l 857 506 l 872 681 l 914 681 m 846 392 q 826 520 851 461 q 751 614 801 579 q 636 649 701 649 q 515 616 571 649 q 422 527 458 583 q 378 403 385 471 q 426 221 367 288 q 596 154 485 154 q 713 185 658 154 q 803 271 768 217 q 846 392 839 325 z "},"＼":{"ha":529,"x_min":6,"x_max":460,"o":"m 50 1042 l 6 1042 l 417 -153 l 460 -153 l 50 1042 z "},"：":{"ha":221,"x_min":69,"x_max":151,"o":"m 151 90 l 151 0 l 69 0 l 69 90 l 151 90 m 151 594 l 151 504 l 69 504 l 69 594 l 151 594 z "},"，":{"ha":229,"x_min":69,"x_max":160,"o":"m 104 -174 l 69 -174 l 111 0 l 160 0 l 104 -174 m 160 90 l 160 0 l 78 0 l 78 90 l 160 90 z "},"！":{"ha":346,"x_min":90,"x_max":172,"o":"m 154 986 l 154 639 q 150 396 154 515 q 147 285 149 340 l 117 285 q 114 396 115 340 q 110 515 111 454 q 110 639 110 575 l 110 986 l 154 986 m 172 90 l 172 0 l 90 0 l 90 90 l 172 90 z "},"＃":{"ha":664,"x_min":-14,"x_max":671,"o":"m 258 985 l 304 986 l 122 0 l 78 0 l 258 985 m 546 985 l 592 986 l 410 0 l 365 0 l 546 985 m 671 682 l 656 640 l 42 640 l 57 682 l 671 682 m 615 342 l 600 300 l -14 300 l 1 342 l 615 342 z "},"％":{"ha":989,"x_min":69,"x_max":919,"o":"m 888 1008 l 168 -17 l 113 -17 l 832 1008 l 888 1008 m 226 608 q 147 633 183 608 q 90 702 111 658 q 69 797 69 746 q 90 892 69 849 q 147 961 111 936 q 226 986 183 986 q 306 961 269 986 q 363 892 342 936 q 383 797 383 849 q 363 702 383 746 q 306 633 342 658 q 226 608 269 608 m 226 650 q 308 691 276 650 q 339 797 339 732 q 308 904 339 864 q 226 944 276 944 q 145 904 176 944 q 114 797 114 864 q 145 691 114 732 q 226 650 176 650 m 763 0 q 683 25 719 0 q 626 94 647 50 q 606 189 606 138 q 626 284 606 240 q 683 353 647 328 q 763 378 719 378 q 842 353 806 378 q 899 284 878 328 q 919 189 919 240 q 899 94 919 138 q 842 25 878 50 q 763 0 806 0 m 763 42 q 844 83 813 42 q 875 189 875 124 q 844 296 875 256 q 763 336 813 336 q 681 296 713 336 q 650 189 650 256 q 681 83 650 124 q 763 42 713 42 z "},"．":{"ha":221,"x_min":69,"x_max":151,"o":"m 151 83 l 151 -7 l 69 -7 l 69 83 l 151 83 z "},"？":{"ha":717,"x_min":69,"x_max":647,"o":"m 332 311 q 363 435 332 376 q 449 540 393 494 l 460 549 q 542 619 515 593 q 584 675 568 644 q 600 746 600 706 q 533 903 600 842 q 363 964 467 964 q 187 892 250 964 q 117 689 124 819 l 69 693 q 113 861 75 790 q 214 970 150 932 q 363 1008 278 1008 q 510 975 444 1008 q 611 882 575 942 q 647 746 647 822 q 626 660 647 699 q 574 589 606 621 q 483 511 542 557 l 482 510 q 403 417 431 468 q 376 311 376 365 l 332 311 m 396 90 l 396 0 l 314 0 l 314 90 l 396 90 z "},"＂":{"ha":340,"x_min":69,"x_max":271,"o":"m 271 986 l 271 889 l 257 649 l 218 649 l 215 986 l 271 986 m 125 986 l 121 649 l 82 649 l 69 890 l 69 986 l 125 986 z "},"＇":{"ha":194,"x_min":69,"x_max":125,"o":"m 125 986 l 125 889 l 117 649 l 78 649 l 69 889 l 69 986 l 125 986 z "},"；":{"ha":229,"x_min":69,"x_max":160,"o":"m 160 594 l 160 504 l 78 504 l 78 594 l 160 594 m 104 -174 l 69 -174 l 111 0 l 160 0 l 104 -174 m 160 90 l 160 0 l 78 0 l 78 90 l 160 90 z "},"／":{"ha":572,"x_min":28,"x_max":482,"o":"m 438 1042 l 482 1042 l 71 -153 l 28 -153 l 438 1042 z "},"＿":{"ha":742,"x_min":69,"x_max":672,"o":"m 672 -61 l 672 -103 l 69 -103 l 69 -61 l 672 -61 z "},"-":{"ha":550,"x_min":69,"x_max":481,"o":"m 481 411 l 481 369 l 69 369 l 69 411 l 481 411 z "},"­":{"ha":550,"x_min":69,"x_max":481,"o":"m 481 411 l 481 369 l 69 369 l 69 411 l 481 411 z "},"–":{"ha":789,"x_min":69,"x_max":719,"o":"m 719 413 l 719 371 l 69 371 l 69 413 l 719 413 z "},"—":{"ha":1228,"x_min":69,"x_max":1158,"o":"m 1158 413 l 1158 371 l 69 371 l 69 413 l 1158 413 z "},"_":{"ha":742,"x_min":69,"x_max":672,"o":"m 672 -61 l 672 -103 l 69 -103 l 69 -61 l 672 -61 z "},"〜":{"ha":1088,"x_min":69,"x_max":1018,"o":"m 989 481 q 862 395 915 419 q 747 371 808 371 q 688 376 713 371 q 626 399 664 382 q 503 460 588 417 q 405 496 460 482 q 307 510 350 510 q 179 489 232 510 q 69 417 126 468 l 101 382 q 196 446 147 426 q 308 465 244 465 q 401 451 349 465 q 503 413 453 436 q 616 358 574 376 q 685 334 658 340 q 738 326 711 328 l 747 326 q 1018 444 890 326 l 989 481 z "},"－":{"ha":1008,"x_min":69,"x_max":939,"o":"m 939 507 l 939 465 l 69 465 l 69 507 l 939 507 z "},"(":{"ha":332,"x_min":-29,"x_max":263,"o":"m 263 1042 q 263 -153 -29 444 l 228 -153 q 69 444 69 146 q 228 1042 69 743 l 263 1042 z "},")":{"ha":332,"x_min":69,"x_max":361,"o":"m 69 1042 q 69 -153 361 444 l 104 -153 q 263 444 263 146 q 104 1042 263 743 l 69 1042 z "},"{":{"ha":539,"x_min":69,"x_max":469,"o":"m 69 464 q 149 490 114 464 q 203 565 183 517 q 222 678 222 613 l 222 803 q 250 930 222 876 q 329 1013 278 983 q 450 1042 381 1042 l 469 1042 l 469 1000 q 319 948 372 1000 q 267 806 267 896 l 267 678 q 224 516 267 581 q 114 444 181 451 l 114 443 q 224 371 182 436 q 267 207 267 306 l 267 79 q 319 -63 267 -11 q 469 -115 372 -115 l 469 -157 l 450 -157 q 329 -128 381 -157 q 250 -45 278 -99 q 222 82 222 8 l 222 207 q 203 320 222 272 q 149 394 183 368 q 69 421 114 421 l 69 464 z "},"}":{"ha":539,"x_min":69,"x_max":469,"o":"m 469 464 q 390 490 425 464 q 336 565 356 517 q 317 678 317 613 l 317 803 q 289 930 317 876 q 210 1013 261 983 q 89 1042 158 1042 l 69 1042 l 69 1000 q 219 948 167 1000 q 272 806 272 896 l 272 678 q 315 516 272 581 q 425 444 358 451 l 425 443 q 315 371 357 436 q 272 207 272 306 l 272 79 q 219 -63 272 -11 q 69 -115 167 -115 l 69 -157 l 89 -157 q 210 -128 158 -157 q 289 -45 261 -99 q 317 82 317 8 l 317 207 q 336 320 317 272 q 390 394 356 368 q 469 421 425 421 l 469 464 z "},"[":{"ha":351,"x_min":69,"x_max":282,"o":"m 69 -153 l 282 -153 l 282 -111 l 114 -111 l 114 1000 l 282 1000 l 282 1042 l 69 1042 l 69 -153 z "},"]":{"ha":351,"x_min":69,"x_max":282,"o":"m 282 -153 l 69 -153 l 69 -111 l 238 -111 l 238 1000 l 69 1000 l 69 1042 l 282 1042 l 282 -153 z "},"〈":{"ha":440,"x_min":69,"x_max":371,"o":"m 371 1140 l 117 492 l 371 -158 l 324 -158 l 69 492 l 324 1140 l 371 1140 z "},"〉":{"ha":440,"x_min":69,"x_max":371,"o":"m 69 1140 l 324 492 l 69 -158 l 117 -158 l 371 492 l 117 1140 l 69 1140 z "},"【":{"ha":479,"x_min":69,"x_max":410,"o":"m 69 -87 l 410 -87 q 222 530 222 211 q 410 1146 222 849 l 69 1146 l 69 -87 z "},"】":{"ha":479,"x_min":69,"x_max":410,"o":"m 410 -87 l 69 -87 q 257 530 257 211 q 69 1146 257 849 l 410 1146 l 410 -87 z "},"｛":{"ha":539,"x_min":69,"x_max":469,"o":"m 69 464 q 149 490 114 464 q 203 565 183 517 q 222 678 222 613 l 222 803 q 250 930 222 876 q 329 1013 278 983 q 450 1042 381 1042 l 469 1042 l 469 1000 q 319 948 372 1000 q 267 806 267 896 l 267 678 q 224 516 267 581 q 114 444 181 451 l 114 443 q 224 371 182 436 q 267 207 267 306 l 267 79 q 319 -63 267 -11 q 469 -115 372 -115 l 469 -157 l 450 -157 q 329 -128 381 -157 q 250 -45 278 -99 q 222 82 222 8 l 222 207 q 203 320 222 272 q 149 394 183 368 q 69 421 114 421 l 69 464 z "},"｝":{"ha":539,"x_min":69,"x_max":469,"o":"m 469 464 q 390 490 425 464 q 336 565 356 517 q 317 678 317 613 l 317 803 q 289 930 317 876 q 210 1013 261 983 q 89 1042 158 1042 l 69 1042 l 69 1000 q 219 948 167 1000 q 272 806 272 896 l 272 678 q 315 516 272 581 q 425 444 358 451 l 425 443 q 315 371 357 436 q 272 207 272 306 l 272 79 q 219 -63 272 -11 q 69 -115 167 -115 l 69 -157 l 89 -157 q 210 -128 158 -157 q 289 -45 261 -99 q 317 82 317 8 l 317 207 q 336 320 317 272 q 390 394 356 368 q 469 421 425 421 l 469 464 z "},"「":{"ha":529,"x_min":69,"x_max":460,"o":"m 69 1147 l 460 1147 l 460 1106 l 114 1106 l 114 407 l 69 407 l 69 1147 z "},"」":{"ha":529,"x_min":69,"x_max":460,"o":"m 460 -144 l 69 -144 l 69 -103 l 415 -103 l 415 596 l 460 596 l 460 -144 z "},"《":{"ha":672,"x_min":69,"x_max":603,"o":"z "},"》":{"ha":672,"x_min":69,"x_max":603,"o":"m 301 1140 l 556 492 l 301 -158 l 349 -158 l 603 492 l 349 1140 l 301 1140 m 69 1140 l 324 492 l 69 -158 l 117 -158 l 371 492 l 117 1140 l 69 1140 z "},"〔":{"ha":488,"x_min":69,"x_max":418,"o":"m 69 871 l 69 101 l 389 -208 l 418 -174 l 114 119 l 113 854 l 417 1147 l 389 1181 l 69 871 z "},"〕":{"ha":488,"x_min":69,"x_max":418,"o":"m 418 871 l 418 101 l 99 -208 l 69 -174 l 374 119 l 375 854 l 71 1147 l 99 1181 l 418 871 z "},"『":{"ha":560,"x_min":69,"x_max":490,"o":"m 69 1147 l 490 1147 l 490 925 l 292 925 l 292 324 l 69 324 l 69 1147 m 247 365 l 247 967 l 446 967 l 446 1106 l 114 1106 l 114 365 l 247 365 z "},"』":{"ha":560,"x_min":69,"x_max":490,"o":"m 490 -143 l 69 -143 l 69 79 l 268 79 l 268 681 l 490 681 l 490 -143 m 313 639 l 313 38 l 114 38 l 114 -101 l 446 -101 l 446 639 l 313 639 z "},"〖":{"ha":507,"x_min":69,"x_max":438,"o":"m 69 -87 l 438 -87 q 250 530 250 211 q 438 1146 250 849 l 69 1146 l 69 -87 m 353 1104 q 208 530 208 825 q 353 -46 208 235 l 114 -46 l 114 1104 l 353 1104 z "},"〗":{"ha":507,"x_min":69,"x_max":438,"o":"m 438 -87 l 69 -87 q 257 530 257 211 q 69 1146 257 849 l 438 1146 l 438 -87 m 154 1104 q 299 530 299 825 q 154 -46 299 235 l 393 -46 l 393 1104 l 154 1104 z "},"［":{"ha":351,"x_min":69,"x_max":282,"o":"m 69 -153 l 282 -153 l 282 -111 l 114 -111 l 114 1000 l 282 1000 l 282 1042 l 69 1042 l 69 -153 z "},"］":{"ha":351,"x_min":69,"x_max":282,"o":"m 282 -153 l 69 -153 l 69 -111 l 238 -111 l 238 1000 l 69 1000 l 69 1042 l 282 1042 l 282 -153 z "},"（":{"ha":332,"x_min":-29,"x_max":263,"o":"m 263 1042 q 263 -153 -29 444 l 228 -153 q 69 444 69 146 q 228 1042 69 743 l 263 1042 z "},"）":{"ha":332,"x_min":69,"x_max":361,"o":"m 69 1042 q 69 -153 361 444 l 104 -153 q 263 444 263 146 q 104 1042 263 743 l 69 1042 z "},"‚":{"ha":229,"x_min":69,"x_max":160,"o":"m 104 -174 l 69 -174 l 111 0 l 160 0 l 104 -174 m 160 90 l 160 0 l 78 0 l 78 90 l 160 90 z "},"„":{"ha":382,"x_min":69,"x_max":313,"o":"z "},"“":{"ha":382,"x_min":69,"x_max":313,"o":"m 125 1000 l 160 1000 l 118 826 l 69 826 l 125 1000 m 69 736 l 69 826 l 151 826 l 151 736 l 69 736 m 278 1000 l 313 1000 l 271 826 l 222 826 l 278 1000 m 222 736 l 222 826 l 304 826 l 304 736 l 222 736 z "},"”":{"ha":382,"x_min":69,"x_max":313,"o":"m 257 722 l 222 722 l 264 896 l 313 896 l 257 722 m 313 986 l 313 896 l 231 896 l 231 986 l 313 986 m 104 722 l 69 722 l 111 896 l 160 896 l 104 722 m 160 986 l 160 896 l 78 896 l 78 986 l 160 986 z "},"‘":{"ha":229,"x_min":69,"x_max":160,"o":"m 125 1000 l 160 1000 l 118 826 l 69 826 l 125 1000 m 69 736 l 69 826 l 151 826 l 151 736 l 69 736 z "},"’":{"ha":229,"x_min":69,"x_max":160,"o":"m 104 722 l 69 722 l 111 896 l 160 896 l 104 722 m 160 986 l 160 896 l 78 896 l 78 986 l 160 986 z "},"«":{"ha":693,"x_min":69,"x_max":624,"o":"z "},"»":{"ha":693,"x_min":69,"x_max":624,"o":"z "},"‹":{"ha":413,"x_min":69,"x_max":343,"o":"m 69 404 l 69 363 l 288 106 l 343 106 l 107 383 l 343 661 l 288 661 l 69 404 z "},"›":{"ha":413,"x_min":69,"x_max":343,"o":"m 343 404 l 343 363 l 125 106 l 69 106 l 306 383 l 69 661 l 125 661 l 343 404 z "},"\"":{"ha":340,"x_min":69,"x_max":271,"o":"m 271 986 l 271 889 l 257 649 l 218 649 l 215 986 l 271 986 m 125 986 l 121 649 l 82 649 l 69 890 l 69 986 l 125 986 z "},"'":{"ha":194,"x_min":69,"x_max":125,"o":"m 125 986 l 125 889 l 117 649 l 78 649 l 69 889 l 69 986 l 125 986 z "},"ƒ":{"ha":660,"x_min":90,"x_max":597,"o":"m 90 42 l 147 42 q 228 80 196 42 q 268 183 261 118 l 336 800 q 390 938 346 889 q 506 986 433 986 l 597 986 l 597 944 l 500 944 q 417 908 449 944 q 379 806 386 872 l 310 189 q 255 49 299 99 q 139 0 211 0 l 90 0 l 90 42 m 203 736 l 597 736 l 597 694 l 203 694 l 203 736 z "},"฿":{"ha":844,"x_min":133,"x_max":768,"o":"m 133 986 l 393 986 q 640 917 554 986 q 726 722 726 849 q 695 603 726 656 q 609 521 664 550 q 483 492 554 492 l 483 500 q 691 436 614 500 q 768 263 768 372 q 685 68 768 136 q 449 0 603 0 l 133 0 l 133 986 m 449 42 q 653 97 585 42 q 721 263 721 151 q 647 415 721 358 q 449 471 574 471 l 178 471 l 178 42 l 449 42 m 393 513 q 605 567 531 513 q 679 722 679 621 q 605 887 679 829 q 393 944 531 944 l 178 944 l 178 513 l 393 513 m 419 1118 l 419 -126 l 375 -126 l 375 1118 l 419 1118 z "}}}
